<?xml version="1.0" standalone="no"?>
<!DOCTYPE svg PUBLIC "-//W3C//DTD SVG 20010904//EN"
 "http://www.w3.org/TR/2001/REC-SVG-20010904/DTD/svg10.dtd">
<svg version="1.0" xmlns="http://www.w3.org/2000/svg"
 width="600.000000pt" height="180.000000pt" viewBox="0 0 600.000000 180.000000"
 preserveAspectRatio="xMidYMid meet">

<g transform="translate(0.000000,180.000000) scale(0.100000,-0.100000)"
fill="#000000" stroke="none">
<path d="M767 1456 c-16 -23 -15 -24 13 -28 21 -3 36 2 50 17 23 25 18 35 -21
35 -17 0 -32 -8 -42 -24z"/>
<path d="M685 1463 c-19 -4 -45 -29 -45 -44 0 -9 52 1 68 14 13 10 17 38 5 36
-5 -1 -17 -3 -28 -6z"/>
<path d="M876 1441 c-22 -24 -21 -27 14 -35 17 -4 33 0 50 13 28 22 26 28 -16
37 -22 4 -34 0 -48 -15z"/>
<path d="M558 1427 c-16 -6 -28 -19 -28 -29 0 -16 3 -17 33 -5 17 7 33 21 35
30 4 19 -1 20 -40 4z"/>
<path d="M980 1400 l-25 -19 22 -22 21 -22 33 23 32 23 -23 19 c-27 22 -29 22
-60 -2z"/>
<path d="M443 1373 c-21 -14 -34 -50 -15 -41 50 24 62 33 62 45 0 17 -19 16
-47 -4z"/>
<path d="M630 1371 c-15 -30 -13 -34 17 -26 45 11 59 45 18 45 -14 0 -29 -8
-35 -19z"/>
<path d="M721 1371 c-9 -15 -7 -20 11 -24 25 -7 34 -3 48 24 10 17 7 19 -19
19 -19 0 -34 -7 -40 -19z"/>
<path d="M811 1356 l-22 -24 27 -6 c20 -5 32 -2 48 14 18 18 19 22 6 30 -23
15 -35 12 -59 -14z"/>
<path d="M548 1359 c-22 -12 -24 -39 -4 -39 16 0 46 26 46 41 0 12 -20 11 -42
-2z"/>
<path d="M1063 1329 c-31 -20 -32 -21 -17 -45 19 -28 25 -29 65 -9 l30 16 -21
29 c-12 17 -22 30 -23 30 -1 0 -16 -10 -34 -21z"/>
<path d="M891 1319 c-22 -18 -23 -21 -9 -36 15 -14 19 -14 47 3 36 21 38 29
12 44 -24 13 -21 13 -50 -11z"/>
<path d="M339 1307 c-15 -12 -24 -28 -22 -35 6 -16 63 23 63 44 0 19 -10 17
-41 -9z"/>
<path d="M453 1318 c-25 -12 -29 -23 -13 -33 14 -9 50 13 50 30 0 17 -7 18
-37 3z"/>
<path d="M1330 1265 l0 -55 65 0 65 0 0 55 0 55 -65 0 -65 0 0 -55z"/>
<path d="M2285 1296 c-44 -27 -79 -80 -89 -138 -6 -32 -11 -38 -32 -38 -24 0
-25 -2 -22 -57 3 -51 6 -58 26 -61 l22 -3 0 -220 0 -219 65 0 65 0 0 220 0
220 40 0 40 0 0 60 0 60 -41 0 c-37 0 -40 2 -34 23 9 29 33 47 62 47 22 0 23
4 23 65 l0 65 -42 0 c-27 0 -58 -9 -83 -24z"/>
<path d="M3082 1008 c3 -283 5 -317 22 -351 30 -61 77 -90 153 -95 l64 -4 -3
63 -3 64 -37 3 c-61 5 -68 25 -68 184 l0 138 55 0 55 0 0 55 0 55 -55 0 -55 0
0 100 0 100 -66 0 -65 0 3 -312z"/>
<path d="M3980 1035 c0 -169 4 -305 11 -335 20 -92 91 -150 184 -150 l45 0 0
65 0 65 -34 0 c-41 0 -63 19 -71 63 -3 18 -5 155 -3 305 l3 272 -67 0 -68 0 0
-285z"/>
<path d="M606 1294 c-10 -26 -7 -34 12 -27 17 7 32 22 32 36 0 14 -38 7 -44
-9z"/>
<path d="M682 1298 c-7 -7 -12 -18 -12 -25 0 -21 25 -15 50 12 l23 25 -24 0
c-14 0 -30 -5 -37 -12z"/>
<path d="M544 1292 c-14 -10 -26 -42 -15 -42 23 0 41 14 41 31 0 20 -8 24 -26
11z"/>
<path d="M746 1275 c-15 -23 -15 -26 -1 -32 10 -3 25 3 38 16 19 19 20 23 7
31 -22 14 -26 13 -44 -15z"/>
<path d="M363 1262 c-16 -12 -20 -21 -13 -32 7 -12 12 -12 29 4 21 19 28 46
14 46 -5 0 -18 -8 -30 -18z"/>
<path d="M953 1258 c-28 -17 -31 -22 -20 -39 14 -23 20 -23 58 -4 28 15 29 16
13 40 -9 14 -17 25 -18 24 0 0 -15 -10 -33 -21z"/>
<path d="M468 1259 c-18 -10 -25 -39 -10 -39 17 1 34 19 30 33 -2 12 -7 13
-20 6z"/>
<path d="M801 1239 c-19 -15 -21 -23 -12 -32 9 -9 18 -8 39 5 15 9 27 23 27
30 0 21 -28 19 -54 -3z"/>
<path d="M241 1226 c-34 -36 -16 -54 20 -20 15 15 26 31 23 36 -8 13 -19 9
-43 -16z"/>
<path d="M1112 1224 c-31 -13 -33 -17 -27 -47 4 -18 8 -33 9 -34 1 -1 19 2 39
8 38 10 47 32 31 73 -7 19 -9 19 -52 0z"/>
<path d="M386 1215 c-14 -10 -17 -18 -10 -25 15 -15 44 -1 44 21 0 23 -8 23
-34 4z"/>
<path d="M580 1221 c0 -5 -3 -16 -6 -25 -10 -25 12 -19 30 9 16 24 16 25 -4
25 -11 0 -20 -4 -20 -9z"/>
<path d="M630 1211 c-13 -25 -13 -31 1 -31 12 0 38 29 39 43 0 15 -30 6 -40
-12z"/>
<path d="M520 1195 c0 -29 25 -25 33 6 4 14 0 19 -14 19 -14 0 -19 -7 -19 -25z"/>
<path d="M682 1197 c-25 -27 -28 -37 -9 -37 21 0 52 39 41 50 -7 7 -18 2 -32
-13z"/>
<path d="M276 1191 c-12 -13 -14 -21 -6 -26 11 -7 50 21 50 37 0 15 -27 8 -44
-11z"/>
<path d="M848 1192 c-31 -18 -32 -21 -19 -40 7 -12 14 -11 40 2 27 14 30 20
21 36 -13 24 -9 23 -42 2z"/>
<path d="M464 1185 c-7 -17 4 -38 15 -30 5 2 11 14 14 25 6 23 -20 29 -29 5z"/>
<path d="M715 1166 c-18 -15 -24 -25 -17 -30 12 -7 62 20 62 35 0 18 -18 16
-45 -5z"/>
<path d="M993 1173 c-27 -11 -33 -19 -33 -44 0 -26 3 -29 20 -25 11 3 29 9 40
12 20 5 24 25 12 55 -6 14 -11 14 -39 2z"/>
<path d="M317 1156 c-14 -11 -15 -15 -4 -25 11 -8 18 -7 31 7 25 29 5 42 -27
18z"/>
<path d="M411 1161 c-16 -10 -6 -31 15 -31 8 0 14 9 14 20 0 22 -7 25 -29 11z"/>
<path d="M162 1137 c-25 -27 -28 -37 -9 -37 16 0 47 32 47 48 0 19 -14 14 -38
-11z"/>
<path d="M550 1130 c-6 -12 -9 -24 -7 -27 3 -2 11 5 17 17 6 12 9 24 7 27 -3
2 -11 -5 -17 -17z"/>
<path d="M208 1116 c-14 -20 -15 -25 -4 -29 17 -7 50 28 41 42 -9 16 -18 13
-37 -13z"/>
<path d="M510 1113 c0 -22 2 -25 10 -13 13 20 13 40 0 40 -5 0 -10 -12 -10
-27z"/>
<path d="M580 1119 c-16 -30 -8 -31 13 -3 10 13 13 24 8 24 -6 0 -15 -9 -21
-21z"/>
<path d="M743 1128 c-20 -10 -33 -38 -18 -38 17 0 65 32 60 40 -7 12 -14 12
-42 -2z"/>
<path d="M1787 1126 c-21 -8 -46 -21 -56 -30 -23 -21 -31 -20 -31 4 0 19 -5
21 -60 18 l-61 -3 -2 -278 -2 -277 68 0 67 0 0 184 c0 174 1 185 23 217 31 46
91 68 132 48 15 -8 38 -27 49 -42 19 -26 21 -44 24 -218 l4 -189 64 0 65 0 -3
213 c-3 205 -4 214 -28 257 -47 84 -165 129 -253 96z"/>
<path d="M2623 1122 c-67 -24 -118 -64 -154 -120 -52 -82 -63 -176 -32 -268
23 -67 110 -154 177 -177 158 -54 332 27 382 176 24 73 16 190 -18 248 -76
128 -225 187 -355 141z m153 -121 c122 -56 140 -234 32 -314 -42 -31 -123 -33
-172 -5 -74 43 -105 143 -71 225 21 50 42 72 90 94 50 23 70 23 121 0z"/>
<path d="M3531 1123 c-25 -9 -67 -38 -96 -67 -150 -147 -116 -391 68 -488 34
-18 59 -23 127 -23 93 0 145 19 203 73 25 23 67 90 67 107 0 3 -31 5 -69 5
-52 0 -70 -4 -75 -15 -18 -48 -126 -70 -193 -39 -34 17 -83 71 -83 92 0 9 60
12 220 12 l220 0 0 68 c0 116 -59 210 -164 264 -55 28 -165 34 -225 11z m179
-124 c34 -20 80 -81 80 -108 0 -8 -48 -11 -155 -11 -173 0 -175 1 -133 68 24
39 86 71 137 72 18 0 50 -10 71 -21z"/>
<path d="M360 1115 c-10 -12 -9 -16 3 -21 21 -8 37 3 30 21 -7 19 -17 19 -33
0z"/>
<path d="M477 1123 c-3 -5 -1 -17 4 -28 7 -17 8 -17 8 8 1 27 -4 34 -12 20z"/>
<path d="M605 1110 c-27 -30 -12 -34 15 -5 13 14 19 25 13 25 -5 0 -18 -9 -28
-20z"/>
<path d="M863 1120 c-14 -6 -23 -18 -23 -31 0 -17 4 -20 23 -15 12 3 28 6 35
6 6 0 12 11 12 25 0 26 -10 30 -47 15z"/>
<path d="M1330 840 l0 -280 65 0 65 0 0 280 0 280 -65 0 -65 0 0 -280z"/>
<path d="M259 1094 c-10 -13 -10 -17 2 -25 9 -6 18 -3 26 8 22 29 -4 46 -28
17z"/>
<path d="M437 1104 c-8 -8 3 -34 14 -34 5 0 9 9 9 20 0 19 -11 26 -23 14z"/>
<path d="M625 1090 c-23 -26 -8 -26 25 0 18 14 21 20 9 20 -9 0 -24 -9 -34
-20z"/>
<path d="M1130 1090 c-31 -4 -35 -9 -41 -42 l-6 -38 38 0 c35 0 39 2 45 34 8
47 5 52 -36 46z"/>
<path d="M753 1075 c-18 -8 -33 -19 -33 -25 0 -8 11 -9 33 -5 39 9 40 9 35 28
-3 14 -7 14 -35 2z"/>
<path d="M643 1068 c-13 -6 -23 -15 -23 -20 0 -5 14 -2 30 7 45 23 38 35 -7
13z"/>
<path d="M983 1063 c-14 -3 -24 -14 -28 -34 -4 -17 -5 -32 -3 -33 1 -2 20 -1
41 2 27 3 37 9 37 22 0 10 3 25 6 34 6 16 -5 18 -53 9z"/>
<path d="M85 1030 c-15 -28 -14 -30 3 -30 10 0 24 11 30 25 15 33 15 35 -3 35
-8 0 -21 -13 -30 -30z"/>
<path d="M145 1028 c-14 -21 -14 -23 2 -27 16 -3 43 23 43 41 0 17 -29 7 -45
-14z"/>
<path d="M648 1036 c-16 -5 -28 -13 -28 -17 0 -9 49 2 56 13 9 14 2 15 -28 4z"/>
<path d="M870 1040 c-27 -4 -36 -10 -38 -27 -3 -20 1 -23 31 -23 30 0 35 4 40
28 3 15 5 27 4 27 -1 1 -18 -2 -37 -5z"/>
<path d="M727 1013 c-4 -3 -7 -12 -7 -20 0 -21 48 -16 60 7 10 18 8 20 -18 20
-16 0 -32 -3 -35 -7z"/>
<path d="M610 990 c0 -5 14 -10 30 -10 17 0 30 5 30 10 0 6 -13 10 -30 10 -16
0 -30 -4 -30 -10z"/>
<path d="M600 961 c0 -13 37 -24 52 -15 8 5 6 10 -8 15 -27 11 -44 11 -44 0z"/>
<path d="M35 929 c-9 -17 -14 -33 -12 -36 7 -7 47 16 47 27 0 4 3 15 6 24 12
30 -25 17 -41 -15z"/>
<path d="M697 953 c-13 -12 -7 -24 16 -32 24 -10 47 3 47 25 0 14 -51 20 -63
7z"/>
<path d="M800 931 c-14 -27 -14 -28 17 -36 21 -5 32 -2 45 15 26 32 22 40 -17
40 -24 0 -37 -6 -45 -19z"/>
<path d="M1057 916 c-14 -31 -14 -35 -1 -40 33 -13 51 -5 67 29 22 46 22 45
-16 45 -28 0 -36 -5 -50 -34z"/>
<path d="M580 931 c0 -15 29 -33 41 -25 9 5 7 11 -6 21 -22 15 -35 17 -35 4z"/>
<path d="M916 911 c-15 -27 -14 -29 7 -35 38 -10 46 -7 62 24 20 39 20 40 -20
40 -28 0 -37 -5 -49 -29z"/>
<path d="M340 906 c0 -19 32 -66 41 -60 6 4 1 16 -13 33 -13 14 -24 28 -25 30
-2 2 -3 1 -3 -3z"/>
<path d="M550 902 c0 -5 6 -16 13 -27 10 -13 16 -15 21 -6 4 6 2 18 -4 26 -13
16 -30 20 -30 7z"/>
<path d="M654 888 c-4 -6 1 -17 11 -25 24 -17 30 -16 46 3 10 13 10 17 -2 25
-20 12 -46 11 -55 -3z"/>
<path d="M522 871 c2 -14 9 -26 16 -29 17 -5 15 10 -3 34 -15 18 -15 18 -13
-5z"/>
<path d="M490 846 c0 -22 3 -27 11 -19 8 8 8 16 0 30 -9 16 -10 14 -11 -11z"/>
<path d="M748 845 c-16 -21 -16 -23 7 -35 22 -12 26 -10 44 11 13 16 16 25 8
28 -7 2 -19 7 -27 11 -10 5 -21 0 -32 -15z"/>
<path d="M462 840 c0 -14 2 -19 5 -12 2 6 2 18 0 25 -3 6 -5 1 -5 -13z"/>
<path d="M435 839 c-4 -6 -5 -12 -2 -15 2 -3 7 2 10 11 7 17 1 20 -8 4z"/>
<path d="M611 840 c-10 -6 -10 -11 0 -28 10 -16 17 -18 31 -11 10 5 18 13 18
17 0 13 -37 30 -49 22z"/>
<path d="M867 822 c-27 -32 -28 -41 -7 -52 23 -12 43 -2 60 30 14 26 -32 45
-53 22z"/>
<path d="M992 790 l-23 -30 26 -10 c34 -13 30 -15 53 22 16 24 18 35 9 40 -23
15 -43 8 -65 -22z"/>
<path d="M279 794 c14 -30 38 -47 46 -34 4 6 2 9 -3 8 -5 -2 -19 8 -31 22 -18
20 -20 21 -12 4z"/>
<path d="M560 800 c-10 -6 -11 -14 -4 -29 7 -16 12 -18 25 -8 14 10 15 16 5
29 -8 11 -17 14 -26 8z"/>
<path d="M680 775 c-10 -12 -10 -18 0 -30 15 -18 20 -18 44 0 16 12 17 17 6
30 -16 19 -34 19 -50 0z"/>
<path d="M507 773 c-4 -3 -7 -15 -7 -25 0 -26 24 -17 28 10 3 21 -8 29 -21 15z"/>
<path d="M460 740 c0 -11 5 -20 10 -20 6 0 10 9 10 20 0 11 -4 20 -10 20 -5 0
-10 -9 -10 -20z"/>
<path d="M355 740 c-3 -5 -1 -10 4 -10 6 0 11 5 11 10 0 6 -2 10 -4 10 -3 0
-8 -4 -11 -10z"/>
<path d="M386 741 c-4 -7 -5 -15 -2 -18 9 -9 19 4 14 18 -4 11 -6 11 -12 0z"/>
<path d="M416 734 c-4 -10 -1 -14 6 -12 15 5 23 28 10 28 -5 0 -13 -7 -16 -16z"/>
<path d="M617 726 c-19 -15 -14 -46 8 -46 23 0 36 25 22 43 -10 14 -15 14 -30
3z"/>
<path d="M782 722 c-23 -17 -23 -18 -4 -35 18 -16 20 -16 40 6 17 18 19 26 10
35 -15 15 -18 15 -46 -6z"/>
<path d="M215 700 c35 -45 65 -63 65 -39 0 5 -4 8 -9 4 -5 -3 -24 9 -42 27
-19 20 -25 23 -14 8z"/>
<path d="M912 687 c-22 -23 -22 -24 -4 -40 17 -16 20 -15 46 12 27 29 28 29 8
40 -27 14 -25 15 -50 -12z"/>
<path d="M547 683 c-4 -3 -7 -15 -7 -26 0 -13 5 -17 16 -13 9 3 18 6 20 6 2 0
4 9 4 20 0 19 -20 27 -33 13z"/>
<path d="M492 661 c-8 -5 -12 -16 -10 -24 2 -11 7 -14 16 -8 8 5 12 16 10 24
-2 11 -7 14 -16 8z"/>
<path d="M703 652 c-18 -14 -20 -20 -10 -34 12 -15 15 -15 37 2 22 17 23 21
10 34 -13 13 -17 13 -37 -2z"/>
<path d="M317 643 c-4 -3 -7 -11 -7 -17 0 -6 5 -5 12 2 6 6 9 14 7 17 -3 3 -9
2 -12 -2z"/>
<path d="M430 630 c0 -11 2 -20 5 -20 2 0 9 9 15 20 9 16 8 20 -5 20 -8 0 -15
-9 -15 -20z"/>
<path d="M345 630 c-3 -5 -2 -10 4 -10 5 0 13 5 16 10 3 6 2 10 -4 10 -5 0
-13 -4 -16 -10z"/>
<path d="M380 625 c0 -8 4 -15 9 -15 5 0 11 7 15 15 3 9 0 15 -9 15 -8 0 -15
-7 -15 -15z"/>
<path d="M825 600 c-16 -18 -15 -50 2 -50 4 1 19 10 32 20 19 17 21 23 11 35
-16 20 -23 19 -45 -5z"/>
<path d="M165 590 c10 -11 20 -20 23 -20 3 0 -3 9 -13 20 -10 11 -20 20 -23
20 -3 0 3 -9 13 -20z"/>
<path d="M623 603 c-14 -5 -18 -43 -5 -43 18 0 45 28 38 38 -8 13 -13 14 -33
5z"/>
<path d="M540 550 c0 -22 1 -23 24 -14 23 9 20 34 -4 34 -13 0 -20 -7 -20 -20z"/>
<path d="M473 535 c-3 -9 -3 -18 -1 -21 9 -9 38 8 38 22 0 19 -29 18 -37 -1z"/>
<path d="M736 535 c-17 -13 -17 -45 1 -45 19 1 43 29 37 44 -7 19 -13 20 -38
1z"/>
<path d="M260 529 c0 -5 5 -7 10 -4 6 3 10 8 10 11 0 2 -4 4 -10 4 -5 0 -10
-5 -10 -11z"/>
<path d="M290 519 c0 -5 5 -7 10 -4 6 3 10 8 10 11 0 2 -4 4 -10 4 -5 0 -10
-5 -10 -11z"/>
<path d="M325 520 c-3 -5 1 -10 9 -10 9 0 16 5 16 10 0 6 -4 10 -9 10 -6 0
-13 -4 -16 -10z"/>
<path d="M367 524 c-8 -8 1 -24 14 -24 5 0 9 7 9 15 0 15 -12 20 -23 9z"/>
<path d="M415 521 c-10 -17 12 -21 25 -6 10 12 10 15 -3 15 -9 0 -18 -4 -22
-9z"/>
<path d="M657 489 c-9 -6 -17 -19 -17 -29 0 -17 3 -18 25 -8 27 12 29 16 17
35 -5 8 -13 8 -25 2z"/>
<path d="M578 452 c-22 -4 -24 -32 -3 -32 9 0 18 7 22 15 7 19 3 22 -19 17z"/>
<path d="M495 419 c-4 -6 -4 -13 -1 -16 8 -8 36 5 36 17 0 13 -27 13 -35 -1z"/>
<path d="M443 413 c-18 -7 -16 -23 2 -23 8 0 15 7 15 15 0 8 -1 15 -2 14 -2 0
-9 -3 -15 -6z"/>
<path d="M300 400 c0 -5 5 -10 10 -10 6 0 10 5 10 10 0 6 -4 10 -10 10 -5 0
-10 -4 -10 -10z"/>
<path d="M340 394 c0 -8 5 -12 10 -9 6 3 10 10 10 16 0 5 -4 9 -10 9 -5 0 -10
-7 -10 -16z"/>
<path d="M385 399 c-4 -6 -5 -13 -2 -16 7 -7 27 6 27 18 0 12 -17 12 -25 -2z"/>
</g>
</svg>
