<?xml version="1.0" standalone="no"?>
<!DOCTYPE svg PUBLIC "-//W3C//DTD SVG 20010904//EN"
 "http://www.w3.org/TR/2001/REC-SVG-20010904/DTD/svg10.dtd">
<svg version="1.0" xmlns="http://www.w3.org/2000/svg"
 width="1024.000000pt" height="1024.000000pt" viewBox="0 0 1024.000000 1024.000000"
 preserveAspectRatio="xMidYMid meet">

<g transform="translate(0.000000,1024.000000) scale(0.100000,-0.100000)"
fill="#000000" stroke="none">
<path d="M4444 8574 c-6 -3 -47 -8 -90 -12 l-79 -7 5 -40 c3 -22 5 -76 5 -120
0 -99 -17 -136 -100 -220 -63 -65 -125 -95 -192 -95 -18 0 -33 -5 -33 -11 0
-15 84 -1 143 24 52 22 133 104 170 172 19 35 22 56 22 160 l1 120 72 7 c40 4
81 12 90 17 17 10 7 14 -14 5z"/>
<path d="M3530 8270 c-19 -11 -31 -19 -27 -20 11 0 67 29 67 35 0 7 -1 7 -40
-15z"/>
<path d="M5760 8205 c14 -8 32 -14 40 -15 8 0 2 7 -14 15 -36 19 -59 19 -26 0z"/>
<path d="M5370 8173 c0 -24 3 -33 9 -25 7 12 4 62 -5 62 -2 0 -4 -17 -4 -37z"/>
<path d="M6860 8175 c7 -8 17 -15 23 -15 14 0 101 -41 107 -51 8 -11 102 -61
106 -56 6 6 -73 59 -148 100 -71 39 -111 49 -88 22z"/>
<path d="M3294 8144 c-34 -20 -74 -47 -90 -61 -17 -14 -5 -9 31 13 33 21 75
46 93 57 27 16 39 27 29 27 -1 0 -30 -16 -63 -36z"/>
<path d="M3770 8140 c0 -5 5 -10 11 -10 5 0 7 5 4 10 -3 6 -8 10 -11 10 -2 0
-4 -4 -4 -10z"/>
<path d="M4861 8125 c-291 -25 -550 -74 -751 -142 -152 -52 -442 -183 -516
-233 -27 -18 -95 -64 -151 -102 -57 -37 -103 -71 -103 -74 0 -3 6 -1 13 3 6 4
58 39 115 76 103 67 308 175 452 237 300 131 675 209 1081 226 150 7 309 -5
515 -37 95 -14 117 -10 54 11 -30 11 -85 19 -122 19 -38 1 -68 5 -68 9 0 5
-15 9 -32 9 -18 0 -98 3 -178 6 -88 3 -210 0 -309 -8z"/>
<path d="M6723 8133 c-31 -6 -91 -79 -99 -120 -3 -18 -3 -46 0 -61 18 -72 17
-80 -13 -140 -33 -65 -26 -86 10 -29 l20 32 -6 -40 c-6 -36 -5 -38 8 -22 8 9
17 36 21 58 3 22 11 37 16 34 10 -6 2 -65 -11 -79 -5 -6 -9 -18 -9 -27 0 -27
-17 -32 -55 -14 -56 27 -64 11 -10 -22 185 -114 235 -149 235 -168 0 -14 3
-16 8 -7 19 29 309 -213 479 -400 151 -166 194 -220 298 -378 87 -132 108
-169 181 -320 106 -220 201 -535 239 -795 19 -128 45 -399 45 -467 0 -41 -2
-47 -17 -41 -15 5 -15 4 1 -9 18 -14 19 -24 12 -124 -4 -60 -14 -154 -22 -209
-9 -55 -17 -113 -18 -130 -2 -16 -6 -41 -10 -55 -3 -14 -8 -38 -10 -55 -5 -40
-32 -155 -57 -237 -18 -62 -22 -68 -47 -68 -15 0 -32 -4 -37 -8 -20 -13 -51
-66 -70 -116 -10 -27 -31 -70 -48 -95 -16 -25 -39 -61 -51 -79 -21 -33 -127
-112 -151 -112 -22 0 -36 27 -29 57 11 44 35 87 148 261 l58 91 97 30 c53 17
103 35 111 41 22 15 7 12 -52 -8 -105 -37 -128 -43 -138 -37 -5 3 -10 1 -10
-5 0 -7 -7 -10 -15 -6 -8 3 -15 0 -15 -6 0 -9 -3 -9 -11 -1 -8 8 -9 29 -1 75
15 87 29 138 32 113 3 -21 20 73 21 115 0 14 5 31 11 37 6 7 7 20 4 29 -4 9
-2 22 2 28 5 6 12 20 15 31 6 16 2 15 -17 -7 -22 -25 -24 -25 -29 -7 -3 11 2
23 11 30 15 9 15 10 -1 5 -13 -4 -28 4 -47 24 -15 16 -25 32 -22 35 3 3 -2 5
-11 5 -10 0 -17 5 -17 10 0 6 -7 10 -17 10 -9 0 -31 11 -49 25 l-32 25 -98
-25 c-54 -14 -99 -23 -102 -21 -2 3 0 106 4 231 l7 226 31 -30 c18 -17 37 -31
43 -31 17 0 25 -32 11 -42 -9 -5 -10 -8 -1 -8 6 0 15 5 18 10 3 6 11 10 16 10
6 0 7 -5 3 -11 -4 -8 0 -9 15 -4 15 4 21 3 19 -7 -2 -9 7 -13 29 -12 21 1 30
-2 27 -10 -3 -9 5 -11 27 -8 21 3 30 1 25 -6 -4 -7 5 -10 23 -10 17 1 37 -5
46 -12 8 -7 15 -9 15 -5 0 4 11 0 24 -9 14 -9 27 -12 30 -7 3 5 -52 30 -122
56 -143 54 -179 72 -239 121 -35 29 -42 41 -48 84 -4 28 -20 75 -36 105 -24
46 -26 55 -14 65 18 15 19 59 2 81 -27 35 -90 69 -129 69 -32 0 -40 4 -48 25
-5 14 -12 25 -16 25 -3 0 -4 -6 -1 -14 8 -21 -14 -25 -45 -9 -20 9 -28 21 -28
39 0 14 -4 22 -10 19 -18 -11 43 119 69 148 14 15 66 50 117 77 91 49 154 98
154 120 0 6 -5 8 -12 3 -7 -4 -21 -6 -30 -5 -10 2 -18 -2 -18 -8 0 -7 7 -10
15 -6 22 8 18 -12 -4 -24 -22 -11 -25 -8 -35 33 -5 21 -3 27 9 27 9 0 13 5 10
10 -11 18 -39 -7 -41 -37 -1 -34 -13 -63 -25 -63 -6 0 -5 8 1 19 5 11 10 31
10 45 0 25 -1 25 -20 9 -24 -21 -26 -35 -5 -27 18 7 19 3 2 -29 -10 -19 -17
-23 -30 -15 -11 6 -17 5 -17 -2 0 -17 66 -16 88 2 7 6 15 9 18 6 2 -3 -14 -14
-38 -25 -37 -18 -44 -19 -57 -5 -10 10 -16 11 -19 3 -2 -6 -8 -11 -13 -11 -11
0 10 40 30 56 16 12 7 49 -9 39 -24 -15 3 41 32 66 20 18 24 39 8 39 -5 0 -10
-4 -10 -9 0 -5 -9 -7 -20 -4 -13 3 -20 14 -20 28 0 18 5 22 27 19 15 -1 29 -8
31 -13 2 -6 12 -11 23 -11 15 0 19 7 18 33 0 30 -1 30 -10 9 -9 -24 -29 -22
-29 2 0 8 -6 14 -12 13 -39 -1 -46 3 -41 26 3 12 10 28 16 34 5 7 6 24 3 39
-8 32 2 67 18 61 7 -3 13 4 14 16 1 17 -1 18 -8 7 -5 -8 -12 -11 -16 -8 -3 4
10 17 30 29 20 11 33 26 29 32 -4 6 0 8 9 5 8 -4 29 2 47 13 27 17 31 24 31
64 0 34 3 44 13 39 11 -7 -21 29 -97 111 -30 32 -46 65 -46 96 0 10 -19 38
-42 60 -69 67 -228 209 -306 274 -40 32 -72 67 -72 77 0 11 -5 15 -14 12 -9
-3 -17 5 -23 23 -15 42 -58 88 -128 138 -34 25 -65 45 -69 45 -3 0 -29 15 -59
34 -101 65 -303 162 -402 194 -57 19 -140 37 -194 42 -52 6 -107 17 -123 25
-15 8 -40 21 -55 29 -16 8 -41 17 -58 20 -26 5 -25 4 7 -8 20 -8 57 -26 81
-41 32 -18 69 -28 133 -35 95 -11 149 -23 202 -46 17 -8 47 -20 65 -28 129
-55 185 -82 277 -131 136 -73 136 -73 121 -127 -7 -24 -16 -57 -20 -75 -11
-43 -82 -193 -91 -193 -16 0 -29 26 -20 40 15 23 12 40 -5 34 -8 -4 -21 -1
-29 5 -8 7 -18 11 -22 10 -32 -6 -45 2 -39 22 5 16 4 19 -6 14 -9 -6 -11 -2
-6 14 4 17 2 21 -10 17 -8 -3 -17 -6 -19 -6 -2 0 -4 -7 -4 -16 0 -8 -5 -12
-11 -9 -6 4 -8 13 -5 21 3 8 0 14 -5 14 -6 0 -9 9 -6 20 3 11 1 20 -5 20 -5 0
-12 -9 -15 -20 -6 -24 -10 -25 -29 -6 -19 20 -18 26 7 26 11 0 18 4 15 9 -4 5
0 12 6 15 7 3 -5 3 -27 -1 -22 -3 -41 -9 -43 -13 -1 -3 -17 -5 -35 -3 -25 4
-29 2 -17 -6 12 -9 11 -11 -7 -11 -12 0 -28 -6 -35 -13 -7 -8 -20 -12 -30 -9
-10 2 -18 -1 -18 -8 0 -7 -7 -10 -16 -6 -8 3 -13 2 -9 -3 12 -20 -22 -16 -89
10 -39 15 -137 44 -219 66 -81 21 -157 45 -169 54 -21 16 -21 18 -5 58 24 59
22 97 -7 122 -13 12 -39 43 -57 69 -44 65 -59 72 -153 72 -130 0 -166 26 -166
119 l0 39 -55 0 c-54 0 -54 0 -60 -34 -8 -40 -1 -67 31 -117 18 -28 20 -39 11
-49 -9 -10 -9 -11 0 -6 6 3 24 -10 41 -31 26 -34 30 -47 34 -128 6 -109 40
-190 101 -239 90 -72 107 -89 107 -107 0 -34 -59 -41 -305 -37 -250 3 -261 6
-317 65 -32 33 -58 101 -58 149 0 18 -4 35 -9 39 -17 10 -175 -24 -291 -63
-143 -49 -270 -101 -270 -112 0 -4 11 -30 25 -57 37 -71 41 -126 15 -195 -13
-34 -34 -67 -53 -83 -85 -71 -276 -209 -312 -226 -80 -37 -178 -17 -251 52
l-31 30 -49 -54 c-121 -131 -169 -199 -278 -390 l-27 -47 28 -11 c70 -26 123
-108 123 -191 1 -51 1 -52 15 -28 10 19 11 38 4 73 -11 63 -37 98 -99 136 -47
29 -50 33 -39 54 28 53 64 89 119 117 l58 29 150 -6 c142 -6 151 -7 156 -27 3
-12 11 -29 18 -39 13 -17 24 -9 136 102 67 67 120 121 117 121 -2 0 -31 -23
-65 -51 -62 -51 -90 -57 -90 -20 0 11 -12 29 -27 41 -15 11 -33 29 -40 40 -12
17 -9 20 37 35 56 19 323 204 382 265 65 67 74 162 25 272 l-25 57 46 22 c112
52 339 118 423 122 l53 2 7 -48 c9 -58 47 -125 92 -163 l34 -28 -19 -36 c-11
-19 -24 -39 -29 -45 -5 -5 -9 -14 -9 -20 0 -5 4 -4 9 4 6 9 8 3 7 -19 l-2 -33
-199 -61 c-186 -57 -208 -67 -318 -135 -65 -41 -120 -78 -123 -83 -3 -4 21 8
53 27 32 19 62 35 67 35 5 0 38 19 73 41 75 49 247 104 428 138 66 12 142 26
168 31 87 18 350 12 482 -10 66 -11 138 -25 160 -31 91 -24 259 -80 272 -90 7
-7 16 -9 19 -6 10 10 -58 39 -185 79 -128 40 -244 63 -363 75 -76 7 -78 11
-58 85 10 35 12 36 73 43 77 9 113 23 160 64 37 33 77 119 77 166 0 19 5 25
23 25 53 0 281 -65 405 -115 50 -20 51 -29 17 -119 -31 -82 -31 -126 -3 -183
18 -37 39 -55 127 -110 147 -91 224 -146 309 -219 76 -67 113 -81 179 -71 34
6 50 15 105 59 l28 22 26 -25 c57 -53 224 -282 244 -334 9 -23 4 -31 -46 -83
-59 -60 -84 -104 -84 -148 0 -14 26 -87 59 -162 58 -137 96 -253 126 -388 12
-53 25 -81 48 -107 38 -42 116 -70 184 -66 l48 3 7 -64 c8 -69 2 -343 -8 -422
l-7 -47 -56 5 c-50 5 -63 2 -121 -28 -73 -37 -110 -82 -110 -133 0 -41 -85
-255 -107 -272 -9 -7 -14 -13 -10 -13 3 0 -25 -64 -64 -142 -61 -125 -71 -152
-75 -213 -8 -104 18 -150 122 -211 22 -13 18 -19 -71 -117 l-61 -67 -53 19
c-29 11 -60 26 -68 33 -14 11 -15 10 -8 -12 4 -14 12 -31 17 -37 7 -9 7 -13
-1 -13 -7 0 -11 -10 -9 -22 2 -18 9 -22 26 -20 22 3 23 2 10 -23 -16 -30 -116
-115 -136 -115 -8 0 -40 21 -73 46 -48 38 -69 48 -109 52 -60 5 -91 -6 -185
-68 -38 -26 -108 -69 -154 -96 -99 -58 -155 -116 -171 -176 -12 -41 -9 -120 5
-164 6 -19 0 -23 -72 -42 -122 -33 -252 -59 -319 -65 l-61 -5 -18 52 c-24 68
-91 153 -130 165 -109 35 -404 32 -460 -4 -35 -22 -95 -134 -95 -176 0 -35 -3
-39 -25 -39 -57 0 -302 68 -408 113 -48 20 -49 21 -43 56 32 202 19 230 -158
347 -61 39 -145 97 -186 128 -85 63 -155 91 -205 82 -44 -9 -54 7 -56 87 0 15
-4 27 -9 27 -5 0 -7 7 -4 15 5 13 8 13 21 0 8 -9 19 -13 24 -10 17 11 9 25
-16 31 l-26 6 26 14 c14 7 32 11 40 7 11 -4 13 -1 9 11 -4 11 -14 14 -33 10
l-26 -6 30 21 29 20 56 -52 c238 -222 389 -323 634 -421 76 -31 49 -14 -61 39
-261 124 -515 332 -692 564 -55 73 -121 168 -121 175 0 2 -29 56 -64 119 -93
166 -93 164 -175 517 -10 42 -10 40 -5 -25 6 -78 50 -301 64 -327 8 -14 6 -18
-5 -18 -8 0 -15 4 -15 9 0 6 -11 22 -24 36 -14 15 -22 33 -19 41 3 8 1 14 -5
14 -6 0 -12 -5 -14 -12 -3 -7 -17 14 -32 47 -16 33 -34 73 -42 89 -8 16 -14
35 -14 43 0 8 -9 31 -20 52 -27 55 -85 83 -181 89 l-75 4 -12 82 c-7 45 -13
111 -14 147 -1 40 -3 51 -6 29 -2 -19 -1 -90 3 -157 l7 -123 69 0 c73 0 127
-19 161 -57 17 -18 40 -77 113 -283 20 -58 60 -159 87 -225 42 -99 49 -127 45
-163 -6 -52 -43 -96 -104 -124 -24 -10 -43 -24 -43 -31 0 -7 16 -35 36 -62 20
-28 39 -59 44 -71 14 -35 132 -186 207 -264 l71 -75 67 64 c66 64 66 64 113
57 34 -4 68 -20 122 -58 41 -28 118 -81 170 -116 121 -81 158 -116 182 -171
22 -48 19 -109 -10 -170 -15 -32 -14 -35 3 -47 10 -8 26 -14 34 -14 9 0 44
-13 78 -29 34 -16 94 -39 134 -50 40 -11 79 -27 87 -35 16 -15 9 -36 -13 -36
-8 0 -11 -7 -8 -20 3 -11 9 -17 14 -14 5 3 16 1 24 -4 12 -6 -6 -19 -72 -50
-48 -22 -101 -44 -116 -48 -16 -4 -31 -13 -34 -20 -3 -8 -9 -12 -13 -9 -4 3
-13 -2 -20 -10 -16 -19 -66 -19 -74 0 -4 12 -12 10 -43 -11 -21 -14 -37 -30
-35 -35 1 -6 -6 -9 -15 -7 -18 3 -20 0 -22 -58 -1 -29 -4 -34 -14 -25 -8 6
-16 9 -19 6 -11 -11 -203 78 -303 141 -68 43 -99 58 -91 46 15 -25 302 -176
391 -207 68 -23 195 -42 225 -34 21 5 23 7 8 14 -23 9 -24 71 -3 121 12 29 27
41 100 74 47 22 124 58 173 81 48 22 101 51 118 64 17 13 34 21 38 18 3 -4 6
16 6 43 0 31 7 59 17 74 10 14 18 31 20 39 4 29 42 53 114 71 64 16 95 17 205
11 110 -6 135 -10 174 -31 58 -32 73 -70 42 -103 -27 -29 -27 -32 -2 -57 29
-29 14 -51 -69 -99 -38 -22 -82 -56 -98 -74 -17 -19 -43 -41 -59 -48 -30 -15
-58 -56 -70 -103 -6 -26 -5 -28 17 -21 13 4 27 12 30 17 3 5 15 9 25 7 11 -1
30 1 44 5 14 3 77 7 140 9 111 2 117 4 169 36 59 38 56 39 93 -29 13 -23 23
-30 37 -25 14 4 34 -9 75 -50 31 -30 61 -55 66 -55 6 0 10 -4 10 -10 0 -22
-279 -75 -505 -94 l-170 -15 140 4 c160 4 366 33 528 75 148 38 161 43 191 83
32 42 65 57 228 102 70 19 152 46 184 60 31 14 60 25 64 25 14 0 75 63 72 73
-2 6 4 30 13 53 30 79 143 158 223 156 52 0 62 -8 36 -27 -10 -8 -72 -53 -137
-100 -66 -47 -116 -85 -112 -85 9 0 120 76 213 147 46 35 92 63 103 63 32 0
105 56 217 164 l102 99 50 -23 c45 -21 52 -29 71 -79 39 -105 42 -95 -73 -206
-172 -167 -443 -380 -538 -423 -19 -9 -46 -24 -60 -33 -50 -33 -327 -168 -426
-207 -450 -178 -825 -236 -1267 -197 -109 9 -200 15 -203 12 -3 -2 21 -8 52
-12 78 -9 86 -13 79 -39 -5 -16 -4 -18 4 -6 9 13 52 15 283 15 216 0 300 4
401 19 70 10 130 16 134 13 6 -7 -14 -41 -117 -191 -36 -52 -71 -97 -78 -100
-7 -3 -36 12 -65 33 -61 46 -107 66 -168 75 l-44 7 53 -20 c73 -27 109 -51
169 -113 43 -44 54 -64 68 -116 9 -35 13 -72 10 -83 -8 -23 4 -24 52 -4 19 8
45 15 58 15 33 0 331 67 405 91 105 35 103 33 80 77 -27 50 -27 143 1 219 42
111 166 200 294 210 56 5 71 2 122 -22 66 -33 133 -96 162 -153 11 -23 25 -43
30 -47 11 -6 248 111 253 125 4 12 169 110 186 110 6 0 12 5 12 11 0 22 -117
-35 -234 -115 -37 -25 -73 -46 -80 -46 -8 0 -19 -7 -26 -15 -16 -19 -68 -45
-90 -45 -10 0 -20 10 -24 24 -3 13 -9 32 -12 41 -6 15 -4 16 14 6 26 -14 69
-14 77 -1 4 6 11 8 16 5 5 -4 12 1 15 9 3 9 12 16 19 16 6 0 20 9 30 20 10 12
25 18 32 15 9 -3 11 0 7 7 -5 8 -2 9 10 5 14 -6 16 -3 11 13 -5 16 -2 20 14
20 12 0 21 5 21 10 0 6 7 10 15 10 8 0 15 5 15 10 0 6 7 10 15 10 8 0 15 5 15
10 0 6 7 10 15 10 21 0 19 13 -12 73 -22 41 -28 67 -30 126 -1 41 2 81 6 90 6
10 9 4 8 -20 0 -47 19 -112 42 -141 19 -23 19 -22 1 32 -37 107 -17 199 64
295 65 75 138 110 231 110 47 0 81 -6 104 -18 19 -9 40 -17 47 -17 7 0 24 -13
37 -30 18 -20 35 -30 54 -30 16 0 34 -5 41 -12 10 -10 25 1 73 47 68 67 257
285 276 319 18 31 16 56 -5 56 -33 0 -99 53 -130 104 -46 75 -53 170 -20 251
38 93 74 142 134 182 53 35 62 37 149 41 72 3 100 1 128 -13 20 -9 43 -15 51
-13 28 6 236 469 236 524 0 7 -22 20 -48 28 -148 43 -251 157 -239 262 2 24 0
47 -5 52 -5 5 -5 17 -2 27 7 18 8 18 14 0 4 -12 9 7 13 48 15 161 127 257 298
257 57 0 69 7 77 40 1 8 5 128 9 265 3 170 2 259 -6 278 -11 28 -11 28 -43 11
-40 -20 -138 -15 -188 11 -51 27 -130 113 -159 175 -22 47 -26 69 -26 146 0
87 2 93 36 150 47 76 99 115 199 151 44 15 80 31 80 35 0 27 -184 536 -200
552 -5 5 -23 0 -43 -12 -46 -29 -163 -55 -212 -48 -31 5 -36 4 -22 -5 30 -17
117 -13 184 10 34 11 69 21 76 21 10 0 42 -84 100 -256 83 -250 85 -256 63
-264 -171 -66 -219 -101 -264 -198 -23 -48 -27 -71 -27 -142 0 -76 4 -93 32
-150 40 -82 92 -143 151 -177 39 -23 59 -28 117 -28 38 0 82 3 98 8 l27 7 2
-77 c2 -84 2 -160 -1 -350 l-1 -123 -29 0 c-36 0 -169 -33 -201 -50 -52 -27
-113 -85 -131 -124 -10 -23 -23 -71 -30 -109 -7 -37 -17 -66 -22 -64 -14 4
-17 118 -4 142 6 11 10 26 9 32 -3 12 15 53 27 63 15 13 31 52 25 62 -5 7 -2
9 8 5 12 -4 14 -1 11 14 -9 33 -28 22 -37 -23 -8 -36 -38 -88 -47 -82 -7 4 -9
-1 -4 -15 3 -11 2 -21 -3 -21 -6 0 -8 -10 -4 -22 4 -15 2 -19 -7 -13 -10 5
-12 -2 -8 -29 3 -21 2 -35 -1 -31 -3 3 -12 -7 -19 -22 -12 -27 -12 -26 -6 12
4 22 7 56 7 77 1 20 3 35 6 33 3 -2 6 18 7 43 0 26 6 94 12 151 6 57 11 132
11 167 0 35 4 64 8 64 5 0 6 14 4 31 -3 22 -1 30 7 25 6 -4 9 -12 6 -17 -4 -5
-2 -9 3 -9 5 0 12 -9 15 -20 3 -11 9 -20 14 -20 5 0 9 9 9 20 0 11 -4 20 -8
20 -11 0 -10 52 2 70 8 13 10 12 10 -2 0 -12 8 -18 25 -18 20 0 25 5 25 24 0
17 7 26 26 30 16 4 24 12 21 21 -3 7 0 19 8 25 11 9 13 2 10 -37 -3 -60 -2
-58 -21 -42 -13 10 -17 10 -25 -2 -15 -24 -10 -31 21 -27 17 3 30 1 30 -4 0
-4 -5 -8 -11 -8 -8 0 -9 -4 0 -13 6 -8 8 -17 4 -20 -3 -4 0 -13 7 -22 10 -12
10 -15 -3 -15 -9 0 -19 -5 -23 -11 -4 -8 1 -9 17 -4 21 7 22 6 10 -9 -21 -25
-6 -31 18 -7 13 13 16 21 8 25 -7 2 -4 5 7 5 15 1 16 4 6 16 -11 13 -7 15 21
16 31 2 31 2 7 6 -16 2 -29 7 -29 11 -1 4 -3 16 -5 27 -1 11 -5 33 -9 48 l-6
29 24 -26 c25 -27 62 -35 69 -14 2 6 10 9 18 6 8 -2 -3 -12 -28 -24 -23 -10
-40 -23 -38 -29 3 -10 9 -11 50 -14 13 -1 17 -7 13 -21 -6 -23 13 -42 32 -31
16 10 10 47 -8 43 -7 -1 -10 2 -6 8 8 13 11 13 29 -6 15 -14 16 -13 16 6 0 12
-4 18 -10 15 -10 -6 -7 36 6 79 4 11 2 16 -4 12 -6 -4 -12 5 -14 21 -3 27 -6
28 -67 34 -37 4 -67 12 -72 20 -4 8 -14 14 -22 14 -18 0 -97 66 -97 82 0 6 -8
18 -17 25 -10 7 -24 24 -32 37 -22 39 -81 219 -87 264 -2 22 -7 43 -9 45 -2 3
0 13 6 24 9 16 7 23 -9 34 -17 12 -37 76 -35 112 0 6 -3 12 -9 12 -5 0 -7 4
-3 9 3 5 1 12 -5 16 -5 3 -19 38 -30 78 -59 204 -168 444 -289 637 -8 14 -14
28 -13 32 1 4 -7 12 -17 18 -11 5 -50 53 -87 107 -37 53 -88 120 -113 148 -25
28 -77 87 -116 130 -38 43 -78 86 -88 94 -52 44 -57 110 -14 164 22 28 110 66
154 67 12 0 42 9 67 20 l47 20 52 -32 c150 -92 242 -171 256 -221 9 -32 9 -32
10 -4 1 15 5 27 9 27 4 0 25 -18 47 -40 21 -22 41 -38 43 -35 11 11 -174 239
-271 334 l-65 63 -65 -46 c-86 -61 -130 -78 -202 -78 -79 0 -142 29 -202 96
-53 58 -43 33 11 -31 20 -23 60 -53 89 -67 28 -14 44 -25 35 -26 -10 0 -18 -5
-18 -11 0 -5 -4 -8 -9 -5 -5 3 -11 -1 -15 -9 -3 -8 -12 -12 -21 -9 -8 3 -12
10 -9 15 3 5 0 9 -7 9 -7 0 -22 8 -33 18 -16 13 -18 14 -8 1 10 -13 9 -19 -2
-29 -9 -6 -20 -9 -26 -5 -5 3 -10 1 -10 -5 0 -7 -6 -10 -12 -7 -7 2 -12 9 -11
15 1 6 -14 28 -35 50 -60 64 -90 102 -81 102 5 0 9 7 9 15 0 18 -20 20 -21 3
0 -7 -2 -21 -4 -30 -2 -12 3 -18 15 -18 10 0 20 -8 24 -17 3 -10 10 -28 16
-41 10 -22 9 -22 -15 -5 -13 10 -25 24 -25 31 0 6 -7 12 -16 12 -20 0 -104 57
-111 76 -3 8 -9 11 -15 8 -5 -3 -17 1 -26 9 -9 8 -42 29 -72 46 -30 17 -49 31
-42 31 7 0 10 5 7 10 -3 6 -1 10 4 10 6 0 11 7 11 15 0 9 6 12 15 9 8 -4 15
-1 15 6 0 6 5 8 10 5 6 -3 10 -1 10 5 0 6 -7 13 -15 16 -8 4 -12 10 -9 16 4 5
11 5 19 -2 10 -8 14 -4 18 17 4 18 1 32 -9 39 -18 14 -18 65 1 90 8 10 15 15
15 11 0 -5 12 1 28 13 l27 22 11 -39 c7 -21 9 -50 7 -65 -4 -17 -1 -28 6 -28
6 0 11 -13 11 -28 0 -15 4 -32 9 -37 16 -18 30 -108 20 -127 -14 -26 10 -19
36 10 11 12 26 22 34 22 7 0 19 7 27 15 20 19 2 19 -35 0 l-28 -14 -27 89
c-40 128 -42 159 -17 208 12 23 21 53 21 66 0 25 -59 103 -60 79 0 -7 6 -13
13 -13 9 0 9 -2 -1 -9 -11 -6 -9 -9 7 -14 14 -3 18 -10 14 -26 l-5 -21 -22 23
c-12 13 -27 22 -34 19 -7 -2 -12 1 -12 7 0 6 -5 11 -11 11 -5 0 -7 -5 -3 -12
4 -7 3 -8 -5 -4 -6 4 -9 16 -6 27 4 10 3 18 -2 18 -4 -1 -18 -4 -30 -6z m-33
-197 c0 -3 -4 -8 -10 -11 -5 -3 -10 -1 -10 4 0 6 5 11 10 11 6 0 10 -2 10 -4z
m5 -74 c-8 -8 -25 17 -25 38 0 9 6 6 16 -8 9 -13 13 -26 9 -30z m-1565 -84 c0
-15 -10 -36 -22 -47 -23 -22 -41 -19 -31 5 4 10 -2 17 -16 21 -14 4 -21 13
-21 30 0 22 3 24 45 21 42 -3 45 -5 45 -30z m1496 -431 c36 -21 74 -54 74 -65
0 -6 16 -31 35 -56 l35 -47 -6 -173 c-8 -198 2 -245 62 -294 27 -22 30 -30 21
-43 -14 -19 -64 -38 -52 -20 4 7 4 24 0 39 l-7 27 -15 -29 c-12 -22 -17 -26
-24 -15 -6 9 -4 15 6 17 12 3 13 8 4 24 -8 15 -18 19 -39 16 -26 -4 -29 -1
-39 38 -8 29 -16 41 -28 40 -11 -1 -32 30 -70 104 -29 58 -59 110 -65 115 -16
12 -12 48 11 100 10 22 18 56 20 75 1 19 6 37 10 40 5 3 15 31 22 63 8 31 16
57 19 57 3 -1 14 -6 26 -13z m193 -209 c5 -13 6 -30 4 -38 -4 -13 -3 -13 5 0
6 8 8 18 5 23 -3 5 0 7 8 5 8 -3 13 -13 11 -23 -3 -13 1 -16 13 -12 9 4 18 1
21 -8 4 -8 11 -15 16 -15 12 0 176 -141 242 -209 l50 -51 -29 0 c-31 0 -24
-15 10 -22 22 -4 42 -68 21 -68 -18 0 -35 21 -29 36 3 8 -1 14 -11 14 -9 0
-19 7 -22 15 -4 8 -10 12 -15 9 -5 -3 -7 -10 -3 -15 3 -6 -2 -16 -12 -23 -15
-11 -25 -11 -59 2 -48 18 -77 12 -129 -23 -36 -24 -40 -25 -62 -10 -14 9 -22
20 -19 25 3 6 -1 7 -9 4 -11 -4 -16 0 -16 11 0 9 -4 14 -9 10 -12 -7 -25 31
-16 45 3 5 1 10 -6 10 -7 0 -9 12 -5 38 3 20 6 44 5 52 -4 90 10 240 22 240 5
0 13 -10 18 -22z m-1629 -92 c-5 -5 -10 -20 -10 -32 0 -14 -8 -24 -22 -28 -22
-7 -22 -7 -3 -16 17 -7 16 -9 -10 -10 -16 0 -90 -3 -162 -7 -91 -4 -133 -2
-133 5 0 23 12 40 26 35 22 -8 17 20 -6 35 -45 28 -20 33 155 30 117 -1 172
-5 165 -12z m1947 -308 c-3 -8 -6 -5 -6 6 -1 11 2 17 5 13 3 -3 4 -12 1 -19z
m138 -114 c-1 -19 -7 -30 -18 -32 -9 -2 -17 2 -17 8 0 6 5 8 12 4 8 -5 9 2 5
25 -5 24 -3 31 6 28 6 -2 12 -17 12 -33z m53 -47 c8 -28 7 -40 -2 -50 -7 -7
-11 -18 -8 -25 5 -17 -15 -15 -22 3 -6 17 -36 21 -36 4 0 -5 -4 -8 -10 -4 -16
10 -1 30 33 43 25 10 29 14 17 22 -9 6 -17 5 -23 -3 -5 -7 -6 -4 -2 8 4 11 9
29 10 40 2 11 4 21 4 23 3 12 31 -31 39 -61z m-38 -88 c0 -5 -4 -9 -10 -9 -5
0 -10 7 -10 16 0 8 5 12 10 9 6 -3 10 -10 10 -16z m-44 -25 c-4 -9 -9 -15 -11
-12 -3 3 -3 13 1 22 4 9 9 15 11 12 3 -3 3 -13 -1 -22z m1074 -1188 c0 -3 -4
-8 -10 -11 -5 -3 -10 -1 -10 4 0 6 5 11 10 11 6 0 10 -2 10 -4z m46 -40 c-3
-14 -11 -26 -16 -26 -8 0 -8 19 -1 70 1 2 6 -1 12 -7 7 -7 9 -23 5 -37z m63 3
c7 -16 10 -33 7 -36 -3 -4 -6 -1 -6 5 0 7 -7 12 -16 12 -9 0 -14 7 -12 18 1 9
-1 23 -5 29 -5 8 -3 11 5 8 7 -3 19 -19 27 -36z m-249 -3 c0 -3 -4 -8 -10 -11
-5 -3 -10 -1 -10 4 0 6 5 11 10 11 6 0 10 -2 10 -4z m-63 -48 c-3 -7 -5 -2 -5
12 0 14 2 19 5 13 2 -7 2 -19 0 -25z m305 -20 c-7 -7 -12 -8 -12 -2 0 14 12
26 19 19 2 -3 -1 -11 -7 -17z m-315 -710 c-3 -8 -6 -5 -6 6 -1 11 2 17 5 13 3
-3 4 -12 1 -19z m-4657 -334 c0 -8 -4 -12 -10 -9 -5 3 -10 10 -10 16 0 5 5 9
10 9 6 0 10 -7 10 -16z m-76 -29 c-4 -8 -11 -15 -16 -15 -6 0 -5 6 2 15 7 8
14 15 16 15 2 0 1 -7 -2 -15z m4396 -165 c0 -5 -5 -10 -11 -10 -7 0 -9 -10 -7
-25 3 -14 1 -25 -6 -25 -7 0 -7 -3 1 -8 10 -6 7 -18 -8 -50 -20 -41 -54 -70
-67 -58 -3 3 0 6 6 6 7 0 12 5 12 11 0 8 -5 8 -15 -1 -8 -7 -15 -23 -15 -36 0
-12 -4 -25 -9 -28 -5 -4 -7 4 -4 16 4 22 3 22 -11 -2 l-15 -25 -1 25 c-1 23
-1 24 -12 6 -9 -15 -7 -22 8 -34 18 -13 18 -14 -1 -10 -11 2 -21 12 -24 23 -2
11 -8 23 -14 27 -15 9 3 80 22 86 8 3 11 0 7 -7 -11 -17 0 -13 15 6 12 14 12
16 0 8 -10 -5 -12 -4 -7 3 4 7 13 12 19 12 7 0 35 22 62 50 48 47 75 62 75 40z
m440 -260 c-22 -42 -34 -50 -44 -25 -3 9 0 15 8 15 8 0 21 11 30 25 25 38 29
30 6 -15z m-330 -644 c0 -2 -7 -7 -16 -10 -8 -3 -12 -2 -9 4 6 10 25 14 25 6z
m-1844 -991 c-9 -9 -16 -13 -16 -8 0 12 22 34 28 28 2 -2 -3 -11 -12 -20z
m545 8 c13 -16 12 -17 -3 -4 -10 7 -18 15 -18 17 0 8 8 3 21 -13z m-613 -281
c0 -9 2 -29 6 -44 8 -28 -3 -39 -56 -52 l-26 -6 29 29 c21 22 29 39 29 66 0
20 4 34 9 30 6 -3 9 -13 9 -23z"/>
<path d="M6615 7130 c-3 -5 -1 -10 4 -10 6 0 11 5 11 10 0 6 -2 10 -4 10 -3 0
-8 -4 -11 -10z"/>
<path d="M6710 6749 c0 -5 5 -7 10 -4 6 3 10 8 10 11 0 2 -4 4 -10 4 -5 0 -10
-5 -10 -11z"/>
<path d="M6820 6880 c0 -5 5 -10 11 -10 5 0 7 5 4 10 -3 6 -8 10 -11 10 -2 0
-4 -4 -4 -10z"/>
<path d="M6820 6850 c-9 -6 -10 -10 -3 -10 6 0 15 5 18 10 8 12 4 12 -15 0z"/>
<path d="M7134 6824 c-18 -14 -18 -15 4 -4 12 6 22 13 22 15 0 8 -5 6 -26 -11z"/>
<path d="M7075 6820 c-19 -8 -19 -9 3 -9 12 -1 22 4 22 9 0 6 -1 10 -2 9 -2 0
-12 -4 -23 -9z"/>
<path d="M7018 6813 c7 -3 16 -2 19 1 4 3 -2 6 -13 5 -11 0 -14 -3 -6 -6z"/>
<path d="M7710 3814 c0 -8 5 -12 10 -9 6 3 10 10 10 16 0 5 -4 9 -10 9 -5 0
-10 -7 -10 -16z"/>
<path d="M7585 3760 c3 -5 8 -10 11 -10 2 0 4 5 4 10 0 6 -5 10 -11 10 -5 0
-7 -4 -4 -10z"/>
<path d="M3805 8112 c6 -5 21 -13 35 -17 17 -5 22 -4 15 3 -5 5 -21 13 -35 17
-17 5 -22 4 -15 -3z"/>
<path d="M6740 7922 c0 -5 9 -17 21 -28 21 -19 21 -19 18 6 -4 23 -39 43 -39
22z"/>
<path d="M7031 7844 c0 -11 3 -14 6 -6 3 7 2 16 -1 19 -3 4 -6 -2 -5 -13z"/>
<path d="M4729 7841 c-8 -2 -19 -12 -26 -21 -19 -27 -77 -50 -172 -70 -47 -10
-79 -19 -69 -19 51 -3 177 32 228 63 30 19 71 36 90 38 l35 3 -36 6 c-20 2
-43 3 -50 0z"/>
<path d="M4835 7830 c4 -6 11 -8 16 -5 14 9 11 15 -7 15 -8 0 -12 -5 -9 -10z"/>
<path d="M7021 7804 c0 -11 3 -14 6 -6 3 7 2 16 -1 19 -3 4 -6 -2 -5 -13z"/>
<path d="M5608 7773 c6 -2 18 -2 25 0 6 3 1 5 -13 5 -14 0 -19 -2 -12 -5z"/>
<path d="M7017 7737 c-3 -8 -1 -20 4 -28 6 -10 9 -7 9 14 0 29 -5 35 -13 14z"/>
<path d="M6836 7725 c4 -8 8 -15 10 -15 2 0 4 7 4 15 0 8 -4 15 -10 15 -5 0
-7 -7 -4 -15z"/>
<path d="M4390 7720 c-20 -6 -21 -8 -5 -8 11 0 29 3 40 8 25 11 -1 11 -35 0z"/>
<path d="M4328 7703 c7 -3 16 -2 19 1 4 3 -2 6 -13 5 -11 0 -14 -3 -6 -6z"/>
<path d="M4243 7693 c9 -2 25 -2 35 0 9 3 1 5 -18 5 -19 0 -27 -2 -17 -5z"/>
<path d="M6688 7693 c6 -2 18 -2 25 0 6 3 1 5 -13 5 -14 0 -19 -2 -12 -5z"/>
<path d="M6805 7671 c-3 -5 -2 -12 3 -15 5 -3 9 1 9 9 0 17 -3 19 -12 6z"/>
<path d="M6905 7631 c-17 -35 -8 -46 17 -20 12 12 13 19 5 23 -9 3 -9 5 1 5
14 1 17 21 2 21 -5 0 -16 -13 -25 -29z"/>
<path d="M7040 7651 c0 -6 4 -13 10 -16 6 -3 7 1 4 9 -7 18 -14 21 -14 7z"/>
<path d="M6835 7629 c-10 -16 1 -22 26 -14 17 6 19 9 8 16 -19 12 -26 11 -34
-2z"/>
<path d="M2546 7513 c-119 -123 -248 -294 -233 -309 3 -3 42 43 88 103 46 59
119 147 162 196 44 48 74 87 69 87 -6 0 -44 -35 -86 -77z"/>
<path d="M3270 7524 c-67 -56 -85 -75 -45 -46 37 26 112 91 105 91 -3 0 -30
-20 -60 -45z"/>
<path d="M6821 7484 c0 -11 3 -14 6 -6 3 7 2 16 -1 19 -3 4 -6 -2 -5 -13z"/>
<path d="M6070 7470 c0 -5 5 -10 11 -10 5 0 7 5 4 10 -3 6 -8 10 -11 10 -2 0
-4 -4 -4 -10z"/>
<path d="M6823 7420 c0 -25 2 -35 4 -22 2 12 2 32 0 45 -2 12 -4 2 -4 -23z"/>
<path d="M5970 7435 c0 -8 4 -15 10 -15 5 0 7 7 4 15 -4 8 -8 15 -10 15 -2 0
-4 -7 -4 -15z"/>
<path d="M5890 7351 c0 -6 4 -13 10 -16 6 -3 7 1 4 9 -7 18 -14 21 -14 7z"/>
<path d="M6812 7300 c0 -19 2 -27 5 -17 2 9 2 25 0 35 -3 9 -5 1 -5 -18z"/>
<path d="M5840 7316 c0 -2 9 -6 20 -9 11 -3 18 -1 14 4 -5 9 -34 13 -34 5z"/>
<path d="M6095 7310 c3 -5 11 -10 16 -10 6 0 7 5 4 10 -3 6 -11 10 -16 10 -6
0 -7 -4 -4 -10z"/>
<path d="M5986 7273 c-6 -14 -5 -15 5 -6 7 7 10 15 7 18 -3 3 -9 -2 -12 -12z"/>
<path d="M6390 7190 c0 -5 5 -10 10 -10 6 0 10 5 10 10 0 6 -4 10 -10 10 -5 0
-10 -4 -10 -10z"/>
<path d="M4718 7053 c-26 -31 -27 -39 -6 -40 13 -1 18 3 15 11 -3 8 0 19 6 25
6 6 8 13 5 16 -2 3 -12 -3 -20 -12z"/>
<path d="M7695 6994 c-9 -14 -15 -27 -13 -30 2 -2 12 10 22 26 21 37 15 40 -9
4z"/>
<path d="M4677 6966 c-11 -28 -8 -35 13 -33 11 1 20 5 20 10 0 4 5 5 12 1 7
-5 8 -3 4 5 -5 7 -10 10 -14 7 -3 -3 -10 2 -17 11 -11 14 -12 14 -18 -1z"/>
<path d="M7668 6923 c-2 -16 0 -40 3 -54 5 -18 1 -37 -12 -58 -10 -17 -15 -31
-10 -31 5 0 15 14 24 31 8 18 17 27 21 20 4 -6 13 -11 19 -11 7 0 1 9 -12 19
-19 15 -23 27 -23 65 1 51 -5 62 -10 19z"/>
<path d="M7740 6808 c0 -18 13 -56 29 -84 31 -54 133 -154 157 -154 22 0 17 5
-36 38 -57 36 -103 101 -126 180 -9 28 -17 52 -20 52 -2 0 -4 -15 -4 -32z"/>
<path d="M4868 6653 c6 -2 18 -2 25 0 6 3 1 5 -13 5 -14 0 -19 -2 -12 -5z"/>
<path d="M4705 6624 c-91 -25 -258 -84 -252 -90 1 -2 64 17 140 41 75 24 161
49 192 55 30 6 55 13 55 16 0 9 -50 1 -135 -22z"/>
<path d="M3996 6585 c-11 -8 -17 -17 -14 -20 2 -3 13 4 23 15 21 23 18 25 -9
5z"/>
<path d="M3950 6550 c-8 -5 -12 -12 -9 -15 4 -3 12 1 19 10 14 17 11 19 -10 5z"/>
<path d="M8150 6511 c-8 -6 -17 -8 -20 -6 -3 1 -11 -3 -18 -11 -11 -12 -10
-14 3 -14 9 0 26 5 37 11 16 9 23 8 29 -2 10 -16 12 -8 3 15 -7 18 -13 19 -34
7z"/>
<path d="M8070 6495 c-7 -9 -8 -15 -2 -15 5 0 12 7 16 15 3 8 4 15 2 15 -2 0
-9 -7 -16 -15z"/>
<path d="M4669 6473 c-13 -15 -12 -15 9 -4 23 12 28 21 13 21 -5 0 -15 -7 -22
-17z"/>
<path d="M7974 6478 c-3 -4 13 -8 35 -8 23 0 41 2 41 4 0 8 -71 12 -76 4z"/>
<path d="M4770 6476 c0 -2 7 -17 15 -32 15 -29 22 -13 9 20 -5 14 -24 23 -24
12z"/>
<path d="M4262 6435 c-28 -20 -52 -38 -52 -40 0 -3 25 11 55 31 48 32 62 44
52 44 -1 0 -26 -16 -55 -35z"/>
<path d="M8217 6463 c-10 -9 -9 -23 1 -23 5 0 9 7 9 15 0 17 -1 18 -10 8z"/>
<path d="M8104 6448 c-4 -7 -3 -8 4 -4 7 4 12 3 12 -3 0 -6 -9 -15 -20 -21
-11 -6 -18 -15 -15 -20 3 -5 -3 -13 -12 -19 -10 -6 -13 -11 -6 -11 6 0 15 5
18 10 10 16 55 12 55 -6 0 -8 5 -12 11 -9 7 5 3 15 -10 29 -24 26 -27 38 -7
30 8 -3 17 0 22 7 5 9 2 10 -10 6 -14 -5 -17 -3 -12 8 6 18 -19 21 -30 3z"/>
<path d="M6395 6410 c10 -11 20 -20 23 -20 3 0 -3 9 -13 20 -10 11 -20 20 -23
20 -3 0 3 -9 13 -20z"/>
<path d="M8160 6414 c0 -13 18 -39 24 -34 2 3 -2 14 -10 24 -8 11 -14 16 -14
10z"/>
<path d="M4880 6398 c-41 -5 -79 -14 -85 -20 -7 -7 8 -8 50 -3 146 18 273 20
371 8 87 -11 236 -45 299 -68 16 -5 17 -5 5 4 -25 19 -170 60 -250 71 -101 15
-298 18 -390 8z"/>
<path d="M7205 6359 c-11 -17 -2 -18 19 -3 17 12 17 14 4 14 -9 0 -20 -5 -23
-11z"/>
<path d="M8090 6361 c0 -5 9 -7 20 -4 11 3 20 7 20 9 0 2 -9 4 -20 4 -11 0
-20 -4 -20 -9z"/>
<path d="M7225 6329 c-11 -17 1 -21 15 -4 8 9 8 15 2 15 -6 0 -14 -5 -17 -11z"/>
<path d="M5540 6310 c0 -5 5 -10 11 -10 5 0 7 5 4 10 -3 6 -8 10 -11 10 -2 0
-4 -4 -4 -10z"/>
<path d="M1785 6265 c-10 -28 -31 -81 -45 -120 -15 -38 -30 -83 -34 -99 -6
-26 -5 -28 15 -23 12 3 50 -5 85 -17 35 -13 61 -20 58 -15 -2 4 -32 18 -64 30
-40 14 -60 27 -60 38 0 9 16 65 35 125 36 111 44 172 10 81z"/>
<path d="M5581 6281 c6 -14 15 -36 20 -50 l7 -26 1 26 c1 15 -8 37 -20 50
l-20 24 12 -24z"/>
<path d="M7231 6286 c-6 -7 -4 -22 5 -41 10 -20 13 -23 10 -8 -3 16 2 23 21
27 13 4 21 10 19 15 -9 15 -45 19 -55 7z"/>
<path d="M4654 6236 c6 -19 12 -33 14 -31 7 6 -9 65 -17 65 -5 0 -3 -15 3 -34z"/>
<path d="M7310 6244 c0 -8 5 -12 10 -9 6 4 8 11 5 16 -9 14 -15 11 -15 -7z"/>
<path d="M8200 6218 c0 -30 1 -31 15 -12 19 25 19 44 0 44 -10 0 -15 -10 -15
-32z"/>
<path d="M8245 6167 c4 -12 13 -27 21 -33 10 -8 10 -14 2 -22 -16 -16 -7 -22
19 -16 12 3 24 15 27 27 7 27 -11 48 -23 28 -7 -11 -10 -9 -15 7 -4 11 -14 23
-22 26 -12 5 -14 1 -9 -17z"/>
<path d="M4667 6173 c-4 -3 -7 -13 -7 -22 1 -13 3 -13 11 2 11 19 8 33 -4 20z"/>
<path d="M8147 6167 c-3 -8 -1 -20 5 -28 8 -11 9 -11 5 2 -3 9 0 22 6 28 8 8
8 11 0 11 -6 0 -13 -6 -16 -13z"/>
<path d="M8197 6173 c-4 -3 -7 -16 -7 -27 0 -12 3 -16 8 -10 4 6 13 13 21 15
11 4 11 7 -1 17 -8 6 -18 9 -21 5z"/>
<path d="M5570 6149 c-7 -11 -10 -23 -7 -25 2 -2 9 7 15 21 14 30 7 33 -8 4z"/>
<path d="M7270 6156 c-10 -13 -10 -20 -2 -28 16 -16 32 2 23 25 -6 17 -8 18
-21 3z"/>
<path d="M8095 6140 c-3 -5 -1 -10 4 -10 6 0 11 5 11 10 0 6 -2 10 -4 10 -3 0
-8 -4 -11 -10z"/>
<path d="M7342 6128 c-17 -17 -15 -48 4 -48 11 0 14 6 9 20 -4 11 -2 20 4 20
6 0 11 5 11 10 0 14 -13 13 -28 -2z"/>
<path d="M4454 6083 c11 -13 29 -22 40 -22 20 1 20 2 1 6 -11 3 -29 12 -40 22
-20 16 -20 16 -1 -6z"/>
<path d="M8125 6080 c-3 -5 -1 -10 4 -10 6 0 11 5 11 10 0 6 -2 10 -4 10 -3 0
-8 -4 -11 -10z"/>
<path d="M5532 6060 c0 -14 2 -19 5 -12 2 6 2 18 0 25 -3 6 -5 1 -5 -13z"/>
<path d="M7666 6030 c3 -14 11 -32 16 -40 6 -10 7 -7 2 10 -3 14 -11 32 -16
40 -6 10 -7 7 -2 -10z"/>
<path d="M8042 6015 c-10 -21 -9 -25 4 -25 9 0 12 5 8 11 -3 6 -1 15 6 19 7 4
8 10 3 13 -6 4 -15 -5 -21 -18z"/>
<path d="M8081 6016 c-10 -11 -9 -14 1 -12 14 2 23 15 15 22 -2 2 -10 -2 -16
-10z"/>
<path d="M6380 5990 c12 -16 24 -30 26 -30 3 0 -4 14 -16 30 -12 17 -24 30
-26 30 -3 0 4 -13 16 -30z"/>
<path d="M8115 5994 c-11 -8 -20 -19 -20 -25 0 -5 -6 -14 -14 -18 -8 -5 -9
-11 -3 -15 9 -5 18 7 20 27 1 4 11 17 24 27 27 23 22 26 -7 4z"/>
<path d="M6420 5931 c5 -11 15 -23 21 -27 6 -3 3 5 -6 20 -20 30 -30 35 -15 7z"/>
<path d="M2151 5828 c-34 -125 -61 -259 -60 -298 0 -14 13 37 29 113 16 76 38
172 50 214 11 42 19 78 17 80 -3 2 -18 -47 -36 -109z"/>
<path d="M8053 5865 c0 -8 4 -15 9 -15 4 0 8 4 8 9 0 6 -4 12 -8 15 -5 3 -9
-1 -9 -9z"/>
<path d="M2000 5754 c0 -26 3 -44 6 -41 12 11 15 75 4 82 -6 4 -10 -12 -10
-41z"/>
<path d="M7731 5784 c0 -11 3 -14 6 -6 3 7 2 16 -1 19 -3 4 -6 -2 -5 -13z"/>
<path d="M7080 5776 c0 -2 8 -10 18 -17 15 -13 16 -12 3 4 -13 16 -21 21 -21
13z"/>
<path d="M6820 5755 c0 -5 5 -17 10 -25 5 -8 10 -10 10 -5 0 6 -5 17 -10 25
-5 8 -10 11 -10 5z"/>
<path d="M7722 5710 c0 -14 2 -19 5 -12 2 6 2 18 0 25 -3 6 -5 1 -5 -13z"/>
<path d="M6841 5700 c0 -8 4 -24 9 -35 5 -13 9 -14 9 -5 0 8 -4 24 -9 35 -5
13 -9 14 -9 5z"/>
<path d="M7085 5700 c3 -5 10 -10 16 -10 5 0 9 5 9 10 0 6 -7 10 -16 10 -8 0
-12 -4 -9 -10z"/>
<path d="M1993 5650 c-18 -86 -29 -107 -91 -172 -62 -67 -37 -62 32 5 36 35
46 53 60 114 10 39 16 80 14 90 -2 10 -9 -7 -15 -37z"/>
<path d="M7733 5645 c0 -22 2 -30 4 -17 2 12 2 30 0 40 -3 9 -5 -1 -4 -23z"/>
<path d="M5350 5636 c0 -2 7 -7 16 -10 8 -3 12 -2 9 4 -6 10 -25 14 -25 6z"/>
<path d="M6861 5638 c-1 -4 13 -64 29 -134 38 -160 60 -293 60 -366 0 -31 5
-60 10 -63 6 -4 10 9 10 31 0 36 1 36 33 30 23 -4 28 -3 17 4 -8 5 -23 10 -32
10 -18 0 -23 12 -33 80 -20 144 -89 442 -94 408z"/>
<path d="M5492 5528 c70 -69 92 -99 130 -178 46 -92 78 -191 78 -237 0 -12 5
-25 10 -28 29 -18 -27 191 -78 290 -36 70 -151 198 -200 224 -13 7 14 -25 60
-71z"/>
<path d="M7742 5575 c0 -16 2 -22 5 -12 2 9 2 23 0 30 -3 6 -5 -1 -5 -18z"/>
<path d="M4694 5558 l-19 -23 23 19 c21 18 27 26 19 26 -2 0 -12 -10 -23 -22z"/>
<path d="M6607 5539 c4 -13 8 -18 11 -10 2 7 -1 18 -6 23 -8 8 -9 4 -5 -13z"/>
<path d="M3110 5451 c-35 -98 -52 -120 -120 -150 -47 -22 -125 -28 -135 -11
-11 17 -23 11 -29 -16 -7 -28 7 -54 18 -35 4 6 21 11 37 11 63 0 119 22 169
67 43 39 52 54 75 130 15 47 24 87 22 89 -2 3 -19 -36 -37 -85z"/>
<path d="M7753 5495 c0 -22 2 -30 4 -17 2 12 2 30 0 40 -3 9 -5 -1 -4 -23z"/>
<path d="M2082 5475 c0 -16 2 -22 5 -12 2 9 2 23 0 30 -3 6 -5 -1 -5 -18z"/>
<path d="M2071 5414 c0 -11 3 -14 6 -6 3 7 2 16 -1 19 -3 4 -6 -2 -5 -13z"/>
<path d="M6321 5428 c-1 -4 6 -33 14 -64 22 -83 4 -124 -52 -124 -11 0 -28 -6
-38 -14 -20 -14 -22 -68 -7 -186 l7 -55 50 -16 c65 -20 73 -42 56 -147 -27
-165 -111 -361 -213 -496 -103 -137 -249 -266 -301 -266 -13 0 -50 20 -82 45
l-58 45 -91 -49 c-50 -28 -93 -57 -94 -66 -2 -9 6 -38 17 -65 27 -64 26 -84
-5 -109 -70 -55 -322 -106 -479 -98 -149 9 -317 50 -338 84 -3 5 1 35 8 68 11
46 12 62 2 74 -7 8 -54 35 -106 59 l-94 45 -31 -35 c-17 -19 -41 -47 -52 -64
l-21 -29 -45 21 c-164 80 -382 343 -468 567 -56 145 -82 261 -83 378 -2 120 4
136 61 142 34 3 33 4 -9 5 -65 3 -71 -8 -71 -126 1 -244 99 -525 246 -708 88
-109 204 -216 287 -265 80 -47 84 -46 152 33 42 48 48 52 66 40 12 -6 48 -27
82 -44 34 -18 64 -38 66 -45 3 -8 0 -33 -7 -57 -7 -24 -9 -53 -6 -64 16 -50
235 -103 438 -105 70 0 124 -5 122 -9 -3 -4 -12 -8 -20 -8 -8 0 -25 -9 -37
-20 -20 -19 -23 -19 -33 -5 -9 12 -14 13 -19 5 -6 -9 -10 -9 -16 1 -7 11 -9
11 -9 -1 0 -9 11 -32 24 -51 35 -51 41 -82 21 -103 -10 -9 -14 -20 -11 -24 4
-3 11 0 16 8 5 8 12 11 17 7 4 -4 15 7 26 25 16 29 17 30 13 7 -4 -20 0 -29
25 -43 17 -10 29 -20 27 -21 -10 -11 -154 -26 -244 -26 -98 -1 -144 5 -278 37
-32 7 -62 11 -67 9 -4 -3 -10 -1 -13 4 -3 5 -15 7 -26 4 -17 -4 -19 -2 -13 13
6 17 5 17 -10 5 -27 -22 -85 -5 -120 34 -16 19 -43 37 -60 41 -17 3 -44 15
-61 25 -17 10 -49 27 -71 39 -61 31 -97 65 -93 85 3 18 4 18 21 1 21 -22 22
-21 30 21 4 20 2 35 -5 39 -8 5 -9 2 -5 -9 5 -13 0 -17 -20 -17 l-26 0 23 20
c12 11 26 17 31 15 4 -3 14 3 21 12 7 10 19 18 26 19 26 2 30 4 36 19 5 13 2
14 -15 5 -11 -6 -33 -9 -49 -5 -26 6 -28 4 -23 -17 4 -21 3 -21 -9 -6 -11 12
-18 14 -32 6 -15 -8 -16 -12 -5 -19 10 -6 10 -9 2 -9 -17 0 -36 38 -30 61 4
13 0 19 -11 19 -15 0 -113 59 -150 90 -7 6 -17 8 -23 4 -6 -4 -15 -1 -20 7 -6
11 -11 10 -27 -4 -10 -9 -23 -17 -28 -17 -26 0 -143 142 -233 283 -66 102 -67
81 -1 -28 65 -108 183 -258 280 -355 100 -101 235 -197 389 -277 47 -24 100
-59 116 -78 18 -20 48 -39 73 -46 40 -12 57 -27 87 -83 6 -10 33 -27 60 -37
52 -20 75 -20 27 0 -31 13 -129 107 -121 116 3 3 48 -4 100 -15 132 -27 269
-39 372 -33 62 4 87 3 87 -6 0 -8 5 -8 18 -1 9 5 68 16 129 25 304 42 498 123
749 311 129 96 239 211 328 339 72 103 155 247 184 320 52 128 121 387 96 362
-6 -6 -24 -72 -26 -94 -1 -7 -6 -13 -11 -13 -6 0 -7 -3 -4 -6 3 -4 1 -16 -4
-27 -10 -17 -18 -6 -70 97 -33 65 -56 122 -53 128 4 7 2 8 -4 4 -8 -5 -12 4
-12 28 0 19 -4 38 -10 41 -5 3 -10 14 -10 25 0 13 -5 17 -20 13 -11 -3 -20
-12 -20 -21 0 -8 3 -12 7 -9 12 13 35 -35 35 -74 -1 -25 5 -42 15 -47 9 -5 16
-20 17 -33 1 -13 7 -23 14 -21 7 1 12 -7 12 -17 0 -10 6 -21 14 -24 8 -3 14
-14 14 -24 0 -10 2 -29 6 -43 7 -28 1 -40 -30 -57 -19 -10 -23 -9 -27 8 -3 11
-14 19 -27 19 -20 0 -22 -4 -16 -30 3 -19 2 -29 -4 -25 -6 4 -10 -6 -10 -22 0
-15 -3 -39 -7 -52 -4 -17 -3 -22 5 -17 8 5 12 -3 12 -23 0 -16 -5 -31 -12 -33
-6 -2 -8 -10 -4 -16 5 -8 13 -9 26 -2 14 7 24 5 42 -10 13 -11 17 -19 10 -20
-7 0 -12 -8 -10 -17 2 -13 -3 -17 -15 -15 -15 3 -17 -1 -13 -16 6 -18 -28
-108 -45 -122 -4 -3 -15 -21 -26 -40 -49 -90 -101 -158 -196 -253 -120 -122
-225 -202 -357 -271 -105 -55 -105 -50 2 55 39 38 54 60 48 69 -13 22 9 58 32
52 16 -4 19 -11 15 -36 -3 -17 -3 -25 0 -18 2 6 10 12 16 12 7 0 18 9 24 19
10 17 9 20 -12 25 -20 5 -24 11 -21 36 2 17 0 33 -5 36 -5 3 -9 10 -9 16 0 6
8 4 18 -5 10 -10 24 -17 32 -17 10 0 10 -3 0 -15 -11 -13 -10 -14 4 -9 9 4 16
2 14 -4 -2 -5 2 -10 7 -10 6 0 8 5 6 11 -2 7 -4 18 -4 25 0 11 -5 13 -23 11
-3 0 -15 10 -27 23 -29 32 -57 42 -57 22 0 -10 -5 -12 -12 -7 -7 4 -21 6 -32
4 -11 -1 -16 2 -12 8 4 6 -1 11 -12 11 -10 0 -49 18 -86 41 -50 30 -76 40 -97
37 -16 -3 -29 -2 -29 1 0 6 66 51 75 51 2 0 25 -20 49 -45 63 -63 85 -66 150
-21 65 44 190 170 250 251 104 138 181 310 218 480 27 127 32 163 20 147 -7
-11 -11 -8 -15 10 -4 13 -18 30 -32 38 -14 7 -25 17 -25 22 0 12 43 -11 53
-28 15 -27 37 -16 33 16 -2 17 0 33 5 36 5 3 9 0 9 -6 0 -6 5 -8 10 -5 6 4 7
12 3 18 -5 9 -3 9 8 0 12 -10 15 -9 15 5 0 13 -10 17 -44 17 -44 0 -62 13 -92
64 -8 13 -11 13 -18 3 -9 -13 -42 -7 -42 8 0 4 7 14 16 21 14 12 14 14 -3 20
-17 7 -17 7 2 15 11 4 35 22 54 39 32 29 33 32 27 87 -5 48 -33 139 -35 116z
m-26 -413 c19 -8 19 -8 1 -13 -10 -2 -22 2 -27 10 -11 16 -12 38 -1 22 4 -6
16 -14 27 -19z m-702 -987 c-32 -31 -49 -34 -38 -7 5 14 39 35 60 38 5 0 -5
-13 -22 -31z m-83 -228 c-8 -5 -17 -7 -19 -4 -3 3 1 9 9 14 8 5 17 7 19 4 3
-3 -1 -9 -9 -14z m-30 -9 c0 -5 -9 -11 -21 -14 -16 -4 -18 -3 -8 9 13 16 29
19 29 5z m-80 -31 c-20 -13 -53 -13 -45 0 3 6 18 10 33 10 21 0 24 -2 12 -10z"/>
<path d="M7763 5395 c0 -22 2 -30 4 -17 2 12 2 30 0 40 -3 9 -5 -1 -4 -23z"/>
<path d="M6654 5400 c15 -75 17 -129 6 -149 -13 -26 -4 -43 11 -21 13 20 6
151 -10 175 -11 19 -12 18 -7 -5z"/>
<path d="M3983 5280 c0 -25 2 -35 4 -22 2 12 2 32 0 45 -2 12 -4 2 -4 -23z"/>
<path d="M3361 5294 c0 -11 3 -14 6 -6 3 7 2 16 -1 19 -3 4 -6 -2 -5 -13z"/>
<path d="M5157 5265 c18 -7 53 -33 79 -57 26 -24 41 -32 32 -19 -21 30 -106
91 -127 91 -9 -1 -2 -7 16 -15z"/>
<path d="M6656 5157 c1 -29 5 -63 9 -77 4 -14 7 -74 8 -135 1 -90 3 -102 9
-65 5 25 6 79 4 120 -10 150 -34 276 -30 157z"/>
<path d="M6310 5170 c0 -13 11 -13 30 0 12 8 11 10 -7 10 -13 0 -23 -4 -23
-10z"/>
<path d="M6363 5165 c-17 -19 -16 -25 2 -25 8 0 15 9 15 20 0 23 -1 24 -17 5z"/>
<path d="M8155 5159 c-4 -6 -5 -12 -2 -15 2 -3 7 2 10 11 7 17 1 20 -8 4z"/>
<path d="M7941 5146 c2 -2 27 -6 54 -9 32 -4 43 -3 30 3 -19 8 -93 14 -84 6z"/>
<path d="M8215 5139 c-4 -6 -2 -16 5 -22 10 -9 11 -9 6 0 -3 6 -1 13 6 15 9 3
9 6 1 11 -7 4 -15 2 -18 -4z"/>
<path d="M5291 5135 c1 -19 18 -51 18 -35 0 8 -4 22 -9 30 -5 8 -9 11 -9 5z"/>
<path d="M7150 5119 c123 -22 130 -22 130 -9 0 5 -6 7 -13 4 -7 -2 -42 2 -78
11 -35 8 -82 14 -104 14 -26 -1 -4 -7 65 -20z"/>
<path d="M3960 5120 c0 -7 -7 -22 -17 -32 -15 -17 -15 -18 0 -18 17 0 35 45
23 57 -3 4 -6 0 -6 -7z"/>
<path d="M2831 5094 c0 -11 3 -14 6 -6 3 7 2 16 -1 19 -3 4 -6 -2 -5 -13z"/>
<path d="M8366 5096 c3 -9 -5 -21 -23 -31 -25 -14 -25 -15 -4 -9 20 5 23 3 17
-11 -5 -13 -2 -16 10 -11 8 3 30 -1 47 -10 21 -11 28 -12 20 -3 -7 7 -13 22
-13 32 0 16 -3 17 -15 7 -18 -15 -42 -3 -26 13 16 16 14 37 -4 37 -8 0 -12 -6
-9 -14z"/>
<path d="M5302 5024 c-15 -73 -44 -120 -95 -153 -20 -13 -35 -26 -32 -29 5 -6
74 45 92 68 22 26 54 122 51 149 -2 17 -7 5 -16 -35z"/>
<path d="M7821 5064 c0 -11 3 -14 6 -6 3 7 2 16 -1 19 -3 4 -6 -2 -5 -13z"/>
<path d="M8430 5061 c0 -11 5 -23 10 -26 6 -4 10 5 10 19 0 14 -4 26 -10 26
-5 0 -10 -9 -10 -19z"/>
<path d="M8462 5049 c-2 -26 -31 -74 -32 -51 0 6 -7 12 -16 12 -8 0 -12 -5 -9
-11 4 -6 -1 -17 -11 -24 -15 -12 -16 -16 -5 -24 8 -5 9 -11 3 -15 -6 -3 -12 0
-15 6 -2 7 -11 -3 -19 -22 -10 -23 -11 -36 -4 -39 5 -2 12 2 14 9 4 10 6 10
12 0 5 -9 20 -10 44 -6 27 5 36 12 36 27 0 11 5 17 10 14 6 -3 10 -2 10 4 0 5
-5 13 -10 16 -6 4 -7 11 -4 17 4 6 0 14 -7 19 -12 7 -12 11 -1 18 9 5 12 21 9
42 -3 25 -4 28 -5 8z"/>
<path d="M8160 5050 c0 -5 5 -10 11 -10 5 0 7 5 4 10 -3 6 -8 10 -11 10 -2 0
-4 -4 -4 -10z"/>
<path d="M7818 5033 c6 -2 12 -14 12 -26 0 -16 3 -18 12 -9 13 13 -6 43 -26
41 -7 0 -6 -2 2 -6z"/>
<path d="M8100 5021 c0 -5 5 -13 10 -16 6 -3 10 -2 10 4 0 5 -4 13 -10 16 -5
3 -10 2 -10 -4z"/>
<path d="M7832 4951 c-1 -19 -14 -54 -28 -79 -33 -56 -43 -92 -33 -117 6 -17
8 -15 8 11 1 17 15 58 32 91 22 43 29 69 26 94 l-4 34 -1 -34z"/>
<path d="M7622 4929 c-5 -19 -7 -38 -3 -44 3 -5 9 8 13 29 10 49 2 60 -10 15z"/>
<path d="M6410 4903 c0 -12 5 -23 10 -23 6 0 10 4 10 9 0 5 2 16 5 24 4 8 0
14 -10 14 -9 0 -15 -9 -15 -24z"/>
<path d="M7980 4911 c0 -6 4 -13 10 -16 6 -3 7 1 4 9 -7 18 -14 21 -14 7z"/>
<path d="M8275 4880 c-3 -5 1 -10 9 -10 9 0 16 5 16 10 0 6 -4 10 -9 10 -6 0
-13 -4 -16 -10z"/>
<path d="M8200 4868 c0 -9 -8 -18 -17 -21 -17 -4 -17 -4 0 -12 26 -11 42 8 28
32 -9 16 -10 16 -11 1z"/>
<path d="M7544 4858 c-3 -4 2 -8 11 -8 9 0 27 -12 40 -26 24 -26 25 -26 25 -5
0 12 7 24 15 27 8 4 15 10 15 15 0 17 -30 9 -30 -8 -1 -16 -2 -16 -13 -3 -13
16 -55 22 -63 8z"/>
<path d="M8230 4859 c0 -5 5 -7 10 -4 6 3 10 8 10 11 0 2 -4 4 -10 4 -5 0 -10
-5 -10 -11z"/>
<path d="M8255 4850 c-3 -5 -1 -10 4 -10 6 0 11 5 11 10 0 6 -2 10 -4 10 -3 0
-8 -4 -11 -10z"/>
<path d="M3232 4825 c0 -16 2 -22 5 -12 2 9 2 23 0 30 -3 6 -5 -1 -5 -18z"/>
<path d="M7853 4805 c-56 -37 -73 -58 -23 -28 33 19 88 62 80 62 -3 0 -29 -15
-57 -34z"/>
<path d="M8210 4820 c0 -5 4 -10 9 -10 6 0 13 5 16 10 3 6 -1 10 -9 10 -9 0
-16 -4 -16 -10z"/>
<path d="M2075 4710 c3 -52 7 -111 10 -130 4 -32 1 -37 -31 -53 l-35 -17 -14
32 c-7 18 -33 51 -57 73 -23 22 -33 29 -21 15 86 -101 94 -266 20 -377 -37
-55 -116 -105 -197 -126 -51 -13 -54 -16 -53 -43 2 -40 91 -271 160 -417 l58
-122 35 1 c44 1 157 49 136 57 -26 10 -44 50 -52 114 -6 61 -6 61 24 77 17 9
59 23 94 31 47 11 70 22 91 46 27 29 29 30 42 12 26 -36 25 -5 -3 63 -60 146
-146 472 -182 694 -28 177 -30 182 -25 70z"/>
<path d="M7705 4790 c-3 -5 -1 -10 4 -10 6 0 11 5 11 10 0 6 -2 10 -4 10 -3 0
-8 -4 -11 -10z"/>
<path d="M7700 4740 c0 -5 5 -10 11 -10 5 0 7 5 4 10 -3 6 -8 10 -11 10 -2 0
-4 -4 -4 -10z"/>
<path d="M8095 4741 c-3 -5 -1 -12 4 -15 5 -3 11 1 15 9 6 16 -9 21 -19 6z"/>
<path d="M6487 4724 c-11 -11 14 -34 37 -34 21 1 21 1 1 12 -11 6 -23 15 -26
20 -3 4 -8 5 -12 2z"/>
<path d="M7778 4713 c7 -3 16 -2 19 1 4 3 -2 6 -13 5 -11 0 -14 -3 -6 -6z"/>
<path d="M5564 4638 l-19 -23 23 19 c12 11 22 21 22 23 0 8 -8 2 -26 -19z"/>
<path d="M6830 4412 c-26 -76 -103 -234 -163 -337 -123 -208 -317 -410 -529
-552 -162 -108 -278 -166 -453 -226 -251 -86 -438 -112 -698 -97 -92 5 -171
11 -175 14 -4 2 -32 7 -62 10 -30 3 -70 10 -87 15 -20 6 -33 6 -33 0 0 -5 5
-9 11 -9 7 0 18 -8 26 -17 8 -10 11 -12 7 -4 -5 10 -3 13 9 8 9 -3 44 -11 79
-17 35 -6 70 -13 78 -17 20 -7 46 -10 163 -19 69 -5 97 -10 97 -20 0 -20 -19
-27 -37 -13 -13 12 -15 11 -11 -6 2 -13 12 -20 28 -21 43 -1 50 5 43 38 -3 18
-2 29 3 26 5 -4 52 -2 104 3 259 26 538 115 768 243 153 86 361 250 459 363
28 32 65 74 83 93 52 57 155 219 205 320 25 52 54 111 64 130 9 19 22 34 28
33 5 -1 8 8 5 22 -2 13 1 40 8 60 7 20 10 38 8 41 -3 2 -15 -27 -28 -64z"/>
<path d="M7770 4460 c0 -11 5 -20 10 -20 6 0 10 9 10 20 0 11 -4 20 -10 20 -5
0 -10 -9 -10 -20z"/>
<path d="M6412 4435 c0 -16 2 -22 5 -12 2 9 2 23 0 30 -3 6 -5 -1 -5 -18z"/>
<path d="M6431 4404 c0 -11 3 -14 6 -6 3 7 2 16 -1 19 -3 4 -6 -2 -5 -13z"/>
<path d="M5951 4014 c0 -11 3 -14 6 -6 3 7 2 16 -1 19 -3 4 -6 -2 -5 -13z"/>
<path d="M5966 3992 c-2 -4 -1 -14 3 -21 6 -9 11 -10 15 -2 4 6 2 11 -4 11 -6
0 -8 5 -5 10 3 6 4 10 1 10 -3 0 -7 -4 -10 -8z"/>
<path d="M6046 3973 c-4 -9 0 -23 9 -32 13 -14 15 -14 15 2 0 9 -4 17 -10 17
-5 0 -7 7 -4 15 4 8 4 15 1 15 -3 0 -8 -8 -11 -17z"/>
<path d="M4523 3958 c-13 -6 -23 -14 -23 -18 0 -15 -43 -55 -55 -52 -8 1 -16
-2 -20 -8 -4 -6 7 -13 25 -17 27 -5 31 -9 26 -29 -3 -12 -2 -25 2 -28 13 -8
13 56 0 71 -7 9 -7 13 1 13 6 0 14 0 19 0 7 0 8 -3 11 -32 1 -9 4 -9 13 0 18
18 27 14 21 -9 -5 -19 -3 -21 20 -15 20 5 27 3 27 -9 0 -10 8 -14 24 -13 14 1
22 6 20 10 -3 4 -1 8 4 8 5 0 9 7 9 15 0 8 -3 15 -7 15 -4 0 -4 14 -2 31 3 22
1 30 -7 25 -6 -4 -9 -12 -6 -17 4 -5 1 -9 -5 -9 -6 0 -10 8 -9 18 3 33 -1 42
-20 42 -11 0 -23 5 -26 10 -7 12 -13 12 -42 -2z m31 -53 c-4 -8 -10 -15 -15
-15 -5 0 -9 7 -9 15 0 8 7 15 15 15 9 0 12 -6 9 -15z m73 -51 c3 -8 1 -20 -6
-27 -6 -6 -11 -7 -12 -1 0 5 -2 17 -4 27 -4 21 13 23 22 1z"/>
<path d="M2310 3841 c0 -5 5 -13 10 -16 6 -3 10 -2 10 4 0 5 -4 13 -10 16 -5
3 -10 2 -10 -4z"/>
<path d="M4321 3834 c0 -11 3 -14 6 -6 3 7 2 16 -1 19 -3 4 -6 -2 -5 -13z"/>
<path d="M6603 3745 c0 -44 2 -61 4 -37 2 23 2 59 0 80 -2 20 -4 1 -4 -43z"/>
<path d="M4649 3803 c-1 -5 0 -16 1 -27 1 -10 -2 -16 -8 -13 -5 4 -9 0 -9 -8
0 -8 8 -15 17 -15 12 0 15 8 12 35 -4 32 -10 46 -13 28z"/>
<path d="M4565 3786 c-12 -9 -14 -15 -7 -20 6 -4 9 -13 5 -21 -10 -27 6 -16
22 14 17 34 7 47 -20 27z"/>
<path d="M4330 3780 c0 -5 5 -10 10 -10 6 0 10 5 10 10 0 6 -4 10 -10 10 -5 0
-10 -4 -10 -10z"/>
<path d="M4503 3784 c-12 -5 -7 -34 6 -34 3 0 12 9 19 20 13 21 4 25 -25 14z"/>
<path d="M4265 3740 c3 -5 8 -10 11 -10 2 0 4 5 4 10 0 6 -5 10 -11 10 -5 0
-7 -4 -4 -10z"/>
<path d="M4590 3720 c0 -5 5 -10 11 -10 5 0 7 5 4 10 -3 6 -8 10 -11 10 -2 0
-4 -4 -4 -10z"/>
<path d="M4505 3690 c3 -5 10 -10 16 -10 5 0 9 5 9 10 0 6 -7 10 -16 10 -8 0
-12 -4 -9 -10z"/>
<path d="M3640 3660 c0 -5 5 -10 10 -10 6 0 10 5 10 10 0 6 -4 10 -10 10 -5 0
-10 -4 -10 -10z"/>
<path d="M4558 3653 c6 -2 18 -2 25 0 6 3 1 5 -13 5 -14 0 -19 -2 -12 -5z"/>
<path d="M3627 3624 c-8 -8 1 -24 14 -24 5 0 9 7 9 15 0 15 -12 20 -23 9z"/>
<path d="M2490 3501 c0 -6 4 -13 10 -16 6 -3 7 1 4 9 -7 18 -14 21 -14 7z"/>
<path d="M4998 3353 c7 -3 16 -2 19 1 4 3 -2 6 -13 5 -11 0 -14 -3 -6 -6z"/>
<path d="M4908 3343 c12 -2 30 -2 40 0 9 3 -1 5 -23 4 -22 0 -30 -2 -17 -4z"/>
<path d="M2676 3215 c16 -27 45 -75 66 -106 35 -52 51 -98 29 -85 -5 3 -25
-10 -45 -29 -21 -19 -44 -35 -52 -35 -8 0 -14 -4 -14 -10 0 -5 5 -10 10 -10 6
0 10 -4 10 -10 0 -5 -7 -10 -15 -10 -9 0 -15 -9 -15 -21 0 -18 -2 -19 -15 -9
-13 11 -14 10 -10 -2 4 -9 -1 -18 -9 -21 -19 -8 -46 1 -46 15 0 5 -5 6 -11 2
-8 -5 -7 -9 1 -14 8 -5 10 -15 5 -26 -7 -18 -8 -18 -15 1 l-9 20 0 -20 c-1
-17 -3 -18 -12 -5 -8 11 -12 12 -16 2 -2 -6 -8 -10 -13 -7 -4 3 -6 -4 -3 -15
6 -22 -7 -26 -25 -8 -9 9 -12 9 -12 1 0 -7 5 -15 10 -18 6 -3 10 -18 10 -32 0
-29 4 -31 -50 34 -78 94 -135 159 -142 161 -17 7 -7 -19 21 -50 16 -18 62 -78
103 -133 80 -108 175 -211 185 -201 3 3 13 0 22 -6 9 -7 6 -1 -6 13 -13 14
-23 29 -23 33 0 11 73 -5 91 -20 8 -8 21 -14 28 -14 9 0 12 -9 9 -25 -6 -29
-1 -31 21 -11 9 8 40 27 70 41 74 38 146 38 229 0 114 -51 172 -141 172 -266
0 -49 -50 -222 -71 -244 -19 -19 -6 -32 99 -94 59 -36 123 -75 143 -88 19 -13
42 -23 52 -23 9 0 20 -6 24 -14 12 -22 136 -77 147 -66 5 5 8 11 5 13 -2 2
-25 18 -51 36 -49 33 -56 48 -38 82 9 15 7 19 -5 19 -9 0 -15 -6 -12 -12 2 -7
0 -21 -5 -31 -8 -16 -11 -16 -38 -2 -28 15 -29 16 -13 35 9 10 19 17 22 15 3
-1 7 20 8 49 2 49 1 50 -8 16 -13 -43 -46 -90 -64 -90 -16 0 -227 127 -236
142 -7 10 7 54 49 163 34 86 36 127 12 197 -24 66 -80 135 -100 123 -7 -4 -14
1 -17 13 -3 11 -16 22 -31 25 -15 3 -40 17 -56 30 -28 25 -28 25 -7 32 13 4
42 7 67 7 44 1 58 13 29 24 -12 5 -13 10 -4 20 9 11 21 3 65 -41 30 -30 57
-55 60 -55 13 0 63 -44 58 -52 -3 -4 3 -8 13 -8 11 0 23 -4 29 -8 13 -13 131
-77 119 -66 -5 6 -43 32 -84 59 -41 28 -124 99 -185 159 -61 60 -169 166 -239
235 -70 69 -160 169 -200 220 -97 128 -103 134 -71 76z"/>
<path d="M4680 3186 c0 -2 7 -9 15 -16 13 -11 14 -10 9 4 -5 14 -24 23 -24 12z"/>
<path d="M5172 3133 c-17 -8 -32 -19 -32 -24 0 -11 32 1 43 15 5 7 12 4 22 -8
19 -25 27 -18 12 11 -12 21 -13 21 -45 6z"/>
<path d="M5270 3140 c-9 -6 -10 -10 -3 -10 6 0 15 5 18 10 8 12 4 12 -15 0z"/>
<path d="M2370 3041 c-31 -31 -36 -38 -15 -24 32 22 71 62 64 66 -2 1 -24 -18
-49 -42z"/>
<path d="M5380 3028 c0 -4 4 -8 9 -8 6 0 12 4 15 8 3 5 -1 9 -9 9 -8 0 -15 -4
-15 -9z"/>
<path d="M2695 3010 c-3 -5 3 -10 15 -10 12 0 18 5 15 10 -3 6 -10 10 -15 10
-5 0 -12 -4 -15 -10z"/>
<path d="M4650 2980 c-13 -8 -12 -10 3 -10 9 0 17 5 17 10 0 12 -1 12 -20 0z"/>
<path d="M3405 2936 c10 -14 19 -26 22 -26 7 0 -17 39 -28 46 -6 3 -3 -5 6
-20z"/>
<path d="M3460 2863 c0 -32 95 -131 154 -159 28 -13 29 -13 11 1 -11 9 -39 29
-63 46 -24 16 -56 51 -72 76 -17 26 -30 42 -30 36z"/>
<path d="M3274 2423 c-6 -10 -9 -24 -6 -31 6 -19 32 5 32 29 0 24 -12 24 -26
2z"/>
<path d="M3500 2436 c0 -2 8 -10 18 -17 15 -13 16 -12 3 4 -13 16 -21 21 -21
13z"/>
<path d="M3540 2406 c0 -8 82 -57 90 -54 5 2 -13 15 -41 30 -27 16 -49 26 -49
24z"/>
<path d="M3842 2259 c13 -7 16 -18 12 -42 -12 -68 -25 -97 -44 -97 -10 0 -22
-5 -26 -12 -5 -8 -2 -9 11 -4 11 4 22 2 27 -6 6 -10 8 -8 8 5 0 19 11 22 27 6
6 -6 19 -9 29 -6 15 4 13 5 -6 7 -24 2 -24 3 5 10 l30 8 -36 1 -36 1 13 51 c8
29 15 54 17 56 3 2 31 -7 63 -20 67 -28 155 -55 294 -92 52 -14 118 -32 145
-39 28 -8 82 -16 120 -19 66 -5 64 -5 -40 17 -157 33 -279 68 -459 131 -157
55 -186 63 -154 44z"/>
<path d="M4261 2244 c0 -11 3 -14 6 -6 3 7 2 16 -1 19 -3 4 -6 -2 -5 -13z"/>
<path d="M3936 2154 c3 -12 1 -25 -5 -28 -22 -14 -10 -22 25 -18 29 4 35 8 31
23 -3 11 -1 19 5 19 21 0 -4 18 -32 22 -26 4 -29 2 -24 -18z"/>
<path d="M3471 2156 c-8 -10 -9 -16 -1 -21 5 -3 10 -5 11 -3 4 18 7 38 4 38
-1 0 -8 -6 -14 -14z"/>
<path d="M3450 2121 c0 -6 4 -13 10 -16 6 -3 7 1 4 9 -7 18 -14 21 -14 7z"/>
<path d="M3817 2046 c-35 -13 -84 -49 -154 -115 -22 -19 -33 -39 -33 -57 0
-27 0 -27 21 -8 12 10 32 36 45 56 87 137 328 150 463 24 23 -21 30 -25 23
-11 -16 32 -43 52 -117 86 -80 38 -182 48 -248 25z"/>
<path d="M4588 2053 c6 -2 18 -2 25 0 6 3 1 5 -13 5 -14 0 -19 -2 -12 -5z"/>
<path d="M3544 1995 c-24 -37 -10 -42 16 -6 12 17 17 31 11 31 -6 0 -18 -11
-27 -25z"/>
<path d="M3610 1996 c0 -2 8 -10 18 -17 15 -13 16 -12 3 4 -13 16 -21 21 -21
13z"/>
<path d="M4751 1953 c-1 -6 -4 -20 -7 -30 -5 -17 -5 -17 6 0 6 10 9 23 6 30
-3 9 -5 9 -5 0z"/>
<path d="M4196 1897 c3 -10 9 -15 12 -12 3 3 0 11 -7 18 -10 9 -11 8 -5 -6z"/>
<path d="M4215 1751 c0 -100 -3 -121 -18 -136 -10 -10 -15 -21 -10 -25 14 -13
76 -29 133 -34 30 -3 46 -3 35 1 -11 3 -44 14 -72 25 l-53 19 0 122 c0 67 -4
127 -8 133 -4 7 -7 -41 -7 -105z"/>
<path d="M4715 1859 c-4 -6 -5 -12 -2 -15 2 -3 7 2 10 11 7 17 1 20 -8 4z"/>
<path d="M4791 1584 c0 -11 3 -14 6 -6 3 7 2 16 -1 19 -3 4 -6 -2 -5 -13z"/>
<path d="M4403 1543 c9 -2 23 -2 30 0 6 3 -1 5 -18 5 -16 0 -22 -2 -12 -5z"/>
<path d="M4458 1533 c7 -3 16 -2 19 1 4 3 -2 6 -13 5 -11 0 -14 -3 -6 -6z"/>
</g>
</svg>
