<?xml version="1.0" standalone="no"?>
<!DOCTYPE svg PUBLIC "-//W3C//DTD SVG 20010904//EN"
 "http://www.w3.org/TR/2001/REC-SVG-20010904/DTD/svg10.dtd">
<svg version="1.0" xmlns="http://www.w3.org/2000/svg"
 width="1024.000000pt" height="1024.000000pt" viewBox="0 0 1024.000000 1024.000000"
 preserveAspectRatio="xMidYMid meet">

<g transform="translate(0.000000,1024.000000) scale(0.100000,-0.100000)"
fill="#000000" stroke="none">
<path d="M4575 8670 c-49 -10 -114 -21 -144 -25 -62 -8 -112 -27 -130 -48 -7
-9 -13 -62 -16 -133 -6 -151 -17 -219 -41 -245 -31 -35 -277 -139 -329 -139
-35 0 -84 36 -170 126 -83 86 -93 94 -128 94 -26 0 -57 -12 -100 -38 -81 -50
-255 -153 -287 -170 -50 -27 -53 -34 -35 -98 51 -179 58 -212 51 -240 -10 -37
-139 -162 -199 -192 -25 -12 -47 -28 -49 -34 -2 -6 -31 -13 -64 -15 -49 -3
-67 1 -104 22 -88 49 -132 67 -154 61 -29 -7 -148 -126 -142 -142 2 -6 -1 -11
-8 -10 -11 1 -86 -83 -147 -164 -15 -19 -41 -50 -58 -67 -17 -18 -31 -38 -31
-43 0 -18 29 -69 77 -134 57 -77 93 -148 93 -182 0 -15 3 -24 7 -20 9 9 11 96
2 96 -4 0 -13 13 -20 28 -28 57 -94 151 -107 152 -7 0 -12 6 -10 13 1 6 -2 23
-6 36 -7 19 -4 28 10 38 11 8 20 18 20 23 1 6 2 15 3 21 0 5 7 7 14 3 6 -4 9
-4 5 1 -4 4 0 14 10 21 9 7 17 18 17 26 1 7 7 11 15 10 8 -2 12 -1 8 3 -3 4
11 22 33 42 21 19 37 40 36 46 -1 7 4 11 12 9 9 -2 11 3 7 13 -3 9 -2 14 3 11
5 -3 32 19 61 50 74 78 90 88 118 68 19 -13 26 -14 40 -2 15 12 16 11 4 -4
-14 -17 -1 -35 17 -23 5 3 13 0 17 -6 4 -8 3 -9 -4 -5 -7 4 -12 5 -12 2 0 -3
10 -10 21 -17 16 -8 20 -8 14 1 -6 9 -3 9 13 1 26 -14 55 -14 47 -1 -3 6 3 10
14 10 12 0 21 -3 21 -7 0 -10 53 -9 69 1 24 15 26 -6 1 -26 -24 -20 -47 -20
-110 -3 -24 6 -24 6 -6 -9 11 -9 36 -16 55 -16 42 0 105 35 95 52 -4 6 -3 8 3
5 6 -4 25 7 43 23 19 17 38 30 42 30 5 0 7 4 3 9 -3 5 3 12 13 15 20 7 139
122 154 151 25 43 20 78 -29 232 -23 70 -25 84 -13 98 22 26 113 82 258 157
154 80 135 83 224 -34 62 -82 135 -138 178 -138 32 0 219 70 326 121 74 36 92
65 108 182 6 43 15 75 19 71 4 -4 7 -3 7 3 0 6 6 10 13 10 21 -2 107 25 103
32 -2 3 12 7 32 8 24 1 43 10 54 24 10 11 18 16 18 9 0 -6 13 1 29 17 65 62
80 73 92 70 8 -2 11 -2 6 0 -9 6 1 23 14 23 5 0 9 -11 9 -24 0 -14 5 -28 11
-31 6 -5 9 9 8 37 -3 52 5 68 34 68 12 0 17 4 12 9 -20 18 -103 18 -190 1z
m58 -39 c-12 -11 -35 -40 -53 -64 -29 -41 -42 -49 -152 -90 l-120 -46 7 62 c8
76 20 101 46 94 12 -3 17 -1 12 6 -4 6 2 8 15 5 12 -4 22 -3 22 2 0 7 68 24
165 39 79 13 81 13 58 -8z m31 -9 c3 -5 -10 -23 -28 -41 -21 -21 -33 -27 -33
-17 0 8 4 13 8 11 3 -3 12 2 19 10 7 8 9 15 5 15 -4 0 -2 7 5 15 14 17 17 18
24 7z m-2174 -1235 c0 -2 -12 -14 -27 -28 l-28 -24 24 28 c23 25 31 32 31 24z"/>
<path d="M4798 8650 c11 -12 39 -65 62 -118 52 -117 82 -167 112 -184 15 -8
58 -12 121 -10 53 1 97 -2 97 -7 0 -5 14 -14 31 -20 27 -9 30 -9 19 4 -11 13
-6 15 36 15 27 0 55 4 63 9 9 6 7 9 -10 9 -13 0 -45 5 -70 11 -25 6 -94 10
-152 10 -67 0 -113 4 -125 12 -39 25 -135 198 -146 264 -2 13 -12 21 -31 23
l-27 4 20 -22z"/>
<path d="M5751 8636 c2 -2 24 -6 49 -9 30 -4 38 -3 25 3 -19 8 -83 14 -74 6z"/>
<path d="M6011 8406 c-1 -77 1 -137 3 -135 8 9 13 235 5 254 -4 12 -8 -38 -8
-119z"/>
<path d="M5260 8296 c0 -2 17 -15 38 -27 20 -13 60 -44 88 -69 45 -40 44 -39
-6 10 -50 49 -120 99 -120 86z"/>
<path d="M6030 8213 c0 -14 51 -57 85 -72 17 -8 67 -29 113 -47 46 -19 103
-43 127 -54 62 -28 95 -25 153 14 27 19 53 32 56 28 4 -3 4 1 0 11 -3 9 -2 17
4 17 6 0 25 19 44 42 l33 43 -38 -29 c-21 -16 -44 -38 -51 -48 -19 -27 -85
-58 -123 -58 -64 0 -302 81 -348 119 -42 35 -55 43 -55 34z"/>
<path d="M5447 8126 c6 -18 2 -19 -98 -12 -126 8 -459 9 -467 2 -3 -4 75 -6
174 -6 98 0 232 -5 298 -11 65 -5 120 -9 121 -7 2 2 -5 14 -16 28 -14 18 -17
20 -12 6z"/>
<path d="M4793 8103 c15 -2 39 -2 55 0 15 2 2 4 -28 4 -30 0 -43 -2 -27 -4z"/>
<path d="M3608 8088 c5 -5 16 -8 23 -6 8 3 3 7 -10 11 -17 4 -21 3 -13 -5z"/>
<path d="M4708 8093 c12 -2 30 -2 40 0 9 3 -1 5 -23 4 -22 0 -30 -2 -17 -4z"/>
<path d="M6926 8047 c-4 -32 -5 -61 -3 -64 8 -7 20 81 15 103 -2 11 -8 -7 -12
-39z"/>
<path d="M4638 8083 c6 -2 18 -2 25 0 6 3 1 5 -13 5 -14 0 -19 -2 -12 -5z"/>
<path d="M3738 8073 c7 -3 16 -2 19 1 4 3 -2 6 -13 5 -11 0 -14 -3 -6 -6z"/>
<path d="M4508 8063 c6 -2 18 -2 25 0 6 3 1 5 -13 5 -14 0 -19 -2 -12 -5z"/>
<path d="M4468 8053 c7 -3 16 -2 19 1 4 3 -2 6 -13 5 -11 0 -14 -3 -6 -6z"/>
<path d="M7006 8045 c4 -8 13 -15 21 -15 8 0 12 -4 8 -10 -3 -5 -11 -8 -18 -6
-7 1 -9 1 -5 -1 5 -3 3 -14 -3 -26 -9 -17 -6 -16 14 6 49 52 68 28 33 -42 -30
-58 -66 -183 -66 -226 0 -17 7 -40 15 -51 15 -18 15 -17 12 18 -6 53 16 148
47 203 31 57 34 105 6 130 -11 10 -20 15 -20 10 0 -4 -11 0 -25 9 -21 14 -24
14 -19 1z"/>
<path d="M4418 8043 c7 -3 16 -2 19 1 4 3 -2 6 -13 5 -11 0 -14 -3 -6 -6z"/>
<path d="M6976 7925 c-9 -26 -7 -32 5 -12 6 10 9 21 6 23 -2 3 -7 -2 -11 -11z"/>
<path d="M7002 7887 c-17 -47 -14 -59 4 -18 8 19 13 39 12 43 -2 5 -9 -6 -16
-25z"/>
<path d="M3820 7840 c-9 -6 -10 -10 -3 -10 6 0 15 5 18 10 8 12 4 12 -15 0z"/>
<path d="M6936 7799 c-3 -18 -4 -34 -2 -36 2 -3 7 10 11 27 4 17 5 34 2 36 -2
3 -7 -10 -11 -27z"/>
<path d="M6976 7799 c-3 -18 -4 -34 -2 -36 2 -3 7 10 11 27 4 17 5 34 2 36 -2
3 -7 -10 -11 -27z"/>
<path d="M6921 7724 c0 -11 3 -14 6 -6 3 7 2 16 -1 19 -3 4 -6 -2 -5 -13z"/>
<path d="M6971 7660 c14 -31 19 -36 19 -24 0 6 -7 19 -16 30 -14 18 -14 18 -3
-6z"/>
<path d="M6940 7631 c5 -11 15 -23 21 -27 6 -3 3 5 -6 20 -20 30 -30 35 -15 7z"/>
<path d="M6228 7563 c13 -13 28 -23 35 -23 7 0 3 6 -8 12 -11 6 -27 16 -35 22
-9 6 -5 1 8 -11z"/>
<path d="M7010 7545 c19 -19 36 -35 39 -35 3 0 -10 16 -29 35 -19 19 -36 35
-39 35 -3 0 10 -16 29 -35z"/>
<path d="M7638 7496 c70 -75 142 -168 136 -177 -3 -5 -1 -8 4 -7 5 2 24 -15
41 -36 23 -29 28 -42 21 -52 -8 -8 -8 -14 0 -19 5 -3 10 0 10 7 0 8 5 6 11 -5
9 -15 1 -30 -44 -85 -67 -84 -92 -126 -106 -179 -14 -51 -12 -56 86 -225 75
-128 115 -181 93 -122 -6 16 -20 43 -31 61 -12 18 -18 33 -14 33 3 0 -3 9 -13
21 -29 30 -82 139 -88 181 -5 30 -1 44 27 85 18 26 58 75 90 108 31 33 59 72
63 86 6 27 -7 63 -34 92 -8 8 -24 27 -35 42 -11 14 -30 38 -43 52 -12 15 -33
40 -45 56 -42 56 -119 122 -144 123 -23 1 -23 -1 15 -40z"/>
<path d="M6395 7511 c53 -7 160 -62 147 -76 -4 -4 -2 -5 4 -2 13 7 111 -65
148 -109 32 -39 33 -62 4 -100 l-22 -29 26 23 26 23 22 -36 c26 -42 71 -78
122 -96 35 -12 39 -11 61 9 18 17 35 22 81 22 65 0 86 -9 110 -44 14 -22 14
-33 5 -73 -19 -86 -20 -96 -8 -125 9 -22 23 -31 65 -44 30 -8 54 -19 54 -24 0
-5 41 -70 90 -144 50 -75 90 -141 90 -146 0 -5 -14 -36 -31 -70 -29 -58 -30
-63 -27 -174 3 -104 6 -117 27 -139 20 -22 27 -24 54 -15 18 5 57 15 87 22 30
7 61 15 69 17 21 6 48 -55 81 -185 62 -239 70 -336 40 -468 -11 -52 -11 -67 9
-150 11 -51 27 -140 35 -197 13 -92 17 -106 42 -127 25 -22 48 -29 81 -25 6 1
19 -9 27 -21 9 -12 16 -17 16 -11 0 12 -41 48 -63 56 -9 3 -8 9 3 23 10 14 7
13 -11 -4 l-25 -22 -23 24 c-17 18 -24 43 -31 107 -18 155 -28 216 -39 237
-17 32 -13 104 8 135 15 23 18 42 14 95 -12 210 -95 538 -143 567 -6 3 -39 -5
-73 -19 -35 -14 -82 -28 -104 -32 -56 -9 -63 8 -63 144 0 110 0 110 36 162 22
32 34 60 31 71 -3 10 -51 89 -107 174 -69 105 -110 157 -124 160 -70 14 -76
16 -82 39 -3 13 3 52 14 87 23 75 16 105 -31 145 -28 23 -38 26 -83 21 -29 -3
-74 -15 -100 -26 -46 -21 -47 -21 -78 -2 -50 32 -93 82 -119 142 -27 62 -67
97 -218 190 -67 42 -85 49 -126 48 l-48 -2 50 -6z"/>
<path d="M7080 7486 c0 -2 8 -10 18 -17 15 -13 16 -12 3 4 -13 16 -21 21 -21
13z"/>
<path d="M7150 7436 c0 -2 8 -10 18 -17 15 -13 16 -12 3 4 -13 16 -21 21 -21
13z"/>
<path d="M7190 7407 c0 -2 15 -16 33 -33 l32 -29 -29 33 c-28 30 -36 37 -36
29z"/>
<path d="M7338 7353 c7 -3 16 -2 19 1 4 3 -2 6 -13 5 -11 0 -14 -3 -6 -6z"/>
<path d="M6058 7343 c7 -3 16 -2 19 1 4 3 -2 6 -13 5 -11 0 -14 -3 -6 -6z"/>
<path d="M6178 7343 c6 -2 18 -2 25 0 6 3 1 5 -13 5 -14 0 -19 -2 -12 -5z"/>
<path d="M7278 7343 c6 -2 18 -2 25 0 6 3 1 5 -13 5 -14 0 -19 -2 -12 -5z"/>
<path d="M6010 7330 c-8 -5 -10 -10 -5 -10 6 0 17 5 25 10 8 5 11 10 5 10 -5
0 -17 -5 -25 -10z"/>
<path d="M5930 7285 c-13 -14 -22 -26 -19 -28 2 -1 16 10 31 25 15 15 23 28
19 28 -4 0 -18 -11 -31 -25z"/>
<path d="M4675 7239 c-15 -7 -9 -8 24 -6 48 3 49 2 121 -115 29 -47 31 -48 77
-47 l48 2 -40 6 c-37 6 -44 12 -94 89 -49 74 -57 82 -85 81 -17 0 -40 -5 -51
-10z"/>
<path d="M5446 7215 c-35 -64 -101 -124 -146 -131 -56 -9 -50 -26 8 -23 34 2
54 9 74 27 15 14 25 29 22 34 -3 4 0 8 6 8 7 0 9 7 6 16 -3 8 -2 13 3 10 5 -3
21 13 36 35 26 40 28 41 73 36 79 -9 311 -74 384 -108 30 -13 31 -15 48 -104
33 -170 13 -143 200 -264 58 -37 137 -95 177 -129 40 -34 77 -62 84 -62 7 0
64 14 127 32 l115 32 77 -82 c71 -76 199 -248 223 -299 8 -19 1 -40 -42 -122
-28 -55 -51 -110 -51 -123 0 -41 157 -486 181 -516 24 -29 62 -52 86 -52 7 0
13 -4 13 -8 0 -4 11 -9 25 -10 40 -3 105 -40 114 -65 10 -29 34 -378 26 -397
-3 -8 -55 -39 -115 -67 -62 -30 -116 -62 -124 -76 -9 -12 -20 -56 -26 -97 -19
-138 -68 -305 -130 -443 -12 -26 -19 -55 -16 -65 4 -10 29 -53 56 -97 63 -99
65 -107 44 -147 -40 -79 -199 -292 -289 -386 -42 -44 -54 -52 -75 -46 -37 9
-58 13 -131 26 -56 10 -70 9 -98 -5 -19 -9 -37 -14 -42 -11 -5 3 -8 1 -7 -4 4
-13 -123 -108 -237 -179 -49 -30 -98 -62 -107 -70 -9 -8 -22 -12 -29 -7 -9 5
-10 2 -6 -9 3 -10 3 -17 -1 -17 -4 0 -8 -8 -9 -17 0 -10 -4 -67 -8 -127 l-8
-108 -33 -14 c-18 -8 -41 -11 -51 -8 -13 4 -14 3 -5 -4 17 -12 -97 -45 -124
-36 -14 4 -15 3 -6 -4 10 -7 5 -11 -18 -16 -18 -3 -36 -3 -41 0 -5 3 -9 0 -9
-7 0 -6 -8 -9 -20 -6 -10 3 -20 1 -22 -4 -4 -13 -69 1 -67 15 6 49 -7 57 -42
25 l-24 -20 28 17 c23 14 27 14 27 1 0 -8 -8 -25 -19 -38 l-18 -23 -44 80
c-24 43 -42 83 -41 89 2 5 0 7 -4 2 -4 -4 -15 0 -25 9 -12 10 -37 16 -74 16
-31 1 -58 5 -61 10 -3 4 -11 8 -17 8 -7 0 -6 -4 3 -10 12 -8 11 -10 -5 -10
-11 0 -30 7 -42 15 -20 14 -21 13 -16 -5 5 -19 0 -20 -135 -20 -77 0 -152 -4
-165 -9 -14 -6 -51 -42 -82 -81 -36 -45 -62 -69 -71 -66 -8 3 -14 -1 -14 -10
0 -13 -8 -15 -42 -9 -156 23 -335 71 -370 97 -12 9 -18 35 -22 91 -9 122 -16
131 -188 243 -83 55 -187 125 -231 156 -95 69 -126 76 -215 53 -125 -33 -119
-34 -194 42 -82 84 -198 238 -240 319 l-32 61 41 65 c23 36 49 82 57 103 17
41 21 115 8 143 -5 9 -21 40 -35 68 -14 28 -51 122 -81 210 -30 87 -57 167
-61 177 -4 10 -56 41 -116 69 -114 53 -141 78 -144 133 -12 176 -2 367 19 383
6 5 47 21 91 36 149 49 165 67 221 246 20 63 54 164 76 223 48 128 50 170 12
247 -49 101 -47 112 42 245 83 124 198 256 244 280 21 11 51 13 127 8 l98 -6
125 85 c69 46 169 111 223 143 112 66 134 89 142 148 3 23 7 56 9 72 2 17 5
47 5 67 l1 37 125 40 c68 23 132 41 142 41 22 0 96 20 91 25 -9 8 -333 -66
-369 -85 -13 -8 -18 -30 -24 -102 -9 -119 -32 -170 -93 -209 -25 -16 -49 -26
-53 -23 -5 3 -9 1 -9 -4 0 -8 -255 -171 -304 -193 -19 -9 -44 -7 -124 11 -55
13 -111 20 -124 17 -45 -12 -286 -285 -272 -308 3 -5 0 -8 -7 -7 -7 2 -15 -6
-17 -17 -2 -11 -8 -22 -13 -25 -5 -3 -9 -21 -11 -40 -2 -40 -22 -76 -56 -104
-16 -13 -20 -21 -12 -26 6 -4 11 -10 11 -13 0 -4 20 -48 44 -99 25 -50 45
-103 45 -117 0 -14 -30 -115 -66 -223 -52 -156 -73 -205 -101 -237 -19 -23
-39 -41 -44 -41 -4 0 -32 -11 -61 -24 -29 -14 -73 -31 -98 -39 -40 -13 -46
-19 -53 -53 -10 -45 -2 -420 9 -448 7 -18 96 -66 122 -66 7 0 20 -7 29 -16 9
-8 22 -13 30 -10 8 3 12 2 9 -3 -3 -5 1 -11 9 -15 20 -7 42 -56 115 -255 89
-241 89 -258 -1 -396 -27 -42 -49 -82 -49 -91 0 -62 168 -306 325 -472 51 -54
75 -72 108 -80 37 -10 40 -9 23 4 -20 14 -20 14 0 14 11 0 44 12 74 26 30 15
72 26 96 27 38 0 53 -8 138 -74 53 -41 105 -78 116 -84 11 -5 20 -16 20 -23 0
-7 4 -11 10 -7 11 7 85 -38 123 -77 16 -15 33 -28 38 -28 6 0 7 -4 4 -10 -3
-5 -1 -10 5 -10 7 0 10 -6 7 -12 -2 -7 1 -20 7 -28 14 -17 35 -99 38 -148 1
-18 9 -39 18 -47 15 -13 211 -74 260 -79 14 -2 72 -12 129 -21 l104 -19 26 31
c14 16 42 57 62 90 l36 59 237 13 c212 11 241 10 262 -4 13 -8 44 -51 70 -95
25 -44 50 -82 54 -85 28 -17 481 112 500 143 8 13 9 11 4 -12 -5 -22 -4 -27 6
-21 10 6 12 0 8 -24 -2 -17 -1 -31 4 -31 4 0 8 -7 8 -15 0 -18 -4 -18 -33 -4
-20 9 -21 9 -4 -5 18 -14 18 -14 0 -18 -13 -3 -11 -5 9 -10 15 -3 25 -2 23 2
-3 4 3 10 13 12 9 3 21 7 26 9 5 2 10 -6 11 -18 2 -23 -19 -38 -37 -26 -6 3
-8 2 -5 -4 4 -6 -8 -9 -33 -7 -23 1 -38 -1 -35 -7 4 -5 1 -9 -4 -9 -14 0 -14
-37 -1 -45 6 -3 10 -16 10 -28 0 -18 -2 -19 -10 -7 -8 12 -10 9 -10 -11 0 -15
7 -29 15 -33 8 -3 15 -10 15 -16 0 -6 -4 -8 -10 -5 -5 3 -10 -1 -10 -9 0 -8 8
-20 18 -25 14 -9 15 -12 3 -20 -7 -5 -11 -15 -9 -22 3 -8 -1 -19 -8 -26 -16
-16 -25 -17 -21 -1 2 12 -6 13 -55 9 l-23 -2 23 -10 c13 -5 28 -7 33 -3 5 3 9
-2 9 -11 0 -13 -4 -14 -21 -4 -24 12 -93 3 -84 -12 4 -5 -3 -9 -15 -9 -12 0
-19 -4 -15 -9 3 -5 1 -12 -4 -16 -6 -3 -8 5 -5 20 3 19 1 23 -11 18 -9 -3 -14
-11 -11 -19 3 -7 -2 -18 -10 -24 -10 -9 -14 -9 -14 -1 0 6 -5 11 -11 11 -5 0
-7 -4 -4 -10 5 -9 1 -11 -20 -10 -3 1 -13 -6 -21 -15 -9 -8 -21 -15 -28 -15
-7 0 -27 -7 -44 -16 -26 -13 -35 -13 -54 -2 -36 20 -68 23 -163 13 -81 -8
-139 -13 -176 -14 -26 -1 -89 -54 -89 -75 0 -6 7 0 16 12 26 37 49 43 207 52
141 8 154 7 183 -11 31 -19 32 -19 110 5 43 13 111 34 149 46 286 86 278 83
289 111 8 22 35 39 140 87 l130 61 37 -22 37 -21 83 41 c46 23 108 64 137 90
l52 49 0 73 c0 71 1 75 34 105 37 36 164 106 191 106 10 0 33 -14 52 -30 18
-17 42 -30 52 -30 22 0 65 38 106 95 16 22 44 57 62 78 18 20 33 44 33 52 0 8
-16 35 -35 60 -19 25 -37 61 -41 81 -10 56 7 79 73 101 53 18 62 25 106 89
136 195 254 416 269 503 6 37 32 109 63 175 29 61 60 137 68 169 12 45 27 70
71 118 31 33 64 76 74 96 18 34 18 38 1 100 -12 45 -27 76 -50 99 -39 40 -49
42 -49 11 0 -29 -43 -156 -52 -157 -5 0 -12 0 -18 0 -18 0 -10 -18 10 -23 11
-3 20 -11 20 -19 0 -10 -2 -10 -8 -1 -4 7 -18 11 -29 9 -17 -4 -21 0 -18 15 2
11 1 17 -4 15 -4 -3 -13 0 -21 5 -13 8 -13 10 0 19 12 7 12 12 2 22 -6 6 -12
9 -12 4 0 -4 -11 4 -23 18 -13 14 -27 23 -30 20 -3 -4 -14 1 -23 11 -17 16
-18 16 -32 -1 -13 -17 -14 -16 -9 13 4 20 2 35 -6 40 -18 11 -38 13 -31 2 3
-5 10 -7 15 -4 5 4 9 1 9 -4 0 -6 -8 -11 -17 -11 -14 0 -15 -2 -4 -9 7 -5 14
-21 14 -35 0 -14 5 -26 11 -25 23 3 36 -1 36 -12 0 -8 -4 -8 -13 -1 -10 9 -17
6 -30 -8 -22 -26 -32 -25 -32 4 0 13 3 22 8 19 4 -2 7 3 7 11 0 9 -4 17 -10
17 -5 1 -14 2 -19 3 -5 0 -13 5 -18 9 -4 5 -2 7 6 5 12 -2 15 16 15 102 3 416
-49 758 -160 1042 -52 134 -160 339 -251 474 -118 177 -420 500 -567 608 -78
57 -146 100 -146 93 0 -3 17 -16 38 -28 88 -54 195 -146 317 -271 143 -149
159 -167 152 -174 -3 -3 1 -17 9 -32 7 -15 9 -29 4 -32 -5 -3 -7 -14 -6 -25 2
-11 0 -24 -4 -30 -4 -5 -10 -23 -14 -38 -4 -15 -11 -25 -16 -22 -6 3 -10 1
-10 -4 0 -6 9 -11 19 -11 21 0 56 -29 47 -38 -3 -3 -16 3 -28 14 l-22 19 17
-27 c25 -40 16 -34 -22 12 -18 23 -34 54 -36 70 -4 29 8 41 18 20 3 -6 4 -5 3
2 -1 7 -11 15 -21 16 -15 3 -17 -1 -11 -25 7 -25 2 -22 -52 31 l-60 59 -54 -6
c-29 -3 -83 -13 -120 -21 -82 -19 -91 -16 -182 57 -39 31 -117 84 -173 118
-57 33 -110 71 -118 83 -8 11 -21 62 -30 111 -22 121 -27 131 -77 154 -93 42
-354 111 -421 111 -27 0 -36 -6 -51 -35z m-46 -98 c0 -2 -10 -13 -23 -25 -18
-17 -24 -19 -24 -8 0 8 4 13 8 11 3 -3 12 2 19 10 12 14 20 19 20 12z m1535
-507 c3 -5 1 -10 -4 -10 -6 0 -11 5 -11 10 0 6 2 10 4 10 3 0 8 -4 11 -10z
m-13 -20 c12 -10 24 -17 28 -15 4 3 14 -3 21 -13 13 -15 12 -16 -3 -3 -22 17
-24 -2 -3 -19 20 -17 4 -34 -23 -26 -34 11 -79 96 -52 96 6 0 20 -9 32 -20z
m-22 -70 c24 0 35 -16 16 -23 -14 -6 -47 22 -45 39 0 5 3 3 6 -3 2 -7 13 -13
23 -13z m84 -32 c-4 -6 -2 -8 4 -4 6 3 13 2 17 -4 3 -5 2 -10 -4 -10 -6 0 -8
-7 -4 -16 4 -11 2 -15 -7 -12 -19 6 -48 -23 -42 -42 3 -9 -2 -7 -11 5 -24 30
-21 54 8 61 14 3 22 10 19 15 -7 13 5 31 17 23 5 -3 6 -10 3 -16z m-49 -8 c3
-5 -1 -10 -9 -10 -9 0 -16 5 -16 10 0 6 4 10 9 10 6 0 13 -4 16 -10z m85 -50
c0 -11 -7 -20 -15 -20 -13 0 -13 3 -3 20 7 11 14 20 15 20 2 0 3 -9 3 -20z
m-100 -40 c0 -5 6 -10 13 -11 9 0 9 -2 0 -6 -16 -6 -23 -5 -22 3 0 4 -5 10
-12 15 -7 4 -14 17 -16 28 -3 21 -3 21 17 1 11 -11 20 -24 20 -30z m134 8 c-4
-5 2 -16 12 -23 12 -9 14 -15 7 -16 -17 -2 -25 -4 -45 -13 -10 -4 -23 -6 -30
-3 -7 3 -3 6 10 6 23 1 32 21 9 21 -8 0 -14 7 -14 15 0 11 4 12 11 5 14 -14
26 -13 20 3 -3 8 2 14 10 14 8 0 13 -4 10 -9z m-67 -23 c0 -8 -4 -12 -9 -9 -5
3 -6 10 -3 15 9 13 12 11 12 -6z m68 -34 c3 -5 1 -12 -5 -16 -5 -3 -10 1 -10
9 0 18 6 21 15 7z m95 -44 c0 -4 11 -25 25 -48 14 -22 23 -44 20 -48 -2 -5 2
-11 10 -15 8 -3 15 -17 15 -31 0 -14 4 -25 8 -25 5 0 15 -19 21 -42 7 -24 17
-48 21 -53 11 -13 40 -93 45 -120 1 -11 10 -38 18 -60 9 -22 19 -58 22 -80 3
-22 8 -53 12 -70 3 -16 6 -39 6 -50 0 -11 5 -23 10 -26 5 -4 13 -38 17 -77 4
-38 11 -75 14 -81 4 -6 1 -11 -6 -11 -10 -1 -9 -4 2 -13 9 -7 15 -18 14 -24
-1 -7 -2 -22 -3 -33 -1 -18 -57 -57 -68 -47 -2 3 9 11 26 18 20 9 26 16 18 21
-17 11 -29 10 -22 -2 3 -5 -2 -10 -11 -10 -10 0 -14 3 -11 6 10 10 -12 44 -28
44 -8 0 -15 4 -15 9 0 4 -17 7 -37 4 -29 -2 -35 -1 -23 8 12 8 10 9 -8 4 -29
-8 -117 32 -156 71 -36 36 -48 64 -125 291 l-61 181 20 54 c12 29 35 82 52
117 25 52 29 67 20 82 -14 22 -15 39 -3 39 5 0 35 16 67 35 l59 35 17 -22 c10
-13 18 -26 18 -31z m-120 23 c0 -5 -7 -7 -15 -4 -8 4 -15 8 -15 10 0 2 7 4 15
4 8 0 15 -4 15 -10z m-3770 -283 c0 -19 -4 -17 -29 13 -27 32 -33 62 -22 110
3 12 51 -104 51 -123z m4084 -710 c7 -6 6 -7 -4 -4 -8 2 -16 16 -17 33 -1 25
0 26 4 4 3 -14 10 -29 17 -33z m55 -38 c-22 -13 -31 -11 -17 5 7 8 17 12 22 9
4 -3 2 -9 -5 -14z m-57 -51 c-5 -90 -11 -96 -10 -10 1 39 4 72 8 72 3 0 5 -28
2 -62z m88 43 c0 -15 -42 -41 -53 -34 -6 4 0 14 12 25 25 20 41 23 41 9z
m-126 -394 c-3 -8 -12 -14 -21 -14 -13 0 -13 2 3 14 10 7 19 13 21 13 1 0 0
-6 -3 -13z m280 -112 c-4 -8 -8 -15 -10 -15 -2 0 -4 7 -4 15 0 8 4 15 10 15 5
0 7 -7 4 -15z m43 9 c-3 -3 -12 -4 -19 -1 -8 3 -5 6 6 6 11 1 17 -2 13 -5z
m-107 -59 c0 5 5 4 11 -2 6 -6 18 -9 25 -6 8 3 14 0 14 -6 0 -6 -13 -9 -32 -7
-23 2 -34 9 -36 22 -3 16 -1 17 7 4 6 -8 11 -11 11 -5z m119 -10 c14 8 23 -27
10 -39 -9 -8 -10 -7 -4 3 6 11 4 13 -9 8 -11 -5 -15 -3 -10 5 5 7 2 9 -9 5
-11 -4 -14 -2 -10 9 3 8 -1 14 -11 14 -9 0 -16 5 -16 11 0 7 10 5 25 -5 14 -9
29 -14 34 -11z m145 0 c-24 -18 -35 -19 -28 -2 2 7 14 13 25 14 21 2 21 1 3
-12z m8 -37 c-9 -9 -12 -7 -12 12 0 19 3 21 12 12 9 -9 9 -15 0 -24z m-97 -18
c3 -5 1 -10 -4 -10 -6 0 -11 5 -11 10 0 6 2 10 4 10 3 0 8 -4 11 -10z m115
-13 c0 -2 -19 -21 -42 -42 l-43 -40 40 43 c36 39 45 47 45 39z m-1322 -1128
c26 -7 52 -16 59 -21 7 -5 17 -7 23 -3 5 3 10 0 10 -9 0 -24 -11 -46 -24 -46
-6 0 -25 -13 -41 -28 -17 -16 -36 -27 -43 -24 -18 6 -15 -18 3 -24 8 -4 23 0
32 7 15 13 15 12 3 -8 -8 -12 -16 -21 -19 -21 -20 2 -31 -3 -26 -12 3 -5 0 -7
-8 -4 -8 3 -18 0 -23 -7 -5 -8 -3 -10 6 -4 8 5 11 4 6 -3 -10 -16 -97 -47
-104 -36 -4 5 -20 10 -37 11 -35 3 -75 43 -75 77 0 21 58 69 179 148 31 21 22
21 79 7z m97 -99 c3 -5 1 -10 -4 -10 -6 0 -11 5 -11 10 0 6 2 10 4 10 3 0 8
-4 11 -10z m-568 -317 c-3 -10 -5 -2 -5 17 0 19 2 27 5 18 2 -10 2 -26 0 -35z
m12 -328 c2 -14 -1 -16 -15 -11 -31 12 -39 12 -36 -1 1 -7 -2 -13 -8 -13 -19
0 -10 31 13 40 29 11 41 8 46 -15z m-9 -75 c0 -5 -4 -10 -9 -10 -6 0 -13 5
-16 10 -3 6 1 10 9 10 9 0 16 -4 16 -10z m0 -124 c0 -3 -4 -8 -10 -11 -5 -3
-10 -1 -10 4 0 6 5 11 10 11 6 0 10 -2 10 -4z m-156 -71 c-4 -8 -10 -12 -15
-9 -11 6 -2 24 11 24 5 0 7 -7 4 -15z"/>
<path d="M6440 3361 c0 -7 -5 -9 -12 -5 -7 5 -8 3 -3 -5 5 -9 10 -10 18 -2 6
6 8 14 4 18 -4 3 -7 1 -7 -6z"/>
<path d="M6396 3332 c-3 -5 1 -9 9 -9 8 0 12 4 9 9 -3 4 -7 8 -9 8 -2 0 -6 -4
-9 -8z"/>
<path d="M6346 3312 c-3 -4 4 -9 15 -9 23 -2 25 3 4 10 -8 4 -16 3 -19 -1z"/>
<path d="M6260 7217 c0 -2 19 -17 43 -32 23 -16 37 -22 30 -14 -12 15 -73 53
-73 46z"/>
<path d="M7784 7188 c-3 -4 -1 -8 5 -8 6 0 8 -7 5 -15 -9 -22 2 -18 19 8 14
21 13 23 -5 23 -11 0 -22 -4 -24 -8z"/>
<path d="M7744 7149 c-16 -17 -16 -22 -4 -30 13 -8 11 -12 -7 -28 -13 -11 -23
-23 -23 -27 0 -4 -7 -15 -15 -24 -14 -15 -14 -18 -1 -23 10 -4 13 -1 10 8 -3
7 4 19 16 25 12 6 19 14 16 18 -4 3 6 19 21 34 19 20 22 27 10 23 -14 -6 -16
-3 -10 11 3 11 11 22 17 26 8 6 8 8 0 8 -6 0 -19 -9 -30 -21z"/>
<path d="M4980 7080 c-27 -6 -20 -7 32 -6 36 0 64 4 61 9 -5 8 -44 7 -93 -3z"/>
<path d="M5135 7080 c3 -5 10 -10 16 -10 5 0 9 5 9 10 0 6 -7 10 -16 10 -8 0
-12 -4 -9 -10z"/>
<path d="M5180 7080 c0 -5 5 -10 10 -10 6 0 10 5 10 10 0 6 -4 10 -10 10 -5 0
-10 -4 -10 -10z"/>
<path d="M7686 6985 c-9 -26 -7 -32 5 -12 6 10 9 21 6 23 -2 3 -7 -2 -11 -11z"/>
<path d="M7661 6913 c-6 -21 -11 -46 -11 -55 0 -22 41 -108 52 -108 4 0 8 -9
8 -19 0 -11 5 -23 11 -27 17 -10 1 32 -26 72 -31 46 -39 84 -26 130 6 21 9 40
6 42 -2 2 -8 -13 -14 -35z"/>
<path d="M7502 6887 c10 -8 15 -16 13 -19 -3 -3 3 -11 12 -19 16 -12 17 -12 6
2 -7 9 -10 18 -7 22 3 3 -5 10 -18 17 -20 10 -21 10 -6 -3z"/>
<path d="M7550 6836 c0 -2 8 -10 18 -17 15 -13 16 -12 3 4 -13 16 -21 21 -21
13z"/>
<path d="M7590 6780 c6 -11 8 -25 5 -30 -4 -6 -2 -9 3 -8 5 2 19 -8 31 -22 13
-15 8 -3 -10 28 -31 50 -51 73 -29 32z"/>
<path d="M2450 6750 c-6 -11 -8 -20 -6 -20 3 0 10 9 16 20 6 11 8 20 6 20 -3
0 -10 -9 -16 -20z"/>
<path d="M7727 6677 c-3 -9 -2 -17 4 -17 6 0 7 -5 4 -10 -3 -6 4 -23 16 -38
l21 -27 -7 25 c-4 14 -13 38 -19 55 -10 24 -13 26 -19 12z"/>
<path d="M4890 6659 c-23 -5 5 -7 77 -5 73 2 113 0 116 -7 2 -6 6 -3 10 6 6
15 -3 17 -81 16 -48 -1 -103 -5 -122 -10z"/>
<path d="M6836 6653 c-11 -11 -6 -23 9 -23 8 0 15 4 15 9 0 13 -16 22 -24 14z"/>
<path d="M2360 6646 c0 -2 7 -7 16 -10 8 -3 12 -2 9 4 -6 10 -25 14 -25 6z"/>
<path d="M4798 6643 c6 -2 18 -2 25 0 6 3 1 5 -13 5 -14 0 -19 -2 -12 -5z"/>
<path d="M7820 6620 c6 -11 13 -20 16 -20 2 0 0 9 -6 20 -6 11 -13 20 -16 20
-2 0 0 -9 6 -20z"/>
<path d="M7685 6593 c8 -18 18 -33 20 -33 10 0 4 16 -16 40 l-20 25 16 -32z"/>
<path d="M7770 6574 c0 -13 57 -104 66 -104 4 0 2 6 -4 13 -6 6 -22 32 -36 57
-14 25 -26 40 -26 34z"/>
<path d="M5021 6550 c14 -31 19 -36 19 -24 0 6 -7 19 -16 30 -14 18 -14 18 -3
-6z"/>
<path d="M2296 6535 c-15 -22 -26 -26 -106 -40 -8 -2 -40 1 -70 6 -109 17
-160 21 -160 10 0 -6 3 -11 6 -11 4 0 52 -7 107 -16 133 -21 194 -14 233 28
16 17 23 27 15 23 -11 -6 -13 -4 -8 8 9 24 2 21 -17 -8z m14 -9 c0 -2 -8 -10
-17 -17 -16 -13 -17 -12 -4 4 13 16 21 21 21 13z"/>
<path d="M8281 6424 c27 -69 49 -127 49 -130 0 -2 -8 -4 -17 -4 -14 0 -12 -5
9 -23 20 -16 30 -37 37 -77 11 -66 11 -66 -107 -156 -99 -74 -122 -102 -129
-152 -4 -33 21 -189 33 -201 2 -2 4 37 4 87 0 50 5 102 11 116 11 23 66 71
181 156 66 50 75 68 60 137 -15 72 -99 298 -126 340 -11 18 -28 33 -37 33 -14
0 -8 -22 32 -126z"/>
<path d="M7736 6497 c3 -10 9 -15 12 -12 3 3 0 11 -7 18 -10 9 -11 8 -5 -6z"/>
<path d="M5049 6473 c0 -5 -2 -18 -3 -30 -2 -13 1 -23 6 -23 4 0 8 14 8 30 0
26 -8 44 -11 23z"/>
<path d="M7761 6450 c14 -31 19 -36 19 -24 0 6 -7 19 -16 30 -14 18 -14 18 -3
-6z"/>
<path d="M5030 6371 c0 -7 -4 -10 -9 -7 -5 3 -14 -1 -21 -9 -10 -12 -9 -15 8
-15 19 0 38 27 27 38 -3 3 -5 0 -5 -7z"/>
<path d="M8270 6300 c0 -5 5 -10 11 -10 5 0 7 5 4 10 -3 6 -8 10 -11 10 -2 0
-4 -4 -4 -10z"/>
<path d="M6512 6260 c31 -37 131 -181 185 -266 6 -11 12 -14 12 -7 2 22 -168
263 -210 298 -13 11 -7 0 13 -25z"/>
<path d="M1761 6041 c4 -11 28 -27 84 -54 18 -8 18 -8 5 5 -25 25 -93 62 -89
49z"/>
<path d="M1870 5970 c0 -5 5 -10 11 -10 5 0 7 5 4 10 -3 6 -8 10 -11 10 -2 0
-4 -4 -4 -10z"/>
<path d="M1909 5941 c7 -11 15 -21 19 -21 4 0 24 -16 44 -35 46 -45 51 -79 26
-178 -11 -43 -18 -80 -15 -83 2 -2 14 34 27 82 34 129 24 163 -68 226 -38 26
-42 27 -33 9z"/>
<path d="M6757 5879 c22 -43 39 -68 41 -58 2 9 -8 34 -22 55 -50 77 -56 78
-19 3z"/>
<path d="M8031 5684 c0 -11 3 -14 6 -6 3 7 2 16 -1 19 -3 4 -6 -2 -5 -13z"/>
<path d="M8159 5655 c-3 -11 1 -40 8 -64 7 -24 14 -57 15 -73 1 -16 6 -32 12
-35 11 -7 -1 92 -18 150 -10 31 -14 37 -17 22z"/>
<path d="M8224 5431 c7 -11 46 -35 46 -28 0 3 -12 12 -26 22 -15 9 -23 12 -20
6z"/>
<path d="M3532 5405 c0 -16 2 -22 5 -12 2 9 2 23 0 30 -3 6 -5 -1 -5 -18z"/>
<path d="M7067 5419 c7 -7 15 -10 18 -7 3 3 -2 9 -12 12 -14 6 -15 5 -6 -5z"/>
<path d="M6651 5394 c0 -11 3 -14 6 -6 3 7 2 16 -1 19 -3 4 -6 -2 -5 -13z"/>
<path d="M1760 5370 c-18 -12 -2 -12 25 0 13 6 15 9 5 9 -8 0 -22 -4 -30 -9z"/>
<path d="M1697 5364 c-2 -3 -17 -7 -33 -10 -53 -9 -65 -31 -68 -127 -1 -64 1
-87 10 -87 9 0 13 19 12 63 -1 77 9 127 27 127 8 0 26 5 42 12 15 6 34 10 41
9 6 -1 12 2 12 6 0 9 -35 15 -43 7z"/>
<path d="M3527 5363 c-16 -15 -5 -53 19 -72 32 -25 117 -28 209 -6 46 11 50
13 15 8 -105 -14 -199 -13 -215 3 -13 13 -20 42 -16 67 1 9 -4 9 -12 0z"/>
<path d="M8091 5304 c0 -11 3 -14 6 -6 3 7 2 16 -1 19 -3 4 -6 -2 -5 -13z"/>
<path d="M6672 5285 c0 -16 2 -22 5 -12 2 9 2 23 0 30 -3 6 -5 -1 -5 -18z"/>
<path d="M6681 5095 c-3 -127 -13 -168 -49 -204 -17 -17 -35 -31 -40 -31 -5 0
-12 -7 -16 -15 -3 -10 1 -15 11 -15 9 0 14 3 10 6 -7 7 46 54 61 54 6 0 12 -6
15 -12 7 -21 19 171 15 242 -4 60 -4 58 -7 -25z"/>
<path d="M8541 5170 c0 -8 4 -22 9 -30 12 -18 12 -2 0 25 -6 13 -9 15 -9 5z"/>
<path d="M1594 5043 c3 -38 5 -71 5 -75 1 -5 4 -8 9 -8 4 0 6 28 6 63 -2 86
-3 87 -15 87 -7 0 -9 -23 -5 -67z"/>
<path d="M8540 5015 c0 -84 -2 -96 -16 -91 -8 3 -13 2 -10 -2 6 -10 -67 -44
-169 -78 -109 -38 -141 -64 -160 -129 -9 -31 -18 -70 -20 -88 -7 -72 -28 -167
-36 -167 -5 0 -9 -8 -9 -19 0 -23 -30 -52 -31 -30 0 8 -4 5 -9 -6 -10 -23 -13
-5 -4 19 5 13 9 14 23 4 9 -6 7 -2 -4 10 -14 15 -27 20 -43 15 -17 -4 -20 -8
-11 -19 10 -12 8 -160 -3 -203 -1 -7 3 -16 11 -19 10 -3 12 0 8 13 -14 35 6
34 24 -2 25 -50 25 -52 -18 -48 -24 2 -32 0 -22 -6 11 -7 11 -9 1 -9 -10 0
-10 -4 2 -16 22 -21 21 -55 -1 -47 -11 5 -14 3 -8 -6 4 -8 2 -17 -6 -22 -11
-7 -11 -9 -1 -9 7 0 10 -4 7 -10 -3 -5 -1 -10 5 -10 7 0 8 -6 0 -19 -9 -17 -7
-19 13 -17 13 1 28 6 35 10 7 4 12 4 12 -1 1 -4 7 7 15 25 8 17 19 32 25 32
14 0 13 -17 -2 -24 -7 -3 1 -3 17 0 21 4 26 3 16 -4 -7 -5 -10 -15 -6 -21 5
-9 11 -9 22 1 14 11 15 10 9 -9 -5 -15 -2 -24 11 -32 10 -5 14 -13 9 -18 -5
-4 -11 -2 -13 5 -3 7 -20 12 -41 11 -20 -1 -29 -3 -19 -6 9 -2 15 -8 13 -12
-3 -4 1 -8 9 -8 8 0 15 5 15 11 0 6 4 5 9 -2 5 -8 20 -15 35 -15 29 -2 34 -14
10 -24 -9 -3 -20 0 -24 7 -11 17 -18 1 -15 -37 1 -18 -2 -30 -6 -27 -5 3 -6
-13 -3 -35 5 -37 4 -41 -20 -47 -14 -3 -33 -4 -41 0 -8 3 -18 -2 -23 -11 -6
-11 -11 -12 -16 -4 -5 8 -13 8 -27 0 -28 -15 -95 -4 -126 21 -14 11 -33 20
-41 20 -36 0 -84 -49 -139 -142 -32 -53 -60 -95 -64 -93 -3 2 -6 -1 -6 -8 0
-21 -35 -67 -46 -60 -6 3 -7 1 -3 -5 11 -18 -4 -37 -16 -21 -7 10 -7 7 -3 -8
4 -15 0 -28 -14 -42 -10 -10 -17 -21 -15 -24 3 -2 -8 -18 -24 -35 -16 -17 -27
-34 -24 -37 3 -3 0 -5 -6 -5 -7 0 -11 -3 -10 -7 4 -17 -33 -73 -44 -67 -6 4
-8 3 -4 -4 3 -6 -17 -44 -46 -85 -51 -72 -81 -121 -87 -142 -5 -19 -23 -35
-39 -35 -8 0 -13 3 -9 6 6 6 -16 34 -27 34 -4 0 -86 -80 -184 -178 -97 -98
-213 -207 -257 -242 -90 -73 -125 -128 -125 -196 0 -24 -5 -55 -10 -70 -21
-55 -102 -112 -139 -99 -9 3 -33 28 -54 56 -46 60 -68 63 -165 18 -263 -121
-612 -230 -897 -280 -116 -21 -161 -24 -425 -24 -269 0 -348 5 -490 31 -20 3
-22 2 -8 -6 60 -37 612 -58 818 -31 158 20 344 60 496 106 162 50 410 138 466
166 42 21 73 25 62 7 -4 -7 -3 -8 5 -4 6 4 9 11 6 16 -7 12 22 33 36 24 8 -4
9 -3 5 4 -5 8 2 12 22 12 30 0 62 -26 66 -54 3 -19 49 -56 71 -56 23 0 74 28
99 54 34 36 46 63 46 108 1 72 46 168 72 152 4 -3 7 0 6 8 -2 7 3 12 10 10 8
-1 11 2 8 7 -10 16 21 33 42 22 14 -7 19 -7 19 4 0 7 -7 11 -16 8 -9 -2 -1 8
17 23 37 31 77 40 67 16 -4 -12 -3 -13 10 -2 23 19 18 33 -10 28 -31 -6 -31
-4 1 17 15 9 24 13 20 7 -3 -5 0 -12 8 -15 8 -3 17 0 20 8 3 8 0 15 -5 17 -6
2 -3 14 8 27 l18 23 19 -21 c21 -23 37 -28 34 -9 -2 7 3 13 10 14 25 3 27 5
13 13 -10 7 -19 4 -29 -7 -12 -15 -13 -15 -9 6 5 20 3 21 -10 10 -14 -12 -15
-11 -5 9 l12 22 34 -22 c27 -18 31 -25 22 -39 -5 -9 -14 -14 -18 -12 -5 3 -11
-2 -14 -10 -3 -9 -10 -14 -15 -11 -4 3 -13 -4 -19 -15 -6 -11 -18 -20 -26 -20
-8 0 -12 -4 -9 -10 3 -5 2 -10 -3 -10 -6 0 -13 -7 -16 -16 -5 -13 -4 -14 7 -6
8 7 18 8 22 4 5 -4 5 -2 1 5 -4 7 3 17 15 24 18 9 21 9 16 -3 -3 -9 1 -15 9
-15 9 0 12 8 7 26 -4 20 -3 23 7 15 15 -14 10 -49 -8 -50 -6 -1 -17 -2 -23 -3
-5 0 -8 -5 -5 -10 3 -5 -1 -14 -8 -20 -9 -8 -16 -8 -20 -2 -4 5 2 12 11 14 15
4 15 5 2 6 -9 0 -24 -9 -35 -21 -10 -12 -13 -18 -6 -14 21 13 13 -12 -10 -28
-16 -12 -25 -13 -35 -4 -10 8 -17 8 -26 -1 -9 -10 -8 -11 4 -6 33 13 29 -14
-7 -41 -36 -28 -36 -29 -30 -86 3 -32 15 -92 26 -134 16 -64 18 -81 7 -103
-13 -28 -254 -183 -274 -176 -8 3 -10 -3 -4 -18 9 -25 9 -25 69 -13 23 4 42
13 42 19 0 5 3 7 7 4 3 -4 11 -1 17 7 6 7 43 30 81 51 88 47 128 75 187 127
32 29 32 40 -3 109 -10 19 -20 62 -24 95 -4 32 -9 67 -11 77 -9 31 6 54 67
102 33 26 94 79 135 117 86 79 104 88 188 90 54 2 67 -2 108 -30 67 -46 91
-43 152 21 83 87 159 177 183 216 37 58 31 81 -41 160 -127 138 -127 147 5
347 117 176 123 181 236 167 102 -12 188 -9 208 7 19 16 43 68 112 240 43 107
56 174 36 189 -5 3 -13 15 -19 26 -6 11 -21 25 -33 31 -35 18 -67 52 -114 123
-58 87 -61 99 -42 173 9 35 18 96 20 136 5 81 33 153 68 177 12 8 80 35 152
61 71 25 135 52 142 59 16 16 19 230 3 240 -6 4 -10 -29 -10 -90z m-457 -675
c3 -11 1 -18 -4 -14 -5 3 -9 12 -9 20 0 20 7 17 13 -6z m23 -35 c-3 -8 1 -21
9 -28 7 -8 10 -19 5 -26 -5 -9 -9 -6 -13 9 -3 12 -10 19 -16 16 -5 -4 -12 -2
-16 4 -3 5 -1 10 5 10 6 0 8 5 4 12 -4 7 -3 8 4 4 7 -4 12 -2 12 3 0 6 3 11 6
11 3 0 4 -7 0 -15z m161 -239 c-4 -11 -1 -13 11 -10 10 4 6 -4 -11 -20 -31
-29 -57 -34 -57 -11 0 8 -4 15 -10 15 -5 0 -10 6 -10 14 0 9 9 13 24 12 14 -2
30 1 38 5 18 12 21 11 15 -5z m-37 -166 c0 -5 -2 -10 -4 -10 -3 0 -8 5 -11 10
-3 6 -1 10 4 10 6 0 11 -4 11 -10z m-1120 -1100 c0 -5 -2 -10 -4 -10 -3 0 -8
5 -11 10 -3 6 -1 10 4 10 6 0 11 -4 11 -10z m20 -115 c-7 -9 -15 -13 -18 -10
-3 3 -12 -1 -21 -8 -14 -11 -14 -10 -2 5 7 10 17 16 21 13 5 -3 11 -1 15 5 3
5 9 10 12 10 3 0 0 -7 -7 -15z"/>
<path d="M6362 5020 c0 -14 2 -19 5 -12 2 6 2 18 0 25 -3 6 -5 1 -5 -13z"/>
<path d="M1606 4942 c2 -3 0 -10 -6 -17 -6 -7 -4 -21 6 -40 14 -27 14 -31 -2
-42 -24 -17 -13 -26 65 -52 45 -15 67 -19 74 -12 16 16 31 13 18 -3 -9 -11 -7
-15 11 -20 35 -9 50 -7 42 6 -4 7 -3 8 5 4 6 -4 9 -11 6 -16 -3 -5 5 -12 17
-16 37 -12 49 -13 42 -2 -4 6 -1 9 7 6 8 -3 14 -9 15 -14 3 -30 25 -62 41 -60
18 3 20 38 2 44 -5 2 -7 8 -4 12 10 15 -36 40 -55 30 -14 -7 -21 -4 -32 12 -9
13 -25 21 -45 22 -17 0 -29 3 -27 6 3 2 -30 14 -73 25 -76 20 -78 21 -86 58
-5 20 -14 37 -20 37 -7 0 -5 5 3 10 10 6 12 12 4 18 -6 5 -9 7 -8 4z m319
-210 c-3 -3 -11 0 -18 7 -9 10 -8 11 6 5 10 -3 15 -9 12 -12z m5 -22 c0 -5 -2
-10 -4 -10 -3 0 -8 5 -11 10 -3 6 -1 10 4 10 6 0 11 -4 11 -10z"/>
<path d="M4452 4920 c0 -14 2 -19 5 -12 2 6 2 18 0 25 -3 6 -5 1 -5 -13z"/>
<path d="M6361 4924 c0 -11 3 -14 6 -6 3 7 2 16 -1 19 -3 4 -6 -2 -5 -13z"/>
<path d="M7728 4913 c6 -2 18 -2 25 0 6 3 1 5 -13 5 -14 0 -19 -2 -12 -5z"/>
<path d="M7923 4850 c0 -30 2 -43 4 -27 2 15 2 39 0 55 -2 15 -4 2 -4 -28z"/>
<path d="M7660 4849 c0 -6 -8 -9 -18 -7 -12 4 -18 -1 -18 -13 0 -13 4 -15 16
-9 37 22 42 27 31 34 -6 4 -11 2 -11 -5z"/>
<path d="M7595 4840 c-3 -5 -1 -10 4 -10 6 0 11 5 11 10 0 6 -2 10 -4 10 -3 0
-8 -4 -11 -10z"/>
<path d="M4815 4790 c21 -22 41 -40 44 -40 3 0 -13 18 -34 40 -21 22 -41 40
-44 40 -3 0 13 -18 34 -40z"/>
<path d="M6570 4808 c0 -7 -3 -24 -7 -37 -4 -18 -3 -22 6 -17 7 5 19 0 27 -10
14 -18 14 -18 5 3 -6 12 -11 33 -11 47 0 14 -4 26 -10 26 -5 0 -10 -6 -10 -12z"/>
<path d="M7677 4813 c-19 -18 -5 -32 30 -31 l36 1 -23 19 c-24 19 -33 22 -43
11z m28 -13 c3 -5 1 -10 -4 -10 -6 0 -11 5 -11 10 0 6 2 10 4 10 3 0 8 -4 11
-10z"/>
<path d="M4490 4794 c0 -6 7 -19 16 -30 14 -18 14 -18 3 6 -14 31 -19 36 -19
24z"/>
<path d="M6926 4775 c-4 -13 -2 -14 14 -5 11 6 26 8 32 4 7 -4 8 -3 4 4 -10
17 -43 15 -50 -3z"/>
<path d="M7911 4778 c0 -9 -4 -25 -7 -35 -5 -17 -5 -17 6 0 6 10 9 25 7 35 -4
15 -5 15 -6 0z"/>
<path d="M3800 4755 c-11 -13 -10 -14 4 -9 9 3 16 10 16 15 0 13 -6 11 -20 -6z"/>
<path d="M5215 4723 c-78 -33 -191 -35 -280 -5 -41 15 -53 16 -39 6 18 -12 21
-22 17 -57 -4 -45 8 -74 26 -63 16 10 14 26 -3 20 -15 -6 -15 4 -3 42 6 16 14
21 30 17 80 -18 97 -25 91 -35 -4 -7 -3 -8 5 -4 6 4 9 12 6 17 -4 5 1 9 9 9 9
0 16 -4 16 -9 0 -5 16 -5 38 0 52 12 52 12 40 -23 -20 -67 -20 -72 3 -28 27
51 60 72 107 67 35 -3 40 4 16 24 -8 7 -13 21 -11 31 6 22 6 22 -68 -9z"/>
<path d="M6647 4735 c-4 -8 -14 -15 -22 -15 -9 0 -13 -4 -10 -10 3 -5 10 -10
15 -10 11 0 34 40 27 46 -2 3 -7 -2 -10 -11z"/>
<path d="M6970 4708 c4 -24 13 -54 19 -68 l12 -25 -7 25 c-4 14 -9 44 -11 68
-3 23 -8 42 -12 42 -4 0 -5 -19 -1 -42z"/>
<path d="M3822 4698 c18 -84 90 -254 119 -283 5 -5 -8 29 -30 76 -23 48 -51
123 -63 168 -24 84 -43 113 -26 39z"/>
<path d="M3765 4698 c-8 -18 -23 -54 -34 -80 -19 -45 -22 -48 -58 -49 -29 0
-33 -2 -18 -8 44 -18 67 8 119 132 19 45 11 50 -9 5z"/>
<path d="M4540 4696 c0 -2 8 -10 18 -17 15 -13 16 -12 3 4 -13 16 -21 21 -21
13z"/>
<path d="M4610 4618 c41 -45 50 -53 50 -45 0 2 -21 23 -47 47 l-48 45 45 -47z"/>
<path d="M1940 4642 c0 -5 3 -11 6 -15 3 -3 7 -29 9 -58 1 -35 8 -56 19 -65 9
-6 13 -14 7 -15 -6 -3 -5 -24 3 -59 11 -49 12 -144 2 -192 -6 -27 2 -22 24 15
27 44 26 104 -6 265 -23 112 -30 132 -45 132 -11 0 -19 -4 -19 -8z m70 -196
c0 -3 -4 -8 -10 -11 -5 -3 -10 -1 -10 4 0 6 5 11 10 11 6 0 10 -2 10 -4z"/>
<path d="M5030 4579 c-7 -19 -20 -42 -29 -52 -8 -10 -11 -18 -6 -17 20 4 29
-1 17 -9 -11 -7 -10 -9 3 -14 9 -4 13 -3 10 2 -3 5 -1 12 5 16 5 3 10 2 10 -2
0 -5 9 -9 19 -9 15 0 18 6 14 25 l-4 26 28 -25 c24 -21 25 -22 9 -2 -15 17
-16 22 -5 22 10 1 9 4 -4 11 -9 6 -15 14 -12 20 6 8 -1 10 -22 8 -4 0 -10 7
-13 17 -5 13 -9 10 -20 -17z m50 -25 c11 -12 11 -15 -1 -12 -8 2 -13 -4 -13
-14 1 -10 -2 -18 -7 -18 -5 0 -9 5 -9 11 0 5 -4 7 -10 4 -5 -3 -10 3 -10 14 0
17 11 28 31 30 4 1 12 -6 19 -15z"/>
<path d="M3570 4580 c0 -14 53 -145 94 -231 59 -125 242 -379 293 -407 9 -6
41 -1 84 11 55 16 74 18 94 9 29 -13 32 -38 9 -63 -12 -14 -13 -22 -4 -38 12
-23 25 -27 35 -11 3 6 12 10 18 10 8 0 8 -3 -1 -9 -16 -10 -15 -18 4 -46 8
-11 14 -35 14 -55 0 -34 2 -36 100 -88 56 -30 108 -51 116 -48 8 3 13 2 10 -2
-14 -22 231 -99 404 -127 83 -13 431 -23 419 -11 -2 2 -58 5 -124 7 -66 2
-122 7 -125 11 -3 4 -93 25 -200 47 -245 51 -240 49 -240 72 0 11 4 19 8 19 5
0 9 7 9 16 0 14 -2 14 -14 -2 -7 -10 -13 -24 -13 -32 0 -9 -7 -11 -22 -6 -43
13 -132 59 -135 69 -5 17 57 75 81 75 12 0 45 -6 73 -13 42 -11 50 -11 46 0
-5 12 -18 17 -37 14 -5 -1 -6 4 -3 12 4 10 -1 13 -21 9 -20 -4 -24 -2 -19 12
4 11 1 16 -11 17 -10 0 -12 3 -5 6 10 4 10 7 0 16 -16 16 -83 57 -128 80 -20
10 -47 29 -60 41 -13 12 -30 21 -37 18 -7 -2 -28 6 -48 17 -20 12 -39 19 -44
16 -5 -3 -12 0 -16 6 -5 8 -3 9 6 4 9 -6 11 -4 6 4 -5 7 -15 9 -25 5 -9 -3
-27 -7 -41 -8 -14 -1 -31 -6 -38 -10 -7 -4 -16 -5 -21 -1 -6 3 -15 -3 -20 -13
-19 -35 -48 -33 -86 6 -19 20 -33 43 -30 50 3 7 1 11 -4 8 -14 -9 -64 45 -133
142 -64 90 -100 148 -104 167 -1 6 -22 54 -48 107 -26 54 -43 103 -40 112 4
11 1 16 -10 16 -9 0 -16 -4 -16 -10z"/>
<path d="M4890 4552 c-36 -32 -40 -38 -22 -39 15 -1 19 3 15 14 -4 11 -2 14 6
9 6 -4 10 -3 9 2 -2 5 8 19 22 30 14 12 22 21 19 22 -4 0 -26 -17 -49 -38z"/>
<path d="M4705 4540 c-5 -8 -4 -11 2 -7 6 4 13 0 16 -8 8 -18 84 -58 91 -46 3
5 0 13 -7 19 -14 11 -61 27 -64 21 -1 -2 -8 5 -16 15 -11 15 -16 16 -22 6z"/>
<path d="M5132 4495 c0 -16 2 -22 5 -12 2 9 2 23 0 30 -3 6 -5 -1 -5 -18z"/>
<path d="M5090 4490 c0 -5 5 -10 11 -10 5 0 7 5 4 10 -3 6 -8 10 -11 10 -2 0
-4 -4 -4 -10z"/>
<path d="M5330 4490 c-13 -9 -13 -10 0 -10 13 0 13 -1 0 -11 -12 -8 -12 -10
-1 -7 8 2 15 12 17 21 3 20 3 19 -16 7z"/>
<path d="M6582 4473 c26 -3 38 -10 41 -24 4 -15 4 -14 3 3 -1 20 -7 23 -41 24
l-40 1 37 -4z"/>
<path d="M4840 4455 c14 -8 30 -14 35 -14 6 0 -1 6 -15 14 -14 8 -29 14 -35
14 -5 0 1 -6 15 -14z"/>
<path d="M4898 4433 c6 -2 18 -2 25 0 6 3 1 5 -13 5 -14 0 -19 -2 -12 -5z"/>
<path d="M5177 4430 c-41 -8 -62 -21 -31 -19 10 0 42 7 69 14 53 13 25 18 -38
5z"/>
<path d="M7804 4418 c-36 -41 -75 -116 -54 -103 6 3 10 11 10 16 0 20 52 90
73 99 14 6 16 9 6 9 -8 1 -24 -9 -35 -21z"/>
<path d="M3950 4393 c0 -6 8 -17 18 -24 16 -13 16 -13 2 6 -8 11 -16 22 -17
24 -2 2 -3 0 -3 -6z"/>
<path d="M6600 4347 c0 -20 4 -38 9 -42 6 -3 7 10 4 32 -8 50 -13 55 -13 10z"/>
<path d="M3804 4343 c4 -7 2 -13 -3 -13 -6 0 -11 -7 -11 -15 0 -9 9 -15 21
-15 19 0 20 2 8 17 -8 9 -12 18 -11 20 2 3 0 8 -4 11 -4 4 -4 1 0 -5z"/>
<path d="M6499 4321 c-1 -3 -1 -9 0 -13 0 -4 -8 -10 -19 -13 -10 -3 -24 -22
-30 -43 -7 -20 -18 -47 -26 -58 -12 -19 -11 -21 4 -17 9 2 31 32 47 66 27 56
33 62 61 62 17 0 30 4 28 10 -5 11 -63 16 -65 6z"/>
<path d="M3748 4308 c5 -5 16 -8 23 -6 8 3 3 7 -10 11 -17 4 -21 3 -13 -5z"/>
<path d="M7711 4245 c-12 -31 -21 -61 -20 -68 0 -7 11 17 24 53 13 35 22 66
20 68 -1 2 -12 -22 -24 -53z"/>
<path d="M4020 4286 c0 -2 8 -10 18 -17 15 -13 16 -12 3 4 -13 16 -21 21 -21
13z"/>
<path d="M6567 4257 l-4 -29 18 23 c22 29 23 36 5 36 -8 0 -16 -13 -19 -30z"/>
<path d="M6671 4244 c0 -11 3 -14 6 -6 3 7 2 16 -1 19 -3 4 -6 -2 -5 -13z"/>
<path d="M4065 4230 c10 -11 20 -20 23 -20 3 0 -3 9 -13 20 -10 11 -20 20 -23
20 -3 0 3 -9 13 -20z"/>
<path d="M4108 4179 c12 -14 19 -29 15 -33 -5 -4 -3 -7 2 -6 22 5 29 -1 15
-11 -12 -8 -11 -9 5 -7 12 2 19 -2 17 -10 -3 -17 60 -73 77 -67 9 4 11 0 7
-10 -3 -9 0 -15 8 -15 7 0 21 -10 32 -21 23 -26 121 -93 149 -102 20 -7 20 -7
1 8 -11 8 -16 15 -12 15 4 0 -26 22 -67 50 -41 27 -119 91 -173 142 -55 51
-89 81 -76 67z m87 -89 c10 -11 16 -20 13 -20 -3 0 -13 9 -23 20 -10 11 -16
20 -13 20 3 0 13 -9 23 -20z"/>
<path d="M1832 4123 c-78 -52 -96 -85 -70 -126 12 -20 63 -138 120 -282 29
-73 51 -117 67 -132 11 -11 41 -13 145 -8 l131 6 38 -36 c66 -63 189 -263 201
-327 9 -48 -1 -67 -79 -148 -34 -36 -65 -76 -69 -88 -12 -35 2 -89 29 -118 14
-15 25 -31 25 -37 0 -5 21 -31 48 -56 53 -53 97 -102 160 -178 24 -29 48 -53
54 -53 9 0 76 49 106 77 8 7 17 11 22 8 5 -3 11 -1 15 5 12 20 86 10 139 -17
28 -16 53 -31 54 -35 2 -5 10 -8 17 -8 7 0 37 -22 66 -50 29 -27 56 -50 59
-50 3 0 12 -9 20 -20 8 -11 19 -20 25 -20 6 0 16 -9 23 -20 7 -11 19 -20 27
-20 29 0 31 -59 6 -140 -9 -31 -9 -33 4 -16 8 11 22 40 32 65 9 25 25 53 35
63 23 20 16 57 -15 86 -33 29 -314 240 -338 253 -31 16 -87 2 -117 -29 -14
-15 -22 -21 -17 -13 4 7 -6 4 -24 -8 -17 -11 -45 -30 -62 -42 l-30 -20 -45 37
c-58 47 -162 168 -225 261 -27 40 -49 74 -49 76 0 3 17 25 38 50 20 26 53 76
71 112 43 83 39 107 -30 229 -97 169 -150 246 -182 262 -34 18 -127 20 -186 4
-57 -15 -90 -9 -110 20 -22 31 -171 401 -171 423 0 14 48 57 106 94 11 6 16
12 13 12 -3 1 -38 -20 -77 -46z"/>
<path d="M6394 4135 c-9 -14 -15 -27 -13 -30 3 -2 12 10 21 26 21 36 15 39 -8
4z"/>
<path d="M7682 4140 c0 -14 2 -19 5 -12 2 6 2 18 0 25 -3 6 -5 1 -5 -13z"/>
<path d="M5991 4104 c0 -11 3 -14 6 -6 3 7 2 16 -1 19 -3 4 -6 -2 -5 -13z"/>
<path d="M7670 4083 c0 -16 -9 -46 -19 -68 -22 -48 -114 -194 -181 -285 -26
-36 -55 -81 -64 -100 -9 -19 -11 -27 -4 -16 7 10 37 53 67 95 62 88 161 242
184 287 21 41 38 114 26 114 -5 0 -9 -12 -9 -27z"/>
<path d="M4020 4080 c-13 -8 -13 -11 -1 -22 11 -11 13 -11 6 0 -5 10 -1 13 15
10 14 -2 25 3 27 12 4 13 3 13 -6 0 -7 -10 -11 -11 -11 -2 0 14 -9 15 -30 2z"/>
<path d="M6188 4083 c6 -2 18 -2 25 0 6 3 1 5 -13 5 -14 0 -19 -2 -12 -5z"/>
<path d="M6607 3981 c-95 -137 -347 -385 -482 -473 -134 -88 -211 -128 -249
-128 -20 0 -26 -3 -18 -9 9 -5 -23 -22 -93 -50 -124 -49 -263 -86 -395 -107
-120 -19 -388 -26 -500 -13 -112 13 -286 52 -396 89 -48 17 -84 26 -79 21 16
-14 219 -79 303 -97 42 -8 86 -18 97 -20 32 -7 204 -19 273 -19 34 0 62 -4 62
-8 0 -5 5 -5 10 -2 6 4 43 8 83 11 40 2 83 6 97 9 14 3 41 8 60 11 109 19 262
64 410 121 36 14 76 26 90 27 14 1 43 14 65 28 22 14 74 41 116 61 41 19 81
43 88 51 8 9 18 16 22 16 5 0 26 15 45 33 20 17 40 32 45 32 5 0 9 5 10 10 1
15 27 27 41 19 6 -4 8 -3 5 3 -4 6 11 29 32 52 21 22 36 41 32 41 -3 0 -1 4 4
8 6 4 43 46 83 94 40 48 76 88 81 90 4 2 27 32 51 68 63 93 86 106 124 67 30
-30 31 -18 1 13 -15 16 -32 27 -36 25 -4 -3 -9 1 -11 9 -2 8 -34 -30 -71 -83z"/>
<path d="M3962 4051 c-8 -5 -12 -16 -10 -25 2 -12 6 -10 15 9 6 14 10 25 10
25 -1 0 -8 -4 -15 -9z"/>
<path d="M8122 4013 c4 -22 38 -30 38 -10 0 8 -7 18 -16 21 -23 9 -26 8 -22
-11z"/>
<path d="M6258 3995 c-3 -5 -13 -27 -22 -49 -14 -33 -14 -37 -1 -26 8 7 15 18
15 25 0 8 5 15 11 17 6 2 10 13 7 23 -2 11 -6 16 -10 10z"/>
<path d="M6289 3983 c-13 -16 -12 -17 4 -4 16 13 21 21 13 21 -2 0 -10 -8 -17
-17z"/>
<path d="M8050 3996 c0 -2 11 -11 25 -20 28 -19 33 -15 9 8 -14 15 -34 22 -34
12z"/>
<path d="M4256 3978 c3 -5 10 -6 15 -3 13 9 11 12 -6 12 -8 0 -12 -4 -9 -9z"/>
<path d="M6760 3965 c0 -5 5 -17 10 -25 5 -8 10 -10 10 -5 0 6 -5 17 -10 25
-5 8 -10 11 -10 5z"/>
<path d="M6782 3900 c0 -14 2 -19 5 -12 2 6 2 18 0 25 -3 6 -5 1 -5 -13z"/>
<path d="M8160 3880 c0 -5 5 -10 10 -10 6 0 10 5 10 10 0 6 -4 10 -10 10 -5 0
-10 -4 -10 -10z"/>
<path d="M3740 3765 c19 -19 36 -35 39 -35 3 0 -10 16 -29 35 -19 19 -36 35
-39 35 -3 0 10 -16 29 -35z"/>
<path d="M4600 3688 c-10 -21 -10 -21 3 -6 8 10 18 14 22 10 5 -4 5 -1 1 6
-10 17 -14 15 -26 -10z"/>
<path d="M3860 3645 c19 -19 36 -35 39 -35 3 0 -10 16 -29 35 -19 19 -36 35
-39 35 -3 0 10 -16 29 -35z"/>
<path d="M6463 3604 c-16 -16 -17 -34 -2 -34 5 0 8 4 5 9 -4 5 -1 11 5 13 7 2
10 9 8 15 -3 7 -8 7 -16 -3z"/>
<path d="M7371 3564 c-12 -27 -11 -28 4 -12 10 9 16 21 13 28 -2 7 -10 -1 -17
-16z"/>
<path d="M7335 3520 c3 -5 8 -10 11 -10 2 0 4 5 4 10 0 6 -5 10 -11 10 -5 0
-7 -4 -4 -10z"/>
<path d="M5293 3483 c9 -2 25 -2 35 0 9 3 1 5 -18 5 -19 0 -27 -2 -17 -5z"/>
<path d="M5540 3435 c0 -7 61 -37 66 -33 2 3 -12 12 -31 21 -19 9 -35 15 -35
12z"/>
<path d="M5658 3383 c7 -3 16 -2 19 1 4 3 -2 6 -13 5 -11 0 -14 -3 -6 -6z"/>
<path d="M3540 3360 c9 -17 30 -20 30 -4 0 3 -5 2 -12 -2 -8 -5 -9 -2 -5 9 4
11 1 17 -9 17 -12 0 -13 -4 -4 -20z"/>
<path d="M5703 3373 c9 -2 23 -2 30 0 6 3 -1 5 -18 5 -16 0 -22 -2 -12 -5z"/>
<path d="M5778 3363 c12 -2 32 -2 45 0 12 2 2 4 -23 4 -25 0 -35 -2 -22 -4z"/>
<path d="M5920 3332 c0 -4 10 -13 23 -21 22 -14 22 -14 3 8 -20 22 -26 25 -26
13z"/>
<path d="M3561 3314 c0 -11 3 -14 6 -6 3 7 2 16 -1 19 -3 4 -6 -2 -5 -13z"/>
<path d="M3590 3175 c7 -9 15 -13 17 -11 7 7 -7 26 -19 26 -6 0 -6 -6 2 -15z"/>
<path d="M3480 3109 c-40 -51 -65 -117 -57 -150 3 -12 1 -17 -5 -13 -7 5 -9
-2 -5 -17 3 -13 9 -41 13 -62 4 -27 10 -35 17 -28 7 7 7 14 0 23 -10 12 -9 39
1 146 4 40 41 112 58 112 4 0 12 9 18 20 19 35 2 22 -40 -31z"/>
<path d="M3630 3146 c0 -2 8 -10 18 -17 15 -13 16 -12 3 4 -13 16 -21 21 -21
13z"/>
<path d="M5181 3124 c0 -11 3 -14 6 -6 3 7 2 16 -1 19 -3 4 -6 -2 -5 -13z"/>
<path d="M4596 3111 c-3 -4 6 -6 19 -3 14 2 25 6 25 8 0 8 -39 4 -44 -5z"/>
<path d="M4697 3084 c11 -11 24 -28 26 -39 5 -16 5 -15 4 4 -1 13 -13 30 -27
39 l-25 14 22 -18z"/>
<path d="M4551 3070 c-13 -11 -19 -20 -14 -20 6 0 18 9 28 20 23 25 17 25 -14
0z"/>
<path d="M3720 3076 c0 -3 9 -10 20 -16 11 -6 20 -8 20 -6 0 3 -9 10 -20 16
-11 6 -20 8 -20 6z"/>
<path d="M3860 2986 c0 -3 9 -10 20 -16 11 -6 20 -8 20 -6 0 3 -9 10 -20 16
-11 6 -20 8 -20 6z"/>
<path d="M5697 2943 c-10 -9 -9 -23 1 -23 5 0 9 7 9 15 0 17 -1 18 -10 8z"/>
<path d="M5976 2921 c-3 -5 2 -15 12 -22 9 -7 14 -9 10 -5 -4 5 -3 15 3 23 9
10 8 13 -4 13 -9 0 -18 -4 -21 -9z"/>
<path d="M3444 2816 c-7 -17 17 -65 42 -87 32 -28 85 -51 203 -88 l113 -36 17
-45 c10 -25 23 -44 30 -42 7 1 9 -2 6 -9 -4 -6 10 -29 32 -52 22 -23 62 -69
88 -102 26 -33 52 -63 57 -66 5 -3 9 -9 8 -13 0 -3 4 -23 9 -43 6 -20 9 -39 7
-41 -7 -7 -91 20 -139 45 -27 13 -51 22 -54 20 -2 -3 19 -15 46 -28 28 -12 51
-28 51 -34 0 -6 -8 -27 -18 -47 l-18 -35 80 -23 c45 -12 104 -33 133 -46 63
-29 94 -34 101 -15 3 8 0 11 -7 7 -6 -4 -11 -3 -11 2 0 5 -11 7 -24 5 -21 -4
-23 -2 -19 20 3 14 -1 28 -7 32 -9 5 -10 1 -5 -14 5 -17 2 -21 -18 -21 -14 0
-27 7 -31 15 -3 9 0 15 10 15 8 0 17 7 20 15 7 16 44 21 44 5 0 -5 6 -7 14 -4
8 3 17 1 21 -5 3 -6 12 -11 20 -11 17 0 28 30 12 35 -6 2 -45 13 -85 25 -81
23 -107 45 -117 98 -4 21 -20 56 -35 80 -41 61 -132 162 -142 156 -4 -3 -5 1
-2 9 3 8 -3 21 -14 28 -21 15 -22 17 -22 53 0 28 -54 67 -95 70 -14 0 -25 4
-25 8 0 4 -7 5 -15 2 -8 -4 -15 -1 -15 6 0 7 -8 9 -20 5 -12 -4 -20 -2 -20 5
0 7 -8 10 -19 7 -11 -2 -24 3 -32 14 -15 21 -34 26 -24 7 4 -7 -1 -4 -9 6 -9
11 -26 20 -38 22 -13 1 -26 3 -30 3 -5 1 -8 6 -8 12 0 7 -8 18 -17 26 -10 8
-12 11 -4 7 9 -4 12 -2 9 7 -3 8 -11 13 -18 11 -7 -2 -9 5 -5 18 7 22 -3 28
-11 6z"/>
<path d="M3115 2740 c10 -11 20 -20 23 -20 3 0 -3 9 -13 20 -10 11 -20 20 -23
20 -3 0 3 -9 13 -20z"/>
<path d="M3532 2743 c14 -18 38 -16 38 2 0 10 -9 14 -24 13 -19 -2 -22 -5 -14
-15z"/>
<path d="M6995 2729 c-4 -6 -3 -15 3 -21 6 -6 11 -4 15 6 7 18 -9 31 -18 15z"/>
<path d="M3183 2686 c21 -20 42 -36 47 -36 5 0 17 -11 26 -25 9 -14 19 -23 22
-20 3 3 11 -4 19 -15 8 -11 18 -20 23 -20 5 0 69 -40 143 -90 75 -49 139 -90
143 -90 5 0 -49 38 -118 84 -69 46 -175 121 -234 166 -60 46 -92 66 -71 46z"/>
<path d="M4190 2609 c-15 -5 -33 -25 -42 -44 -20 -46 -7 -45 15 0 l17 35 105
-3 c83 -4 110 -8 125 -22 23 -21 25 -50 7 -85 -14 -26 -29 -75 -21 -68 2 3 17
29 32 58 15 30 30 53 35 52 4 -1 29 -2 55 -2 34 0 54 -6 69 -19 12 -11 24 -17
27 -14 3 4 6 -3 6 -14 0 -31 46 -63 98 -69 39 -5 56 -1 105 25 44 24 57 28 57
16 0 -8 5 -15 11 -15 16 0 79 -54 79 -68 0 -7 -6 -20 -14 -27 -18 -19 -185
-18 -262 2 -32 8 -63 14 -69 14 -51 1 -94 -7 -112 -19 -16 -10 -23 -11 -23 -3
0 7 -4 9 -10 6 -5 -3 -26 11 -46 32 -27 29 -35 33 -32 18 2 -11 26 -35 55 -53
l52 -34 -30 -40 c-16 -23 -29 -48 -29 -56 0 -8 18 12 39 46 23 35 54 68 72 77
29 16 36 16 93 0 35 -10 110 -19 178 -22 116 -4 116 -4 137 23 31 40 27 66
-13 88 -19 10 -45 29 -57 42 -28 30 -31 30 -81 -6 -31 -23 -52 -30 -85 -30
-41 0 -49 5 -96 53 -45 47 -59 55 -101 60 -27 4 -70 19 -95 34 -32 18 -62 28
-98 29 -29 1 -69 5 -90 7 -21 3 -49 2 -63 -4z"/>
<path d="M3950 2545 c14 -8 32 -14 40 -14 8 0 0 6 -19 14 -42 19 -54 19 -21 0z"/>
<path d="M4023 2523 c9 -2 23 -2 30 0 6 3 -1 5 -18 5 -16 0 -22 -2 -12 -5z"/>
<path d="M5728 2516 c-23 -17 -23 -22 2 -22 10 0 17 2 15 5 -3 2 0 10 6 18 15
17 -1 16 -23 -1z"/>
<path d="M5655 2490 c-3 -5 -1 -10 4 -10 6 0 11 5 11 10 0 6 -2 10 -4 10 -3 0
-8 -4 -11 -10z"/>
<path d="M3296 2347 c3 -10 9 -15 12 -12 3 3 0 11 -7 18 -10 9 -11 8 -5 -6z"/>
<path d="M3767 2299 c7 -7 15 -10 18 -7 3 3 -2 9 -12 12 -14 6 -15 5 -6 -5z"/>
<path d="M3163 2116 c-8 -26 -9 -44 -3 -51 6 -7 6 -16 2 -20 -4 -5 -2 -5 5 -1
7 4 18 -2 25 -14 7 -12 51 -44 98 -72 47 -28 91 -56 98 -61 31 -24 209 -92
233 -89 19 2 51 31 115 103 52 59 98 102 113 106 17 4 64 -7 140 -32 146 -49
228 -88 234 -112 15 -48 27 -144 27 -207 0 -39 4 -76 8 -83 13 -21 234 -57
422 -69 76 -5 98 -4 107 8 7 8 28 59 46 114 50 143 54 152 78 164 21 12 216
29 332 30 73 0 88 -15 153 -149 66 -134 79 -151 117 -151 74 0 363 65 405 90
17 11 37 34 45 52 36 84 37 88 28 156 -19 129 -19 160 -4 182 21 29 13 32 -28
12 -42 -21 -68 -73 -103 -207 -37 -141 -67 -169 -208 -190 -61 -9 -101 -21
-121 -35 -37 -28 -46 -20 -92 78 -56 119 -94 171 -135 182 -50 14 -362 13
-397 -1 -15 -7 -40 -11 -55 -10 -44 4 -64 -15 -109 -96 -23 -43 -47 -81 -53
-85 -17 -11 -45 1 -105 43 -45 32 -63 39 -102 39 -71 0 -88 22 -109 142 -6 34
-25 91 -41 126 -16 34 -29 69 -29 76 0 15 -18 31 -26 23 -2 -2 7 -28 22 -58
28 -54 64 -176 64 -217 0 -25 15 -56 45 -90 15 -18 28 -23 61 -21 30 2 50 -4
75 -21 19 -13 35 -28 37 -32 2 -4 28 -12 59 -19 54 -12 56 -12 73 12 10 13 18
27 19 32 1 19 55 106 62 101 5 -3 6 3 2 12 -4 12 -3 15 5 10 7 -4 12 -2 12 3
0 6 14 11 31 11 26 0 30 -3 24 -17 -5 -10 -27 -72 -50 -138 l-41 -120 -105 3
c-83 2 -348 35 -354 45 -1 1 -7 51 -14 111 -10 88 -18 118 -43 165 -44 79 -52
86 -121 112 -34 12 -64 25 -67 28 -3 3 -14 7 -25 8 -11 0 -53 11 -93 23 -45
13 -84 19 -100 15 -14 -3 -65 -44 -112 -91 -48 -46 -93 -84 -102 -84 -18 0
-198 75 -277 115 -96 48 -180 108 -183 130 -2 14 -7 9 -15 -19z m1114 -348
c-3 -7 -5 -2 -5 12 0 14 2 19 5 13 2 -7 2 -19 0 -25z m10 -95 c-2 -16 -4 -3
-4 27 0 30 2 43 4 28 2 -16 2 -40 0 -55z"/>
</g>
</svg>
