<?xml version="1.0" standalone="no"?>
<!DOCTYPE svg PUBLIC "-//W3C//DTD SVG 20010904//EN"
 "http://www.w3.org/TR/2001/REC-SVG-20010904/DTD/svg10.dtd">
<svg version="1.0" xmlns="http://www.w3.org/2000/svg"
 width="1024.000000pt" height="1024.000000pt" viewBox="0 0 1024.000000 1024.000000"
 preserveAspectRatio="xMidYMid meet">

<g transform="translate(0.000000,1024.000000) scale(0.100000,-0.100000)"
fill="#000000" stroke="none">
<path d="M5100 8803 c0 -5 7 -26 16 -48 15 -39 15 -39 9 -6 -3 18 -5 40 -5 47
0 8 -4 14 -10 14 -5 0 -10 -3 -10 -7z"/>
<path d="M5186 8610 c3 -14 11 -32 16 -40 6 -10 7 -7 2 10 -3 14 -11 32 -16
40 -6 10 -7 7 -2 -10z"/>
<path d="M5211 8545 c0 -5 6 -21 14 -35 8 -14 14 -20 14 -15 0 6 -6 21 -14 35
-8 14 -14 21 -14 15z"/>
<path d="M6532 8520 c0 -19 2 -27 5 -17 2 9 2 25 0 35 -3 9 -5 1 -5 -18z"/>
<path d="M4408 8233 c7 -3 16 -2 19 1 4 3 -2 6 -13 5 -11 0 -14 -3 -6 -6z"/>
<path d="M4371 8216 c-7 -8 -8 -17 -3 -20 6 -3 12 3 15 14 6 24 4 25 -12 6z"/>
<path d="M4390 8081 c0 -6 4 -12 8 -15 5 -3 9 1 9 9 0 8 -4 15 -9 15 -4 0 -8
-4 -8 -9z"/>
<path d="M5243 7799 c-6 -6 -60 -13 -119 -16 -125 -6 -149 -13 -48 -13 38 -1
85 -3 104 -5 123 -16 363 -45 374 -45 7 0 13 7 13 15 0 17 -14 20 -19 4 -2 -7
-13 -5 -31 4 -14 8 -23 18 -19 22 4 4 -2 3 -12 -2 -28 -16 -54 10 -34 34 12
15 11 15 -11 4 -12 -7 -32 -11 -42 -8 -12 3 -19 0 -19 -9 0 -8 -5 -14 -11 -14
-6 0 -9 7 -5 15 6 16 -5 18 -41 9 -13 -4 -20 -10 -17 -15 3 -5 0 -9 -5 -9 -6
0 -11 5 -11 10 0 6 -3 9 -7 9 -5 -1 -15 -1 -23 0 -13 1 -13 2 0 11 8 5 10 10
5 10 -6 0 -16 -5 -22 -11z"/>
<path d="M7623 7658 c-41 -93 -56 -137 -67 -193 -6 -27 -5 -28 6 -10 6 11 13
33 15 49 2 17 8 33 14 37 6 3 11 10 11 15 1 14 17 55 40 99 19 37 34 95 25 95
-2 0 -22 -42 -44 -92z"/>
<path d="M4368 7693 c6 -2 18 -2 25 0 6 3 1 5 -13 5 -14 0 -19 -2 -12 -5z"/>
<path d="M4838 7583 c-5 -59 -2 -65 24 -34 19 24 23 25 176 28 86 1 166 4 177
7 11 2 26 5 34 5 8 1 12 4 8 7 -3 3 -81 8 -174 11 -92 2 -181 8 -197 14 -43
14 -44 13 -48 -38z"/>
<path d="M4540 7554 c-345 -73 -559 -156 -826 -319 -521 -319 -896 -799 -1089
-1395 -166 -514 -165 -1127 1 -1642 91 -281 216 -517 402 -758 81 -105 240
-270 349 -361 113 -96 263 -200 276 -192 6 3 7 1 3 -5 -6 -11 -1 -14 20 -11 3
0 12 -8 20 -18 7 -10 14 -15 14 -10 0 4 9 -2 20 -13 12 -12 25 -18 30 -15 6 4
10 1 10 -4 0 -6 9 -11 20 -11 11 0 23 -6 26 -13 2 -7 16 -14 31 -15 14 -1 31
-6 37 -10 19 -15 46 -22 46 -12 0 5 -11 12 -25 16 -34 8 -21 24 19 24 49 0 96
19 146 58 60 48 128 119 135 142 3 10 22 25 43 34 67 30 87 43 84 55 -1 7 1
10 6 7 5 -3 19 6 32 19 13 13 27 22 33 18 6 -3 7 -1 4 4 -8 12 17 36 26 26 6
-6 11 11 8 29 0 4 30 -2 67 -13 37 -10 123 -34 191 -51 105 -28 124 -36 132
-56 11 -29 12 -65 1 -58 -5 3 -9 0 -9 -7 0 -7 -18 -42 -41 -79 -55 -89 -58
-106 -30 -147 13 -19 29 -36 36 -39 7 -2 1 8 -14 23 -35 35 -29 76 28 169 37
61 47 71 72 71 24 0 31 -6 47 -46 23 -61 11 -174 -22 -201 -21 -18 -7 -26 17
-10 10 7 38 75 39 97 1 6 6 20 13 32 16 29 15 33 -5 33 -9 0 -14 3 -11 6 4 3
0 21 -8 40 -8 19 -14 36 -14 39 -1 9 -12 40 -21 57 -5 10 -9 20 -9 22 0 4 298
10 365 8 11 0 61 -14 110 -31 50 -18 109 -34 133 -38 34 -5 42 -10 42 -27 0
-50 34 -144 75 -213 25 -41 45 -78 45 -82 0 -5 15 -24 33 -43 17 -19 40 -44
50 -57 17 -21 25 -23 70 -17 59 6 63 11 114 111 50 100 112 184 147 202 17 9
63 18 103 21 l71 5 -5 -60 c-3 -37 -2 -63 5 -67 10 -6 46 6 145 48 33 15 37
15 37 1 0 -9 -12 -21 -27 -28 -16 -6 -48 -25 -73 -40 -68 -44 -8 -23 72 25 37
22 75 38 86 36 20 -3 93 47 89 61 -2 8 52 65 63 66 3 0 23 17 45 37 22 20 54
48 70 63 l30 27 -35 -24 c-19 -12 -37 -23 -40 -23 -3 0 -18 -13 -35 -29 -39
-36 -85 -69 -85 -60 0 3 -7 1 -15 -6 -19 -16 -19 -17 -33 54 -8 42 -8 64 -1
78 11 20 10 20 -12 4 -13 -9 -28 -16 -34 -16 -5 0 -44 39 -85 86 -88 102 -130
126 -193 112 -23 -5 -53 -8 -67 -7 -45 2 -71 -1 -66 -9 4 -6 125 -8 151 -2 27
6 46 -3 77 -37 18 -21 61 -67 96 -102 34 -36 62 -67 62 -69 0 -2 -10 -2 -21 1
l-21 6 20 -20 c23 -20 37 -25 27 -9 -3 6 1 10 9 10 20 0 24 -42 9 -80 -7 -17
-10 -27 -12 -39 -1 -8 -56 -35 -76 -37 -5 0 -29 -6 -53 -13 -53 -15 -66 -8
-58 34 6 28 2 36 -25 59 -37 31 -43 32 -80 5 -24 -16 -33 -18 -44 -9 -19 16
-69 -1 -124 -41 -23 -16 -45 -29 -51 -29 -9 0 -15 -21 -11 -42 0 -5 -3 -8 -8
-8 -5 0 -13 -9 -16 -21 -4 -11 -9 -18 -12 -16 -10 11 -47 -38 -48 -63 -1 -41
-26 -69 -52 -59 -13 5 -23 11 -23 14 0 4 6 3 13 -1 8 -5 9 -4 2 4 -5 5 -19 12
-30 14 -10 2 -22 13 -25 26 -3 13 -7 22 -10 20 -3 -1 -20 9 -38 22 -23 17 -28
26 -20 32 10 6 9 8 -2 9 -10 0 -8 3 5 9 16 7 14 9 -15 9 -22 1 -30 4 -22 10
10 6 9 11 -4 22 -9 8 -20 14 -23 14 -3 0 -5 7 -3 15 1 8 4 32 6 54 2 21 10 43
18 47 11 8 11 11 -1 18 -12 8 -12 14 -1 40 10 26 15 29 31 20 21 -11 26 0 8
18 -9 9 -1 15 30 24 28 8 48 23 61 43 10 17 42 53 69 81 51 49 51 49 84 36 17
-8 57 -15 87 -17 l55 -3 -47 11 c-34 7 -62 23 -95 53 -44 41 -47 46 -50 102
-1 34 1 52 6 45 4 -8 12 -13 17 -12 17 3 34 22 28 31 -3 5 -1 9 4 9 17 0 22
29 11 58 -14 35 -49 73 -62 65 -6 -3 -7 -1 -3 5 3 6 2 13 -4 17 -22 14 -7 36
50 75 32 22 86 63 119 90 33 28 68 50 78 50 10 -1 43 -9 73 -20 41 -14 57 -16
62 -7 7 11 12 2 9 -16 -1 -5 8 -5 20 -2 13 4 19 3 16 -3 -4 -5 5 -8 19 -6 29
3 39 10 39 27 1 7 6 11 13 10 7 -2 11 2 9 9 -1 7 8 12 20 13 12 0 25 4 30 9 4
5 3 6 -4 2 -6 -3 -15 -1 -18 5 -5 7 -21 -3 -45 -26 l-38 -37 -47 21 c-56 25
-58 25 -49 9 4 -7 -2 -4 -13 8 -11 11 -41 28 -67 38 l-46 18 -48 -40 c-26 -21
-91 -69 -144 -106 l-98 -67 7 -119 6 -118 -39 -20 c-80 -40 -84 -39 -162 42
-40 41 -72 78 -72 83 0 5 -48 -3 -107 -19 -60 -15 -145 -35 -190 -44 l-81 -16
-38 -102 c-20 -55 -44 -106 -52 -113 -19 -16 -113 -5 -129 15 -7 8 -26 56 -43
107 -29 88 -33 93 -63 98 -18 4 -81 18 -141 32 -60 14 -120 25 -133 25 -18 0
-49 -23 -104 -77 l-79 -77 -38 14 c-86 31 -85 30 -79 161 l5 117 -91 61 c-51
33 -111 75 -134 92 l-41 31 -94 -27 c-51 -15 -101 -30 -111 -32 -20 -6 -107
77 -107 102 0 8 20 53 45 98 25 46 45 92 44 103 0 10 -31 71 -68 134 -76 129
-73 127 -196 129 -125 2 -124 2 -155 104 -10 32 -14 26 93 125 66 59 63 41 26
219 -10 51 -19 95 -19 98 0 3 -5 5 -11 5 -19 0 -153 66 -171 84 -21 21 -25
108 -5 124 6 5 51 27 100 48 63 27 89 43 92 58 2 12 15 68 29 126 l25 105 -79
80 -79 80 16 45 c8 25 22 51 31 58 9 7 48 12 91 13 115 2 118 3 178 103 29 49
53 95 53 104 0 8 -13 38 -29 66 -16 28 -34 69 -41 91 l-13 39 42 37 c40 36 41
38 21 49 -17 9 -24 6 -47 -17 -24 -25 -25 -25 -10 -3 9 14 28 42 42 63 14 20
29 37 34 37 5 0 16 -19 23 -42 13 -38 19 -43 74 -63 114 -43 115 -43 181 17
32 29 57 56 55 61 -1 5 1 6 6 3 5 -3 28 8 50 25 48 35 48 36 28 177 l-13 94
36 22 c92 58 96 58 180 -17 96 -86 90 -85 238 -47 144 38 179 52 187 77 37
134 58 192 72 197 29 11 131 6 142 -6 6 -7 27 -53 47 -103 20 -49 40 -94 45
-98 13 -14 202 -37 250 -31 26 3 62 2 81 -4 49 -13 81 3 154 77 33 34 65 61
71 61 7 0 10 8 7 21 -5 17 -16 10 -82 -57 -42 -42 -88 -81 -102 -86 -32 -11
-126 21 -121 42 3 11 0 11 -12 1 -24 -20 -102 -6 -109 19 -7 26 -50 42 -79 30
-23 -9 -23 -9 -2 -9 33 -1 39 -29 7 -37 -29 -8 -58 19 -48 44 2 7 1 11 -4 8
-5 -3 -20 21 -35 53 -22 49 -35 64 -72 85 -26 14 -54 26 -63 26 -9 0 -22 9
-28 20 -11 16 -10 21 6 29 10 6 22 7 25 3 4 -4 12 0 17 9 6 11 19 15 39 13 32
-4 42 11 12 18 -11 3 -36 -3 -58 -14 -36 -17 -40 -17 -51 -2 -14 19 -52 13
-76 -11 -8 -8 -18 -11 -21 -7 -4 3 -4 -1 0 -11 3 -9 11 -17 17 -17 18 0 -27
-29 -45 -30 -21 0 -24 30 -6 48 9 9 6 12 -14 12 -21 0 -25 -4 -21 -20 4 -14 0
-20 -12 -20 -12 0 -16 6 -12 20 3 13 -2 25 -15 34 -11 8 -15 15 -8 18 6 2 -2
8 -19 14 -26 10 -29 10 -26 -5 2 -10 15 -35 29 -56 14 -21 26 -41 26 -44 0 -4
17 -15 37 -26 43 -23 74 -51 66 -59 -4 -3 -12 -1 -20 5 -17 15 -16 -1 2 -25 8
-11 15 -30 15 -42 0 -30 -45 -95 -76 -112 -41 -21 -164 -32 -196 -17 -19 9
-29 10 -37 2 -8 -8 -11 -8 -11 1 0 7 -4 12 -10 12 -5 0 -6 -8 -3 -17 5 -14 2
-13 -16 4 -13 12 -20 26 -17 31 3 5 -1 15 -9 22 -13 11 -14 10 -8 -6 6 -16 4
-17 -9 -6 -10 8 -15 25 -13 44 1 18 -2 40 -8 49 -7 11 -5 25 6 48 15 29 15 32
1 27 -21 -8 19 60 55 93 14 13 25 27 24 30 -1 3 2 23 8 44 8 31 6 50 -11 101
-11 34 -23 73 -25 86 -7 34 -17 41 -39 24 -19 -14 -15 -29 7 -29 7 -1 11 -7 9
-14 -2 -8 0 -21 4 -30 11 -26 11 -51 1 -51 -6 0 -7 -3 -4 -6 3 -4 2 -16 -4
-27 -8 -14 -8 -18 0 -13 6 4 11 0 11 -9 0 -9 -4 -14 -9 -11 -5 3 -12 -2 -15
-11 -4 -10 -1 -20 9 -26 13 -7 14 -11 4 -23 -15 -18 -62 -43 -100 -54 -23 -7
-27 -5 -22 8 5 11 3 13 -7 7 -9 -6 -12 -4 -8 6 3 8 2 23 -3 34 -7 18 -8 18 -8
-5 -2 -50 -36 -85 -145 -149 -96 -56 -106 -64 -94 -79 12 -15 11 -16 -4 -4
-15 12 -27 7 -93 -38 -41 -28 -79 -49 -84 -46 -5 3 -11 -3 -14 -14 -7 -27 -22
-25 -36 6 -10 23 -16 26 -59 23 -26 -1 -55 1 -65 6 -14 6 -27 -1 -53 -26 -19
-18 -34 -41 -34 -50 0 -19 -109 -124 -140 -134 -11 -4 -34 1 -52 9 -36 18 -52
20 -43 6 11 -18 -41 -11 -58 8 -13 15 -14 21 -4 31 9 10 8 11 -6 5 -12 -4 -23
0 -31 11 -10 14 -15 15 -21 5 -5 -9 -4 -11 3 -6 19 11 14 -5 -5 -20 -16 -12
-16 -12 6 -7 16 4 22 3 17 -5 -4 -6 3 -12 16 -14 13 -2 22 -9 20 -16 -1 -8 2
-11 8 -7 5 3 10 1 10 -5 0 -7 -7 -9 -16 -6 -9 3 -20 6 -25 6 -6 0 -7 5 -4 10
3 6 0 10 -9 10 -8 0 -20 2 -28 3 -7 2 -10 2 -5 0 4 -3 7 -9 7 -14 0 -6 -4 -8
-10 -4 -5 3 -9 -7 -9 -22 0 -15 -2 -41 -6 -56 -9 -34 26 -77 59 -74 16 1 21
-4 21 -21 0 -13 7 -27 15 -32 46 -29 113 15 184 122 30 46 71 94 90 107 37 24
91 105 82 120 -9 14 26 23 38 10 8 -9 8 -10 -1 -5 -9 5 -11 2 -7 -8 5 -12 14
-10 60 10 37 16 54 20 54 11 0 -7 -39 -51 -86 -97 -99 -98 -227 -254 -291
-353 -60 -94 -176 -327 -203 -407 -12 -36 -30 -73 -41 -83 -10 -10 -19 -22
-19 -27 0 -17 -44 -10 -69 10 -15 13 -21 26 -17 37 4 9 1 20 -6 25 -10 6 -8 8
5 8 11 0 17 8 17 25 0 24 -10 32 -23 18 -4 -3 -2 -12 4 -20 9 -10 7 -13 -9
-13 -12 0 -23 -4 -27 -9 -3 -5 -19 -12 -35 -16 -17 -4 -30 -11 -30 -15 0 -5
-7 -7 -15 -3 -10 3 -15 0 -13 -8 2 -9 -5 -13 -19 -12 -16 2 -23 -3 -23 -15 0
-14 -2 -15 -10 -2 -8 13 -10 12 -10 -3 0 -10 -17 -36 -38 -57 -30 -29 -43 -36
-56 -28 -9 5 -22 7 -29 5 -7 -2 -27 4 -44 15 -29 17 -33 17 -33 4 0 -10 -9
-16 -21 -16 -16 0 -20 5 -16 20 3 11 1 18 -3 15 -19 -12 -18 14 1 39 18 23 18
26 4 26 -13 0 -16 6 -13 25 3 14 1 25 -4 25 -5 0 -6 5 -3 10 3 6 0 10 -7 10
-10 0 -10 2 -1 8 6 4 15 21 18 37 3 17 7 35 9 42 1 7 5 15 8 19 4 3 4 12 2 19
-3 7 -1 16 5 20 6 3 11 15 11 26 0 73 161 417 268 573 31 45 76 110 100 146
89 131 173 228 284 332 132 124 295 254 398 318 40 25 81 52 91 62 9 9 20 14
23 11 3 -4 6 -1 6 5 0 7 3 11 8 10 14 -4 52 14 52 24 0 6 3 9 6 5 5 -5 35 6
174 64 25 10 65 23 90 29 25 6 65 19 89 28 44 16 44 16 60 -8 10 -15 16 -45
16 -79 0 -41 8 -71 29 -114 15 -32 30 -56 32 -54 2 2 -7 34 -21 72 -14 37 -23
75 -21 84 15 48 13 72 -5 96 l-20 25 26 10 c14 5 34 10 44 10 10 0 44 9 76 19
32 11 65 17 73 13 11 -4 13 -2 7 8 -6 10 -2 11 19 6 17 -4 25 -3 22 3 -3 5 0
12 6 14 22 9 -4 6 -72 -9z m368 -716 c-6 -18 -28 -21 -28 -4 0 9 7 16 16 16 9
0 14 -5 12 -12z m-656 -130 c-8 -8 -9 -4 -5 13 4 13 8 18 11 10 2 -7 -1 -18
-6 -23z m-122 7 c-7 -8 -17 -15 -23 -15 -6 0 -2 7 9 15 25 19 30 19 14 0z m54
-23 c-35 -32 -154 -108 -154 -99 0 3 17 16 38 28 20 13 57 38 81 56 47 36 67
44 35 15z m63 -25 c2 -3 -18 -21 -45 -41 -28 -20 -57 -51 -66 -70 -9 -19 -24
-37 -33 -40 -15 -6 -15 -8 -3 -16 12 -8 12 -10 -2 -15 -10 -4 -14 -13 -11 -23
5 -14 3 -15 -8 -4 -7 6 -22 12 -33 12 -19 0 -19 2 4 18 26 17 34 49 13 45 -7
-2 -10 6 -8 17 5 26 -17 26 -32 0 -11 -16 -10 -18 2 -13 13 5 14 2 4 -21 -15
-31 -22 -26 -25 15 -1 17 0 28 3 26 2 -3 15 5 29 18 32 30 142 88 153 80 5 -3
13 0 17 6 5 8 3 9 -6 4 -8 -5 -11 -4 -6 3 6 10 43 9 53 -1z m150 -2 c0 -8 -4
-15 -9 -15 -10 0 -11 14 -1 23 9 10 10 9 10 -8z m1203 -18 c0 -2 -15 -16 -32
-33 l-33 -29 29 33 c28 30 36 37 36 29z m-1610 -70 c0 -2 -10 -12 -22 -23
l-23 -19 19 23 c18 21 26 27 26 19z m-585 -206 c-6 -5 -25 10 -25 20 0 5 6 4
14 -3 8 -7 12 -15 11 -17z m365 -61 c0 -5 -8 -10 -17 -10 -15 0 -16 2 -3 10
19 12 20 12 20 0z m301 -43 c-10 -9 -11 -8 -5 6 3 10 9 15 12 12 3 -3 0 -11
-7 -18z m-1001 -637 c-20 -13 -43 -13 -35 0 3 6 16 10 28 10 18 0 19 -2 7 -10z
m-406 -151 c-3 -5 -10 -7 -15 -3 -5 3 -7 10 -3 15 3 5 10 7 15 3 5 -3 7 -10 3
-15z m73 15 c-3 -3 -12 -4 -19 -1 -8 3 -5 6 6 6 11 1 17 -2 13 -5z m53 -8 c0
-2 -7 -6 -15 -10 -8 -3 -15 -1 -15 4 0 6 7 10 15 10 8 0 15 -2 15 -4z m-16
-41 c4 -11 -2 -15 -21 -15 -26 0 -26 1 -7 15 10 8 20 15 20 15 1 0 4 -7 8 -15z
m238 -525 c34 -65 99 -120 141 -120 10 0 17 -17 21 -52 4 -29 16 -89 27 -132
11 -44 18 -88 16 -98 -3 -10 -2 -16 3 -13 4 3 10 -1 13 -9 4 -11 -2 -12 -30
-6 -19 5 -36 10 -37 12 -1 1 -7 15 -14 31 -6 15 -18 27 -26 27 -23 0 -142 -63
-128 -68 16 -5 16 -22 0 -22 -18 0 -58 -62 -58 -88 0 -12 -4 -22 -9 -22 -5 0
-7 9 -4 20 4 16 2 19 -11 14 -9 -3 -16 -1 -16 6 0 6 -4 9 -8 6 -14 -8 -33 10
-35 32 -1 12 -7 22 -15 22 -7 0 -11 4 -8 9 4 5 2 11 -4 13 -7 2 -7 14 0 37 7
27 7 32 -2 23 -15 -15 -25 -15 -25 1 0 6 -2 19 -4 27 -2 8 2 14 9 13 6 -2 12
4 12 13 0 17 28 16 73 -1 13 -6 17 -2 17 18 0 14 5 27 11 29 5 2 11 10 12 18
2 8 6 20 10 27 4 6 4 22 -1 35 -9 29 -8 140 2 156 4 7 2 10 -7 6 -24 -9 -17
53 7 64 33 16 49 10 68 -28z m2925 -1399 c2 -27 -3 -43 -15 -52 -14 -11 -15
-11 -5 0 9 10 9 18 0 32 -9 15 -9 23 0 38 7 11 8 23 2 30 -6 8 -5 8 3 1 7 -6
14 -28 15 -49z m-1370 -347 c-3 -3 -12 -4 -19 -1 -8 3 -5 6 6 6 11 1 17 -2 13
-5z m46 -11 c-7 -2 -19 -2 -25 0 -7 3 -2 5 12 5 14 0 19 -2 13 -5z m47 -13 c8
-5 11 -10 5 -10 -5 0 -17 5 -25 10 -8 5 -10 10 -5 10 6 0 17 -5 25 -10z m47
-16 c-3 -3 -12 -4 -19 -1 -8 3 -5 6 6 6 11 1 17 -2 13 -5z m33 -4 c0 -5 -2
-10 -4 -10 -3 0 -8 5 -11 10 -3 6 -1 10 4 10 6 0 11 -4 11 -10z m895 -230 c3
-5 2 -10 -4 -10 -5 0 -13 5 -16 10 -3 6 -2 10 4 10 5 0 13 -4 16 -10z m-1831
-51 c58 -10 65 -13 69 -37 3 -15 4 -28 2 -30 -4 -4 -95 42 -138 69 -17 12 -24
19 -14 15 9 -3 46 -10 81 -17z m1906 -130 c0 -6 -4 -7 -10 -4 -5 3 -10 11 -10
16 0 6 5 7 10 4 6 -3 10 -11 10 -16z"/>
<path d="M3218 7491 c-34 -29 -143 -75 -158 -66 -5 3 -15 -8 -23 -25 -12 -23
-13 -38 -5 -66 8 -31 7 -41 -9 -63 -22 -30 -121 -84 -140 -77 -7 3 -13 1 -13
-4 0 -6 -9 -10 -20 -10 -10 0 -44 -9 -74 -21 -53 -19 -55 -22 -71 -74 -8 -30
-15 -67 -14 -82 3 -35 -10 -94 -23 -110 -6 -7 -21 -13 -33 -13 -23 0 -30 -12
-55 -94 -11 -34 -10 -41 8 -65 14 -19 28 -26 53 -26 29 0 34 -4 36 -25 1 -14
8 -43 14 -66 11 -38 10 -45 -11 -79 -35 -56 -33 -71 6 -71 18 1 30 4 28 7 -2
4 2 9 10 12 8 3 35 39 61 79 93 142 202 275 350 424 155 155 262 254 275 254
4 0 22 14 40 30 18 17 34 30 37 30 2 0 36 21 76 48 40 26 84 54 99 61 16 8 26
16 24 19 -3 2 -17 -3 -33 -11 -15 -8 -43 -22 -60 -31 -18 -10 -33 -21 -33 -25
0 -4 -15 -12 -32 -19 -31 -11 -153 -96 -224 -156 -18 -14 -36 -26 -41 -26 -4
0 -55 -45 -112 -100 -56 -55 -109 -100 -117 -100 -9 0 -13 -4 -9 -9 3 -6 -19
-29 -50 -52 -30 -23 -55 -45 -55 -50 0 -17 -55 -8 -79 11 -18 15 -22 26 -17
45 6 22 2 28 -28 40 -37 16 -44 29 -42 85 2 55 37 91 124 129 57 24 89 45 151
97 14 12 32 43 41 70 14 46 20 52 89 89 41 22 77 46 79 54 3 9 0 11 -9 6 -8
-5 -5 1 5 13 20 23 32 30 21 12 -3 -5 1 -10 10 -10 13 0 14 4 5 20 -14 25 -13
25 -52 -9z m-398 -676 c10 -12 10 -15 -4 -15 -9 0 -16 7 -16 15 0 8 2 15 4 15
2 0 9 -7 16 -15z"/>
<path d="M4827 7456 c3 -14 11 -27 18 -30 16 -6 8 29 -10 44 -9 8 -11 4 -8
-14z"/>
<path d="M6480 7405 c14 -17 45 -21 35 -5 -4 6 -11 8 -16 5 -5 -4 -9 -1 -9 4
0 6 -5 11 -11 11 -8 0 -8 -5 1 -15z"/>
<path d="M2957 7361 c3 -12 12 -21 20 -21 20 0 12 34 -9 38 -12 2 -15 -2 -11
-17z"/>
<path d="M4612 7038 c-21 -21 -14 -54 14 -67 34 -15 41 -8 17 16 -20 20 -23
44 -8 55 7 5 6 8 0 8 -6 0 -16 -5 -23 -12z"/>
<path d="M5453 7001 c0 -11 5 -18 9 -15 4 3 5 11 1 19 -7 21 -12 19 -10 -4z"/>
<path d="M4360 6934 c0 -8 5 -12 10 -9 6 4 8 11 5 16 -9 14 -15 11 -15 -7z"/>
<path d="M5494 6919 c-3 -6 -2 -15 3 -20 5 -5 9 -1 9 11 0 23 -2 24 -12 9z"/>
<path d="M4356 6902 c-2 -4 4 -13 14 -19 15 -10 17 -9 13 8 -5 20 -18 25 -27
11z"/>
<path d="M5085 6880 c3 -5 11 -10 16 -10 6 0 7 5 4 10 -3 6 -11 10 -16 10 -6
0 -7 -4 -4 -10z"/>
<path d="M4335 6860 c-3 -5 -1 -10 4 -10 6 0 11 5 11 10 0 6 -2 10 -4 10 -3 0
-8 -4 -11 -10z"/>
<path d="M5513 6857 c12 -31 -18 -86 -82 -151 -74 -77 -61 -89 17 -17 70 65
105 155 70 177 -8 5 -9 2 -5 -9z"/>
<path d="M5168 6780 c-3 -17 -1 -33 4 -36 4 -3 8 11 8 30 0 44 -6 47 -12 6z"/>
<path d="M5755 6660 c-3 -5 -1 -10 4 -10 6 0 11 5 11 10 0 6 -2 10 -4 10 -3 0
-8 -4 -11 -10z"/>
<path d="M5784 6658 c1 -7 5 -19 10 -26 4 -7 5 -64 1 -126 l-7 -112 83 -55
c46 -30 105 -70 131 -88 l47 -34 66 17 c37 9 90 28 118 42 42 22 54 24 75 14
19 -8 28 -8 36 1 8 9 7 10 -6 6 -23 -8 -33 10 -17 29 9 11 8 18 -5 33 -16 18
-20 17 -109 -14 -51 -17 -103 -37 -117 -45 -17 -9 -25 -10 -28 -1 -2 6 -23 11
-46 11 -44 0 -130 45 -151 79 -19 31 -35 107 -35 173 0 37 -5 70 -10 73 -6 4
-8 10 -5 15 3 4 -2 11 -11 14 -21 8 -23 8 -20 -6z"/>
<path d="M6310 6556 c0 -2 7 -9 15 -16 13 -11 14 -10 9 4 -5 14 -24 23 -24 12z"/>
<path d="M4903 6380 c-454 -48 -874 -347 -1073 -766 -95 -198 -134 -370 -134
-594 0 -106 6 -183 18 -243 93 -478 409 -869 844 -1041 265 -106 565 -123 835
-49 50 14 113 31 138 38 84 24 236 105 344 185 121 88 105 87 224 25 l70 -36
38 19 c21 10 46 17 56 14 23 -5 129 67 120 82 -4 6 -19 27 -34 46 -15 19 -29
44 -32 55 -4 19 -7 4 -10 -67 -1 -12 -18 -37 -37 -54 l-36 -33 -47 16 c-27 9
-47 22 -47 30 0 11 -3 11 -14 1 -8 -7 -11 -17 -8 -22 6 -10 -4 -7 -50 16 -21
10 -26 18 -22 33 10 32 44 64 63 58 13 -4 13 -3 2 5 -11 8 -5 21 31 68 54 70
143 223 159 273 6 20 15 41 19 46 12 16 57 164 73 240 8 39 15 108 15 155 0
84 -1 84 -8 25 -7 -63 -52 -167 -96 -220 l-25 -30 -67 75 c-36 41 -86 94 -109
117 -28 26 -39 43 -31 46 10 4 10 6 1 6 -7 1 -10 7 -8 14 2 6 -7 21 -22 31
-14 11 -23 13 -18 6 5 -9 4 -11 -3 -6 -7 4 -12 26 -12 49 0 74 -48 279 -69
297 -3 3 -19 30 -34 60 -15 30 -25 46 -21 35 4 -11 18 -50 31 -87 66 -190 53
-483 -32 -674 -76 -171 -255 -351 -432 -433 -60 -28 -76 -22 -92 36 -9 30 -6
41 14 74 14 21 51 57 82 81 86 63 195 178 183 193 -5 6 -9 14 -7 17 1 2 -32
-30 -73 -72 -85 -87 -125 -117 -135 -100 -3 6 -11 8 -16 4 -5 -3 -7 -10 -4
-15 4 -5 2 -9 -4 -9 -6 0 -26 -24 -46 -52 -42 -64 -48 -124 -14 -166 l21 -27
-34 -14 c-95 -39 -348 -54 -463 -27 -110 26 -235 77 -313 128 -190 124 -329
322 -384 545 -31 125 -30 334 1 448 80 297 303 535 593 636 43 15 73 30 66 33
-7 3 3 4 22 1 27 -4 30 -3 15 4 -19 9 -18 10 4 10 13 1 22 4 18 7 -3 3 -29 0
-56 -7 -35 -9 -47 -16 -39 -22 9 -5 3 -7 -14 -4 -15 2 -25 0 -22 -5 3 -5 -6
-6 -20 -2 -14 3 -26 2 -26 -3 0 -5 -6 -10 -12 -10 -12 0 -125 -49 -173 -75
-18 -10 -18 -9 -7 5 9 10 10 17 2 22 -5 3 -13 0 -16 -8 -3 -9 -13 -13 -25 -10
-14 4 -18 11 -13 25 4 14 3 18 -6 13 -7 -4 -10 -2 -9 6 1 8 -1 22 -6 32 -10
23 3 36 15 17 7 -11 10 -12 10 -2 0 7 5 10 10 7 6 -3 10 -2 10 4 0 6 -11 13
-25 17 -14 3 -25 10 -25 15 0 5 -9 9 -20 9 -15 0 -26 13 -41 47 -11 26 -25 50
-30 54 -6 3 -3 20 6 42 8 21 11 37 5 37 -22 0 4 28 53 57 117 70 322 142 472
168 11 2 20 4 20 5 0 4 43 9 150 18 l100 9 -90 0 c-49 0 -123 -3 -162 -7z
m-476 -472 c-3 -8 -6 -5 -6 6 -1 11 2 17 5 13 3 -3 4 -12 1 -19z m-318 -72 c0
-7 -2 -6 -6 2 -2 6 -11 12 -19 12 -9 0 -12 5 -9 10 8 13 35 -6 34 -24z m-40
-5 c10 -7 7 -15 -15 -37 -33 -33 -42 -56 -18 -47 14 5 15 3 5 -15 -6 -12 -23
-25 -36 -28 -31 -8 -78 3 -70 16 4 6 11 7 17 4 6 -4 8 1 4 14 -10 29 39 84 68
77 12 -3 15 -2 9 1 -7 3 -13 10 -13 15 0 11 31 12 49 0z m27 -37 c-3 -8 -2
-12 4 -9 6 3 10 0 10 -8 0 -19 -9 -27 -26 -20 -14 5 -19 35 -7 46 12 13 25 7
19 -9z m-56 -116 c0 -4 -4 -8 -10 -8 -5 0 -7 -7 -4 -15 4 -10 0 -15 -15 -15
-12 0 -21 -5 -21 -12 0 -6 -2 -9 -5 -6 -9 9 27 65 42 65 7 0 13 -4 13 -9z
m-70 -38 c0 -10 -21 -51 -30 -60 -12 -11 -4 -35 13 -38 10 -2 16 0 15 5 -2 4
7 18 19 30 14 14 20 29 16 39 -4 12 -3 15 6 10 6 -4 19 -2 28 6 14 10 15 10 9
0 -5 -8 -2 -18 8 -25 11 -9 14 -23 9 -55 -5 -35 -9 -41 -24 -37 -9 3 -20 1
-24 -5 -3 -5 -17 -7 -31 -4 -24 6 -25 4 -23 -34 2 -23 7 -38 12 -35 10 6 27
-15 27 -32 0 -5 -5 -3 -10 5 -8 11 -12 12 -18 3 -6 -10 -16 -8 -44 7 -35 18
-36 18 -52 1 -12 -13 -15 -27 -10 -45 5 -21 3 -26 -12 -26 -16 0 -17 -2 -4
-10 11 -7 8 -10 -16 -10 -29 0 -33 4 -35 43 -1 33 18 108 30 117 4 3 15 31 25
63 11 34 22 54 28 50 6 -3 8 -1 5 5 -11 16 3 43 27 52 22 8 56 -4 56 -20z
m2350 -1082 c-23 -68 -52 -141 -63 -163 -26 -53 -99 -157 -105 -150 -3 2 13
31 35 62 64 91 86 142 138 310 2 7 -2 10 -11 6 -17 -6 -17 -2 -2 32 7 15 17
24 25 21 7 -3 13 0 13 6 0 6 3 9 6 5 4 -3 -13 -61 -36 -129z m-177 51 c15 6
27 15 27 21 0 5 9 10 20 10 11 0 20 -7 20 -16 0 -8 -4 -12 -10 -9 -5 3 -7 0
-4 -9 3 -8 12 -12 20 -9 8 3 14 0 14 -6 0 -6 9 -20 20 -31 16 -16 18 -24 8
-51 -6 -17 -30 -52 -54 -77 -24 -25 -44 -47 -44 -49 0 -3 -12 -20 -26 -39 -39
-51 -56 -45 -32 13 6 15 11 31 10 35 -1 4 5 5 13 2 9 -4 19 4 27 20 9 22 9 29
-4 43 -9 8 -21 12 -27 8 -16 -9 -3 -25 14 -18 8 3 15 1 15 -4 0 -5 -9 -9 -19
-10 -21 -2 -36 23 -20 32 5 4 6 11 3 17 -4 6 -8 28 -9 50 -4 44 -21 71 -42 64
-7 -3 -13 1 -13 10 0 9 5 12 12 8 7 -4 8 -3 4 4 -4 7 -4 17 0 24 5 8 14 2 29
-16 19 -23 25 -26 48 -17z m-514 -55 c-6 -8 -17 -14 -23 -14 -6 0 -4 5 4 10 8
5 11 10 7 10 -5 0 -5 5 -2 10 4 6 11 8 16 4 6 -4 6 -11 -2 -20z m430 -160 c18
-15 31 -20 31 -13 0 7 2 10 5 7 3 -3 -1 -17 -8 -32 -12 -23 -16 -24 -27 -11
-7 8 -16 12 -21 9 -13 -8 -79 26 -79 41 0 32 60 32 99 -1z m-104 -54 c13 -15
26 -19 44 -15 22 5 34 -3 78 -54 l52 -59 -28 -38 c-45 -63 -122 -144 -131
-139 -4 2 -29 -3 -54 -11 -26 -9 -49 -14 -52 -11 -3 3 -20 -1 -39 -8 -18 -8
-36 -11 -40 -7 -5 4 -5 2 -2 -4 3 -6 -7 -18 -24 -28 -16 -9 -29 -14 -29 -11 0
3 -10 -1 -22 -9 -21 -15 -23 -14 -35 7 -8 12 -13 15 -12 7 3 -32 -14 -81 -33
-91 -10 -5 -16 -14 -12 -20 4 -6 11 -6 20 2 12 10 13 9 8 -5 -3 -9 -12 -16
-19 -16 -7 0 -15 -8 -18 -19 -2 -10 -19 -23 -36 -29 -18 -6 -29 -7 -26 -2 4 6
1 10 -5 10 -7 0 -9 8 -5 20 4 13 2 20 -6 20 -7 0 -9 3 -6 7 4 3 2 12 -4 20 -9
10 -8 13 5 13 9 0 16 -8 16 -20 0 -20 11 -26 23 -14 3 4 0 13 -8 21 -18 17
-20 37 -3 27 7 -4 8 -3 4 5 -4 6 -11 9 -15 7 -4 -3 -7 14 -6 37 3 61 4 67 16
67 5 0 8 -4 5 -8 -2 -4 11 -6 30 -4 20 3 41 -2 51 -9 9 -8 14 -9 11 -4 -3 6 6
10 23 11 15 1 44 13 63 28 19 14 41 23 49 20 17 -6 33 34 41 102 7 54 30 119
42 117 5 -1 10 14 12 34 5 70 40 94 77 53z m-244 -259 c-5 -3 -11 -19 -13 -35
-1 -16 -9 -31 -15 -34 -9 -2 -11 5 -7 27 4 20 2 31 -5 31 -6 0 -11 4 -11 8 0
5 14 9 30 9 17 0 27 -3 21 -6z m46 -18 c-9 -9 -19 -14 -23 -11 -10 10 6 28 24
28 15 0 15 -1 -1 -17z m-119 -7 c-7 -8 -15 -12 -17 -11 -5 6 10 25 20 25 5 0
4 -6 -3 -14z m321 -52 c-18 -22 -231 -162 -273 -179 l-36 -15 11 27 c14 36 35
60 82 90 22 14 35 28 31 35 -4 7 -3 8 4 4 7 -4 20 -2 29 4 17 11 17 11 0 6
-11 -4 -16 -2 -12 5 4 6 13 8 20 5 7 -2 35 4 62 14 26 11 59 19 72 20 20 0 22
-2 10 -16z m-429 -84 c0 -5 -4 -10 -10 -10 -5 0 -10 5 -10 10 0 6 5 10 10 10
6 0 10 -4 10 -10z m-12 -125 c-3 -3 -9 2 -12 12 -6 14 -5 15 5 6 7 -7 10 -15
7 -18z"/>
<path d="M5821 4053 c0 -10 3 -13 5 -6 3 7 13 9 22 6 15 -4 15 -3 2 6 -22 15
-30 14 -29 -6z"/>
<path d="M5552 3813 c-6 -2 -10 -9 -6 -14 8 -14 21 -11 21 6 0 8 -1 15 -1 14
-1 0 -7 -3 -14 -6z"/>
<path d="M5208 6373 c6 -2 18 -2 25 0 6 3 1 5 -13 5 -14 0 -19 -2 -12 -5z"/>
<path d="M5354 6344 c18 -17 12 -33 -28 -89 -31 -42 -38 -65 -25 -81 17 -21
68 -16 124 11 28 14 55 25 60 25 6 1 23 11 39 24 20 17 25 26 16 31 -9 5 -11
4 -6 -3 5 -8 -1 -12 -17 -12 -13 0 -39 -7 -56 -16 -45 -23 -101 -29 -101 -13
0 35 33 98 54 101 19 3 18 5 -11 21 -18 9 -39 17 -48 17 -15 0 -15 -1 -1 -16z
m151 -114 c-3 -5 -12 -10 -18 -10 -7 0 -6 4 3 10 19 12 23 12 15 0z"/>
<path d="M8781 6325 c1 -19 18 -51 18 -35 0 8 -4 22 -9 30 -5 8 -9 11 -9 5z"/>
<path d="M5552 6279 c2 -6 7 -10 11 -10 4 1 15 1 25 1 14 0 15 2 2 10 -20 13
-43 13 -38 -1z"/>
<path d="M6357 6263 c3 -10 14 -26 25 -36 25 -24 23 -38 -12 -97 -45 -77 -63
-113 -51 -106 7 4 8 1 5 -8 -3 -9 -10 -13 -15 -10 -27 17 0 -42 65 -140 l74
-112 98 4 c183 8 155 25 -45 27 -35 0 -46 5 -59 25 -9 14 -35 54 -59 91 -24
36 -43 74 -43 85 0 12 19 49 43 84 23 34 51 78 62 96 l20 33 -35 34 c-42 41
-84 58 -73 30z"/>
<path d="M8810 6056 c-71 -49 -96 -67 -82 -61 18 9 15 -6 -5 -22 -29 -24 7 -4
75 41 37 24 62 48 62 58 0 10 -1 18 -2 17 -2 -1 -23 -15 -48 -33z"/>
<path d="M4457 6012 c2 -10 11 -19 19 -19 11 0 11 4 -3 19 -9 10 -17 18 -19
18 -1 0 0 -8 3 -18z"/>
<path d="M8690 5980 c-9 -6 -10 -10 -3 -10 6 0 15 5 18 10 8 12 4 12 -15 0z"/>
<path d="M4972 5934 c-11 -12 1 -14 83 -14 57 0 95 4 95 10 0 6 -8 10 -17 11
-10 0 -35 2 -56 3 -21 2 -40 -1 -43 -5 -7 -12 -41 -11 -46 0 -1 5 -9 3 -16 -5z"/>
<path d="M5008 5943 c7 -3 16 -2 19 1 4 3 -2 6 -13 5 -11 0 -14 -3 -6 -6z"/>
<path d="M5170 5919 c-11 -6 -5 -9 23 -10 20 -1 42 -2 49 -3 7 -1 26 -15 43
-31 16 -17 20 -19 8 -5 -13 14 -23 31 -23 37 0 6 -15 11 -34 11 -19 0 -39 2
-43 5 -5 3 -15 2 -23 -4z"/>
<path d="M4913 5913 c9 -2 23 -2 30 0 6 3 -1 5 -18 5 -16 0 -22 -2 -12 -5z"/>
<path d="M5315 5891 c93 -38 124 -48 120 -41 -6 10 -110 50 -128 49 -7 0 -3
-4 8 -8z"/>
<path d="M8599 5873 c-13 -16 -12 -17 4 -4 9 7 17 15 17 17 0 8 -8 3 -21 -13z"/>
<path d="M5542 5847 c-8 -9 -11 -21 -8 -26 12 -19 -11 -19 -43 0 -42 25 -44
21 -9 -13 l28 -27 26 23 c15 13 25 30 23 41 -4 16 -5 17 -17 2z"/>
<path d="M8520 5805 c-24 -25 -42 -45 -39 -45 3 0 25 20 49 45 24 25 42 45 39
45 -3 0 -25 -20 -49 -45z"/>
<path d="M2427 5760 c-3 -13 -13 -20 -30 -20 -13 0 -30 -7 -37 -15 -11 -13 -8
-15 19 -15 17 0 34 -1 38 -2 8 -3 26 62 20 68 -3 3 -7 -4 -10 -16z"/>
<path d="M7110 5756 c0 -8 5 -18 10 -21 6 -3 10 3 10 14 0 12 -4 21 -10 21 -5
0 -10 -6 -10 -14z"/>
<path d="M6668 5737 c11 -12 28 -39 37 -61 16 -37 15 -39 -9 -71 -14 -18 -50
-54 -81 -80 -30 -26 -55 -56 -55 -65 0 -26 40 -191 51 -212 5 -10 52 -31 110
-50 55 -18 104 -40 109 -48 16 -31 21 -107 8 -117 -7 -5 -57 -29 -112 -54 -62
-28 -101 -51 -106 -64 -12 -30 -32 -228 -26 -245 4 -8 26 -28 50 -43 78 -49
146 -108 139 -120 -4 -6 -12 -34 -18 -62 l-11 -50 -135 -6 c-74 -3 -136 -7
-139 -8 -3 -1 4 -7 15 -12 20 -9 20 -9 0 -6 -17 3 -28 -12 -66 -89 l-46 -93
33 34 c18 19 36 45 40 57 4 13 14 28 23 35 10 8 12 12 4 13 -7 0 -13 5 -13 12
0 6 3 9 6 5 4 -3 22 0 42 9 19 8 43 12 53 9 24 -8 139 -8 171 0 29 7 53 53 64
125 4 23 15 57 25 77 14 27 16 41 8 61 -6 15 -10 28 -10 30 1 1 0 17 0 35 -1
31 -2 31 -9 -8 -4 -22 -6 -43 -3 -48 2 -4 -1 -24 -8 -44 -11 -35 -12 -36 -28
-17 -9 10 -33 32 -54 47 -26 20 -37 36 -37 54 0 17 -4 23 -13 20 -8 -3 -20 -1
-28 4 -10 6 -10 9 -1 9 6 0 12 8 12 18 0 23 19 42 43 42 10 0 16 4 12 10 -3 5
-12 7 -20 4 -10 -4 -13 2 -11 20 2 14 -1 23 -5 20 -9 -5 -14 11 -9 31 1 6 2
20 2 32 0 18 14 29 67 54 58 28 136 59 147 59 2 0 5 -15 5 -32 1 -18 3 -25 6
-15 2 9 11 17 19 17 9 0 14 8 13 18 -3 38 0 44 16 28 8 -8 14 -27 14 -43 l-1
-28 -8 30 c-5 20 -7 6 -6 -45 1 -41 5 -80 11 -86 15 -18 43 -4 50 24 5 20 8
23 16 11 7 -11 9 -11 9 4 0 10 7 20 15 23 11 4 15 20 14 53 -1 25 -3 38 -6 29
-2 -10 -13 -18 -24 -18 -14 0 -19 7 -19 28 -1 80 -28 323 -37 332 -3 3 -4 -9
-1 -27 3 -22 0 -34 -10 -38 -10 -4 -12 2 -7 24 4 18 2 32 -6 37 -7 4 -10 3 -5
-4 3 -6 1 -14 -5 -18 -8 -5 -10 1 -7 20 3 14 1 26 -3 26 -5 0 -9 -21 -9 -46 0
-27 4 -43 10 -39 6 3 10 -3 10 -14 0 -12 -6 -21 -14 -21 -9 0 -15 23 -19 81
-4 45 -8 83 -10 85 -2 2 -25 6 -51 9 -43 5 -48 4 -42 -11 6 -16 5 -16 -14 1
-31 28 -25 52 13 46 4 0 8 9 8 22 1 17 2 18 6 4 2 -9 9 -15 14 -12 5 4 14 -5
21 -19 6 -14 15 -26 20 -26 11 0 4 12 -30 57 -15 21 -25 49 -27 78 -3 41 -2
44 18 41 12 -2 27 0 33 5 7 6 21 0 38 -16 24 -22 26 -22 26 -5 0 10 5 22 12
26 7 5 8 3 3 -6 -6 -9 -4 -11 5 -5 8 5 18 1 26 -10 8 -10 17 -16 20 -12 3 3
24 -5 45 -19 40 -25 79 -32 79 -13 0 5 -4 7 -10 4 -5 -3 -10 3 -10 14 0 11 -4
23 -10 26 -5 3 -10 1 -10 -4 0 -17 -22 -13 -79 16 -45 22 -57 24 -73 14 -17
-10 -20 -9 -25 8 -3 12 -10 21 -17 21 -27 -1 -95 -40 -101 -59 -3 -12 -11 -21
-16 -21 -6 0 -7 -4 -4 -10 3 -5 -3 -10 -14 -10 -12 0 -21 -4 -21 -10 0 -5 -15
-10 -32 -9 -18 0 -27 3 -20 6 6 2 12 11 12 18 0 7 14 27 30 45 21 22 30 42 30
66 0 45 -27 100 -57 113 -38 17 -48 13 -25 -12z m79 -313 c-3 -3 -12 -4 -19
-1 -8 3 -5 6 6 6 11 1 17 -2 13 -5z m-47 -14 c0 -5 -7 -10 -15 -10 -8 0 -15 5
-15 10 0 6 7 10 15 10 8 0 15 -4 15 -10z m37 -49 c10 -17 8 -22 -14 -36 -20
-13 -28 -14 -37 -4 -8 9 -7 11 9 5 19 -6 19 -6 1 8 -22 18 -15 46 11 46 10 0
24 -9 30 -19z m149 4 c9 -23 -15 -48 -32 -34 -10 8 -11 15 -4 24 5 6 7 15 3
18 -3 4 1 7 11 7 9 0 19 -7 22 -15z m48 -243 c3 -5 -1 -9 -9 -9 -8 0 -12 4 -9
9 3 4 7 8 9 8 2 0 6 -4 9 -8z m97 -201 c5 8 9 9 9 3 0 -6 -6 -16 -13 -22 -10
-8 -13 -6 -14 11 0 12 1 16 4 8 5 -11 7 -11 14 0z"/>
<path d="M6695 5360 c-3 -5 -1 -10 4 -10 6 0 11 5 11 10 0 6 -2 10 -4 10 -3 0
-8 -4 -11 -10z"/>
<path d="M8456 5715 c-3 -9 -6 -22 -5 -28 0 -7 5 -1 10 12 5 13 8 26 5 28 -2
2 -6 -3 -10 -12z"/>
<path d="M7126 5705 c-9 -26 -7 -32 5 -12 6 10 9 21 6 23 -2 3 -7 -2 -11 -11z"/>
<path d="M2280 5670 c13 -8 12 -10 -2 -10 -24 0 -23 -16 1 -23 11 -3 22 1 25
8 5 14 -12 35 -28 35 -6 0 -4 -5 4 -10z"/>
<path d="M5720 5625 c19 -19 36 -35 39 -35 3 0 -10 16 -29 35 -19 19 -36 35
-39 35 -3 0 10 -16 29 -35z"/>
<path d="M8446 5621 c-6 -9 0 -198 10 -301 10 -114 13 -132 18 -137 15 -15 15
60 1 217 -9 96 -16 187 -15 203 0 28 -5 34 -14 18z"/>
<path d="M2260 5599 c0 -5 5 -7 10 -4 6 3 10 8 10 11 0 2 -4 4 -10 4 -5 0 -10
-5 -10 -11z"/>
<path d="M2225 5555 c12 -24 19 -47 14 -52 -10 -10 0 -53 12 -53 12 0 30 36
22 44 -11 11 -12 36 -2 36 12 0 11 37 -1 45 -6 4 -24 10 -40 15 l-28 8 23 -43z"/>
<path d="M4619 5573 c-13 -16 -12 -17 4 -4 16 13 21 21 13 21 -2 0 -10 -8 -17
-17z"/>
<path d="M2836 5554 c-17 -12 -17 -14 -4 -14 9 0 20 5 23 11 11 17 2 18 -19 3z"/>
<path d="M4545 5508 l-50 -53 53 50 c48 46 57 55 49 55 -1 0 -25 -24 -52 -52z"/>
<path d="M6932 5500 c0 -14 2 -19 5 -12 2 6 2 18 0 25 -3 6 -5 1 -5 -13z"/>
<path d="M7170 5497 c0 -3 13 -19 30 -37 23 -25 33 -29 47 -21 16 9 16 11 -7
20 -14 6 -35 18 -47 27 -13 9 -23 14 -23 11z"/>
<path d="M5845 5460 c9 -16 18 -30 21 -30 2 0 -2 14 -11 30 -9 17 -18 30 -21
30 -2 0 2 -13 11 -30z"/>
<path d="M7260 5419 c0 -5 -4 -7 -10 -4 -14 9 -12 -1 3 -13 10 -8 13 -6 14 9
1 10 0 19 -3 19 -2 0 -4 -5 -4 -11z"/>
<path d="M6951 5404 c0 -11 3 -14 6 -6 3 7 2 16 -1 19 -3 4 -6 -2 -5 -13z"/>
<path d="M7290 5381 c0 -7 -4 -9 -10 -6 -5 3 -10 2 -10 -4 0 -5 5 -13 10 -16
11 -7 26 22 16 32 -3 4 -6 1 -6 -6z"/>
<path d="M6962 5350 c0 -14 2 -19 5 -12 2 6 2 18 0 25 -3 6 -5 1 -5 -13z"/>
<path d="M7277 5327 c-3 -8 -1 -20 4 -28 6 -10 9 -7 9 14 0 29 -5 35 -13 14z"/>
<path d="M2220 5321 c0 -8 -14 -11 -41 -9 -35 2 -45 -2 -66 -27 -18 -23 -22
-37 -18 -60 4 -16 8 -48 10 -70 9 -79 22 -160 29 -175 4 -8 30 -32 57 -53 27
-20 49 -43 49 -51 0 -8 -21 -39 -46 -69 -38 -47 -44 -59 -35 -75 11 -21 59
-42 96 -42 13 0 38 -19 65 -47 23 -27 44 -43 46 -38 2 6 0 37 -5 70 -6 40 -9
49 -10 27 l-1 -33 -26 20 c-14 11 -45 23 -69 27 -66 9 -72 24 -34 78 41 58 42
107 2 148 -15 15 -32 28 -37 28 -24 0 -36 43 -41 147 -4 59 -8 123 -10 141 -3
31 -2 32 35 32 36 0 71 23 56 37 -3 3 -6 1 -6 -6z"/>
<path d="M7175 5264 c-26 -26 -48 -64 -42 -71 4 -3 18 -7 32 -8 22 -3 30 5 26
28 0 4 6 7 14 7 20 0 19 19 0 26 -12 5 -13 10 -4 20 17 20 -6 18 -26 -2z"/>
<path d="M7054 5199 c-3 -6 -1 -16 4 -21 8 -8 11 -5 9 11 -1 24 -3 25 -13 10z"/>
<path d="M7087 5152 c-10 -10 -17 -22 -17 -27 0 -4 9 2 20 15 11 13 20 25 20
27 0 7 -8 2 -23 -15z"/>
<path d="M8510 5126 c0 -2 8 -10 18 -17 15 -13 16 -12 3 4 -13 16 -21 21 -21
13z"/>
<path d="M7070 5103 c7 -3 7 -10 -2 -21 -10 -12 -10 -16 -1 -19 9 -3 10 -10 3
-24 -7 -13 -7 -19 0 -19 5 0 11 7 11 15 5 52 3 69 -9 71 -7 1 -8 0 -2 -3z"/>
<path d="M8965 4970 c3 -5 8 -10 11 -10 2 0 4 5 4 10 0 6 -5 10 -11 10 -5 0
-7 -4 -4 -10z"/>
<path d="M4582 4930 c0 -19 2 -27 5 -17 2 9 2 25 0 35 -3 9 -5 1 -5 -18z"/>
<path d="M5771 4874 c0 -11 3 -14 6 -6 3 7 2 16 -1 19 -3 4 -6 -2 -5 -13z"/>
<path d="M4590 4845 c0 -54 55 -151 127 -224 37 -38 83 -76 101 -85 47 -24 39
-14 -21 27 -82 57 -151 150 -186 254 -17 47 -20 52 -21 28z"/>
<path d="M6417 4853 c-10 -9 -9 -23 1 -23 5 0 9 7 9 15 0 17 -1 18 -10 8z"/>
<path d="M6450 4830 c0 -5 5 -10 10 -10 6 0 10 5 10 10 0 6 -4 10 -10 10 -5 0
-10 -4 -10 -10z"/>
<path d="M2342 4805 c0 -16 2 -22 5 -12 2 9 2 23 0 30 -3 6 -5 -1 -5 -18z"/>
<path d="M5728 4729 c-3 -7 -5 -17 -4 -21 0 -4 -8 -14 -19 -23 -11 -9 -13 -14
-5 -10 8 4 4 -3 -10 -14 -14 -11 -20 -21 -15 -21 6 0 2 -5 -7 -11 -19 -11 -25
-39 -8 -39 5 0 6 8 3 17 -5 13 -3 15 12 9 11 -4 16 -4 12 0 -3 4 5 20 19 37
14 16 23 36 20 43 -3 7 0 14 6 16 6 2 9 10 6 18 -4 12 -5 12 -10 -1z"/>
<path d="M8915 4605 c-16 -8 -23 -14 -14 -15 8 0 24 7 35 15 23 18 18 18 -21
0z"/>
<path d="M8546 4523 c-3 -4 -16 -8 -28 -10 -70 -11 -121 -83 -133 -188 -4 -33
-18 -91 -32 -130 -60 -168 -69 -263 -33 -323 24 -39 45 -34 24 6 -26 50 -17
137 26 261 30 87 40 130 40 178 0 37 6 76 15 92 19 38 68 78 105 86 17 4 28
10 25 15 -3 5 3 11 12 13 14 4 15 5 2 6 -9 0 -19 -2 -23 -6z"/>
<path d="M6499 4450 c-46 -66 -73 -119 -65 -127 2 -2 10 8 18 24 28 55 43 78
71 105 16 15 27 35 25 45 -2 13 -16 -1 -49 -47z"/>
<path d="M6740 4271 c-8 -6 -17 -8 -21 -5 -4 2 -10 0 -13 -5 -8 -13 26 -23 38
-11 5 5 15 10 21 10 5 0 3 -5 -5 -10 -12 -8 -11 -10 6 -10 11 0 25 5 32 10 6
6 10 7 7 4 -10 -14 29 -32 48 -23 9 6 22 7 27 4 6 -3 10 -2 10 2 0 11 -87 43
-115 43 -11 0 -27 -4 -35 -9z"/>
<path d="M6354 4145 c-9 -13 -14 -29 -12 -35 2 -7 11 5 21 24 19 41 15 47 -9
11z"/>
<path d="M6436 3893 c-6 -14 -5 -15 5 -6 7 7 10 15 7 18 -3 3 -9 -2 -12 -12z"/>
<path d="M2583 3825 c0 -8 8 -17 18 -20 21 -7 59 -56 59 -77 0 -7 9 -24 20
-38 11 -14 20 -37 20 -52 0 -18 5 -28 15 -28 8 0 24 -10 36 -22 l22 -23 -19
35 c-11 19 -46 81 -78 138 -39 68 -64 102 -75 102 -10 0 -18 -7 -18 -15z"/>
<path d="M1946 3773 c-6 -14 -5 -15 5 -6 7 7 10 15 7 18 -3 3 -9 -2 -12 -12z"/>
<path d="M2560 3771 c0 -6 4 -13 10 -16 6 -3 7 1 4 9 -7 18 -14 21 -14 7z"/>
<path d="M1851 3705 c-25 -24 -49 -41 -55 -38 -6 3 -8 2 -3 -2 4 -5 18 -10 30
-11 12 -2 16 0 9 2 -7 4 6 22 35 49 27 25 44 44 38 44 -5 0 -30 -20 -54 -44z"/>
<path d="M2541 3711 c-7 -5 -12 -13 -10 -18 2 -5 12 -1 22 9 18 19 12 24 -12
9z"/>
<path d="M5551 3694 c0 -11 3 -14 6 -6 3 7 2 16 -1 19 -3 4 -6 -2 -5 -13z"/>
<path d="M1730 3596 l-44 -51 49 47 c27 26 47 49 45 51 -3 2 -25 -20 -50 -47z"/>
<path d="M8515 3621 c-11 -5 -41 -6 -66 -4 -59 6 -185 -20 -210 -43 -27 -24
-24 -58 7 -90 22 -21 24 -28 13 -35 -12 -7 -12 -10 0 -21 10 -10 12 -10 7 0
-4 6 -2 12 4 12 7 0 14 -9 17 -20 3 -11 9 -17 14 -14 5 3 9 -1 9 -9 0 -8 7
-18 16 -21 9 -3 12 -11 8 -18 -5 -8 -2 -9 9 -5 11 4 17 1 17 -8 0 -8 6 -15 14
-15 7 0 20 -8 27 -17 12 -15 12 -16 -6 -9 -11 5 -42 10 -70 12 -47 3 -44 0 13
-12 14 -3 20 -9 16 -17 -4 -7 -4 -9 0 -6 4 4 41 -4 82 -17 73 -23 155 -34 109
-14 -20 8 -20 9 1 9 11 1 28 9 37 19 27 30 117 213 117 239 0 16 -13 33 -44
54 -24 18 -48 31 -53 31 -4 0 -17 7 -27 16 -15 13 -18 14 -11 2 6 -12 5 -13
-6 -2 -15 14 -16 14 -44 3z"/>
<path d="M7385 3529 c-19 -37 -16 -45 11 -23 10 8 12 12 4 8 -8 -4 -5 3 8 15
26 26 27 31 7 31 -8 0 -22 -14 -30 -31z"/>
<path d="M2810 3496 c0 -2 8 -10 18 -17 15 -13 16 -12 3 4 -13 16 -21 21 -21
13z"/>
<path d="M2891 3370 c11 -22 24 -40 29 -40 6 0 9 -4 8 -9 -2 -4 24 -38 57 -75
33 -37 60 -71 60 -76 0 -12 13 -24 30 -26 9 -1 -5 21 -31 49 -25 28 -73 89
-106 134 -33 46 -62 83 -63 83 -2 0 6 -18 16 -40z"/>
<path d="M2870 3310 c0 -5 5 -10 11 -10 5 0 7 5 4 10 -3 6 -8 10 -11 10 -2 0
-4 -4 -4 -10z"/>
<path d="M8023 3278 c-17 -18 -47 -59 -67 -92 -21 -32 -72 -104 -115 -160
-115 -148 -129 -182 -108 -262 15 -58 237 -392 237 -356 0 13 -104 177 -151
238 -43 56 -59 98 -59 157 0 47 23 93 92 182 29 39 75 102 102 140 68 97 95
125 141 146 22 10 33 19 25 20 -8 1 -1 5 15 9 25 6 21 8 -26 9 -50 1 -58 -2
-86 -31z"/>
<path d="M2020 3194 c-85 -14 -221 -49 -150 -39 19 3 71 9 115 14 44 5 109 14
146 20 42 7 77 7 100 1 31 -9 32 -8 15 5 -24 18 -109 18 -226 -1z"/>
<path d="M2820 3142 c-27 -30 -52 -68 -55 -84 -4 -16 -19 -43 -33 -60 -15 -17
-27 -36 -28 -42 0 -6 -2 -19 -2 -29 -2 -17 -24 -19 -91 -8 -2 1 2 7 8 15 9 11
5 15 -25 21 -20 3 -45 12 -55 18 -33 21 -44 -6 -16 -39 35 -42 77 -107 77
-118 0 -6 -14 10 -31 34 -36 52 -79 89 -79 68 0 -8 12 -27 28 -44 15 -17 35
-47 45 -67 21 -47 23 -130 2 -147 -8 -7 -15 -20 -15 -30 0 -10 -7 -23 -15 -30
-8 -7 -15 -19 -15 -27 0 -8 -7 -21 -15 -29 -8 -9 -15 -28 -15 -44 0 -16 -6
-33 -13 -37 -18 -11 -38 -96 -25 -104 6 -4 8 -12 4 -18 -4 -6 -2 -20 4 -32 11
-19 10 -20 -12 -14 -21 6 -20 4 7 -19 17 -13 40 -27 52 -30 23 -6 83 -56 67
-56 -14 0 19 -20 34 -20 9 0 11 7 7 20 -4 14 -2 20 9 20 18 0 32 -20 14 -20
-8 -1 -6 -6 5 -15 18 -13 17 -14 -10 -17 -16 -2 -40 4 -56 15 -27 18 -27 18
-24 -1 2 -11 8 -27 15 -34 6 -8 9 -18 5 -21 -3 -4 -1 -7 5 -7 7 0 25 -15 41
-32 33 -37 42 -35 111 21 l34 29 -39 -2 c-32 -1 -40 3 -43 19 -3 15 -1 17 9 8
8 -6 22 -7 34 -2 27 11 37 11 31 0 -3 -5 0 -11 8 -14 11 -4 13 2 10 25 -2 17
-1 28 2 25 3 -3 22 6 42 19 20 14 42 22 49 20 7 -3 12 0 10 6 -1 6 4 13 12 16
9 3 11 0 6 -8 -5 -9 -4 -11 4 -6 6 4 9 11 6 16 -11 17 55 31 153 33 37 0 57 4
50 9 -7 4 -8 8 -3 8 6 0 22 25 35 56 21 46 28 54 45 49 11 -3 52 -12 91 -19
39 -8 88 -22 109 -30 46 -20 45 -20 45 3 0 23 -73 107 -111 126 -34 18 -52 12
-102 -32 -37 -33 -72 -41 -124 -27 -21 6 -23 12 -23 78 0 52 5 81 20 109 24
45 25 85 3 132 -14 30 -15 41 -5 68 19 48 19 51 -5 52 -12 0 -24 3 -28 7 -10
10 18 47 35 46 37 -3 50 3 50 21 0 11 5 23 10 26 6 3 10 10 10 15 0 6 -16 1
-35 -10 -20 -11 -38 -20 -40 -20 -12 0 -3 24 13 36 15 12 14 12 -8 8 -14 -3
-35 -11 -48 -17 -18 -9 -26 -7 -40 7 -12 14 -14 20 -4 23 6 3 12 9 12 14 0 6
-6 7 -12 3 -10 -6 -10 -5 -1 7 10 13 10 16 -5 16 -9 0 -25 -6 -34 -14 -15 -14
-17 -13 -15 6 1 12 6 21 11 21 5 0 1 6 -10 14 -16 13 -20 12 -27 0 -7 -12 -13
-8 -28 20 -22 41 -18 59 17 75 30 13 24 29 -11 29 -18 0 -40 -16 -75 -56z
m-266 -197 c3 -9 0 -15 -8 -15 -7 0 -13 7 -13 15 0 8 4 15 8 15 4 0 9 -7 13
-15z m41 -16 c-10 -15 -25 -10 -19 6 4 8 10 12 15 9 5 -3 7 -10 4 -15z m41
-39 c8 0 14 -7 14 -15 0 -8 3 -15 8 -15 4 0 8 -16 9 -35 2 -44 -8 -44 -41 -2
-15 17 -31 37 -36 44 -13 15 -13 36 -1 28 5 -3 13 0 17 7 6 9 9 9 12 0 2 -7
10 -12 18 -12z m94 -5 c0 -2 -10 -10 -22 -16 -21 -11 -22 -11 -9 4 13 16 31
23 31 12z m21 -22 c-8 -15 -10 -15 -11 -2 0 17 10 32 18 25 2 -3 -1 -13 -7
-23z m-51 -73 c0 -5 -4 -10 -10 -10 -5 0 -10 5 -10 10 0 6 5 10 10 10 6 0 10
-4 10 -10z m-127 -310 c3 -13 0 -20 -10 -20 -9 0 -13 6 -9 15 3 8 1 15 -3 15
-5 0 -11 7 -15 15 -4 12 -2 13 13 6 10 -6 21 -20 24 -31z m-78 -100 c3 -5 1
-10 -4 -10 -6 0 -11 5 -11 10 0 6 2 10 4 10 3 0 8 -4 11 -10z"/>
<path d="M2300 3145 c19 -19 36 -35 39 -35 3 0 -10 16 -29 35 -19 19 -36 35
-39 35 -3 0 10 -16 29 -35z"/>
<path d="M6871 3156 c-7 -8 -8 -16 -4 -19 12 -6 65 18 57 26 -12 12 -41 8 -53
-7z"/>
<path d="M4470 3110 c0 -5 5 -10 11 -10 5 0 7 5 4 10 -3 6 -8 10 -11 10 -2 0
-4 -4 -4 -10z"/>
<path d="M2347 3103 c-7 -6 48 -79 88 -118 12 -11 25 -29 29 -40 5 -13 10 -16
13 -7 3 6 10 9 16 6 7 -4 -5 11 -25 32 -21 22 -38 45 -38 51 0 6 -8 10 -17 9
-10 0 -18 5 -19 12 -1 6 -2 17 -3 23 0 5 -5 8 -10 5 -11 -7 -33 18 -24 27 3 4
4 7 1 7 -2 0 -8 -3 -11 -7z"/>
<path d="M6553 2714 c2 -13 -1 -26 -7 -28 -6 -3 -2 -5 9 -3 26 3 35 54 10 54
-12 0 -15 -7 -12 -23z"/>
<path d="M4828 2723 c7 -3 16 -2 19 1 4 3 -2 6 -13 5 -11 0 -14 -3 -6 -6z"/>
<path d="M4320 2600 c8 -5 22 -9 30 -9 10 0 8 3 -5 9 -27 12 -43 12 -25 0z"/>
<path d="M6538 2383 c-28 -7 -21 -21 7 -15 14 2 22 8 19 13 -3 5 -6 8 -7 8 -1
-1 -10 -3 -19 -6z"/>
<path d="M7137 2348 c-25 -18 -68 -52 -97 -76 -28 -23 -82 -59 -118 -79 -92
-50 -128 -78 -163 -126 -35 -48 -37 -87 -10 -202 10 -44 26 -119 35 -167 17
-92 33 -144 41 -136 6 6 -20 179 -41 265 -19 85 -17 159 5 210 20 43 42 61
174 145 41 26 96 65 122 87 26 21 64 47 83 58 20 10 45 26 56 36 19 17 19 17
-11 17 -19 0 -48 -13 -76 -32z"/>
<path d="M7870 2283 l-55 -58 58 55 c31 30 57 56 57 57 0 8 -10 -1 -60 -54z"/>
<path d="M6171 2166 c-9 -10 -8 -15 2 -19 8 -3 13 3 13 14 0 23 0 23 -15 5z"/>
<path d="M7705 2149 c-4 -5 -14 -8 -22 -5 -8 3 -11 1 -8 -4 8 -13 42 -13 50
-1 3 5 1 12 -4 15 -5 4 -13 1 -16 -5z"/>
<path d="M6100 2007 c0 -26 26 -33 35 -9 7 18 -2 32 -21 32 -8 0 -14 -10 -14
-23z"/>
<path d="M5884 1936 c-38 -17 -140 -116 -149 -146 -4 -12 -1 -27 6 -36 16 -20
54 -14 53 8 -1 10 14 29 32 43 19 15 34 35 34 46 0 33 31 77 58 82 14 3 39 1
55 -4 33 -9 43 -6 32 10 -9 15 -84 13 -121 -3z"/>
<path d="M6030 1940 c0 -5 7 -7 15 -4 8 4 15 8 15 10 0 2 -7 4 -15 4 -8 0 -15
-4 -15 -10z"/>
<path d="M6038 1795 c-2 -3 -38 -14 -79 -24 -41 -11 -63 -20 -49 -20 30 -1
120 22 146 37 15 9 16 11 3 12 -9 0 -18 -2 -21 -5z"/>
<path d="M4337 1779 c7 -7 15 -10 18 -7 3 3 -2 9 -12 12 -14 6 -15 5 -6 -5z"/>
<path d="M5815 1740 c-14 -7 -8 -8 20 -3 22 3 42 7 44 9 9 8 -45 2 -64 -6z"/>
<path d="M5743 1723 c9 -2 23 -2 30 0 6 3 -1 5 -18 5 -16 0 -22 -2 -12 -5z"/>
<path d="M5688 1713 c6 -2 18 -2 25 0 6 3 1 5 -13 5 -14 0 -19 -2 -12 -5z"/>
<path d="M5638 1703 c6 -2 18 -2 25 0 6 3 1 5 -13 5 -14 0 -19 -2 -12 -5z"/>
<path d="M5598 1693 c7 -3 16 -2 19 1 4 3 -2 6 -13 5 -11 0 -14 -3 -6 -6z"/>
<path d="M5538 1683 c7 -3 16 -2 19 1 4 3 -2 6 -13 5 -11 0 -14 -3 -6 -6z"/>
<path d="M6270 1636 c0 -2 8 -10 18 -17 15 -13 16 -12 3 4 -13 16 -21 21 -21
13z"/>
<path d="M3530 1516 c0 -15 9 -27 26 -35 15 -6 29 -9 32 -6 3 3 1 5 -5 5 -6 0
-14 11 -17 24 -8 33 -36 43 -36 12z"/>
<path d="M6485 1440 c-27 -18 -31 -18 -50 -3 -11 10 -8 5 6 -11 21 -22 32 -27
50 -21 23 8 23 8 4 15 -19 7 -19 8 5 18 17 7 30 6 40 -2 13 -10 13 -9 1 7 -17
21 -19 21 -56 -3z"/>
<path d="M3884 1378 l-19 -23 23 19 c21 18 27 26 19 26 -2 0 -12 -10 -23 -22z"/>
<path d="M5402 1380 c0 -14 2 -19 5 -12 2 6 2 18 0 25 -3 6 -5 1 -5 -13z"/>
<path d="M5392 1320 c0 -14 2 -19 5 -12 2 6 2 18 0 25 -3 6 -5 1 -5 -13z"/>
<path d="M5381 1274 c0 -11 3 -14 6 -6 3 7 2 16 -1 19 -3 4 -6 -2 -5 -13z"/>
<path d="M5016 1271 c-4 -5 3 -7 14 -4 23 6 26 13 6 13 -8 0 -17 -4 -20 -9z"/>
</g>
</svg>
