<?xml version="1.0" standalone="no"?>
<!DOCTYPE svg PUBLIC "-//W3C//DTD SVG 20010904//EN"
 "http://www.w3.org/TR/2001/REC-SVG-20010904/DTD/svg10.dtd">
<svg version="1.0" xmlns="http://www.w3.org/2000/svg"
 width="1200.000000pt" height="1200.000000pt" viewBox="0 0 1200.000000 1200.000000"
 preserveAspectRatio="xMidYMid meet">

<g transform="translate(0.000000,1200.000000) scale(0.100000,-0.100000)"
fill="#000000" stroke="none">
<path d="M617 10676 c-125 -45 -207 -168 -194 -294 12 -116 45 -160 352 -472
154 -157 471 -483 705 -725 234 -242 464 -481 512 -530 l87 -90 -48 -75 c-73
-114 -261 -464 -261 -485 0 -3 7 -5 16 -5 10 0 14 6 10 15 -5 13 14 15 135 15
91 0 138 4 134 10 -4 6 22 10 69 10 l76 0 327 -317 c181 -174 571 -560 868
-857 598 -600 737 -724 1075 -961 170 -119 374 -239 560 -329 330 -159 577
-226 842 -226 l126 0 204 -142 c295 -206 781 -526 913 -603 87 -50 115 -72
115 -87 0 -19 1 -20 25 -4 l25 16 0 -59 c0 -119 43 -267 121 -422 57 -111 116
-201 276 -421 296 -407 360 -598 282 -838 -20 -63 -89 -193 -109 -205 -6 -3
-10 -11 -10 -16 0 -23 201 107 330 215 341 283 562 629 645 1006 26 118 31
376 10 501 -61 369 -287 714 -555 849 -111 56 -193 74 -332 74 -102 0 -130 -3
-145 -16 -10 -8 -29 -19 -43 -23 -95 -27 -277 -178 -354 -294 -58 -86 -81
-142 -101 -238 -9 -43 -17 -79 -19 -80 -5 -5 -196 117 -361 232 -416 290 -986
716 -999 748 -5 12 -9 58 -9 102 1 138 57 264 193 429 124 150 266 237 398
244 l73 4 50 -41 c44 -38 49 -40 49 -20 0 41 -70 231 -125 339 -123 240 -286
451 -555 721 -347 348 -668 590 -1160 875 l-205 119 47 3 c36 2 46 6 41 18 -4
12 21 14 167 14 149 0 171 2 166 15 -5 13 20 15 185 15 124 0 188 3 184 10 -4
6 10 10 35 10 25 0 39 -4 35 -10 -3 -5 1 -10 9 -10 9 0 16 5 16 10 0 6 64 10
171 10 148 0 170 2 165 15 -5 13 27 15 245 15 219 0 250 2 245 15 -5 13 25 15
230 15 206 0 235 2 230 15 -5 13 67 15 609 15 542 0 614 -2 609 -15 -5 -13 51
-15 470 -15 418 0 475 -2 470 -15 -5 -13 51 -15 471 -15 423 0 476 -2 465 -15
-11 -13 -4 -15 50 -15 l62 0 -28 48 c-15 26 -71 112 -125 192 -722 1066 -1886
1795 -3169 1985 -467 69 -1004 63 -1475 -16 -855 -143 -1701 -550 -2333 -1123
l-72 -66 -78 49 c-42 26 -169 106 -282 176 -614 383 -1228 773 -1395 885 -123
82 -187 116 -262 135 -70 18 -126 18 -176 1z"/>
</g>
</svg>
