<svg xmlns="http://www.w3.org/2000/svg" viewBox="0 0 256 256" role="img" aria-labelledby="kubernetesTitle">
  <title id="kubernetesTitle">Kubernetes</title>
  <defs>
    <linearGradient id="k8sBg" x1="32" y1="32" x2="224" y2="224" gradientUnits="userSpaceOnUse">
      <stop offset="0" stop-color="#72dfff"/>
      <stop offset="1" stop-color="#3b82f6"/>
    </linearGradient>
  </defs>
  <path fill="url(#k8sBg)" d="M128 18 215 68v120l-87 50-87-50V68z"/>
  <circle cx="128" cy="128" r="52" fill="none" stroke="#ffffff" stroke-width="16"/>
  <circle cx="128" cy="128" r="13" fill="#ffffff"/>
  <g stroke="#ffffff" stroke-width="10" stroke-linecap="round">
    <path d="M128 76v24"/>
    <path d="m172 102-20 12"/>
    <path d="m172 154-20-12"/>
    <path d="M128 180v-24"/>
    <path d="m84 154 20-12"/>
    <path d="m84 102 20 12"/>
  </g>
  <g fill="#ffffff">
    <circle cx="128" cy="68" r="10"/>
    <circle cx="180" cy="98" r="10"/>
    <circle cx="180" cy="158" r="10"/>
    <circle cx="128" cy="188" r="10"/>
    <circle cx="76" cy="158" r="10"/>
    <circle cx="76" cy="98" r="10"/>
  </g>
</svg>
