<?xml version="1.0" standalone="no"?>
<!DOCTYPE svg PUBLIC "-//W3C//DTD SVG 20010904//EN"
 "http://www.w3.org/TR/2001/REC-SVG-20010904/DTD/svg10.dtd">
<svg version="1.0" xmlns="http://www.w3.org/2000/svg"
 width="800.000000pt" height="800.000000pt" viewBox="0 0 800.000000 800.000000"
 preserveAspectRatio="xMidYMid meet">

<g transform="translate(0.000000,800.000000) scale(0.100000,-0.100000)"
fill="#000000" stroke="none">
<path d="M2047 6269 c-10 -6 -23 -22 -28 -37 -9 -23 2 -50 90 -221 283 -556
424 -1023 438 -1453 15 -429 -71 -874 -239 -1238 -53 -114 -160 -287 -225
-364 -82 -97 -94 -117 -88 -146 7 -32 41 -60 72 -60 13 0 67 25 119 56 257
151 565 266 869 324 368 70 808 40 1270 -87 101 -27 278 -87 343 -115 58 -24
94 -23 120 5 26 28 27 56 6 168 -97 523 -382 1131 -773 1653 -154 205 -252
317 -436 502 -387 387 -818 701 -1287 935 -162 82 -218 99 -251 78z m357 -305
c903 -502 1627 -1290 2023 -2204 95 -219 227 -639 203 -648 -4 -2 -57 13 -117
33 -318 106 -730 175 -1040 175 -319 0 -671 -71 -989 -201 -67 -27 -124 -49
-128 -49 -4 0 10 33 32 73 135 247 228 539 284 897 19 125 22 183 22 425 1
247 -2 295 -22 405 -63 349 -201 759 -368 1093 -19 37 -31 67 -26 67 4 0 61
-30 126 -66z"/>
<path d="M3507 5714 c-29 -16 -43 -51 -33 -88 4 -15 39 -48 100 -91 211 -149
425 -349 588 -549 250 -305 533 -826 730 -1341 65 -168 170 -481 183 -541 3
-17 15 -41 27 -54 19 -20 27 -22 77 -16 31 4 108 9 171 12 l115 5 125 -45 c69
-24 146 -52 172 -62 57 -22 96 -12 116 30 16 32 4 73 -101 326 -214 520 -491
996 -767 1320 -165 193 -544 560 -753 729 -296 240 -655 414 -750 365z m875
-672 c142 -126 402 -391 513 -522 228 -269 467 -659 650 -1065 64 -141 125
-287 125 -299 0 -11 -23 -7 -92 16 -88 28 -100 30 -232 26 -87 -2 -140 1 -142
7 -10 43 -116 354 -154 455 -219 577 -536 1152 -809 1470 -31 36 -63 74 -71
85 -22 29 68 -44 212 -173z"/>
<path d="M6165 2829 c-112 -8 -599 -40 -1295 -84 -212 -14 -524 -34 -695 -45
-170 -11 -447 -29 -615 -40 -314 -20 -1006 -64 -1559 -100 -303 -19 -330 -24
-353 -55 -19 -25 -3 -75 62 -199 39 -73 70 -138 70 -144 0 -6 -26 -29 -57 -50
-32 -21 -105 -70 -163 -109 -125 -83 -173 -109 -224 -119 -50 -9 -76 -35 -76
-77 0 -77 87 -94 204 -39 36 17 143 83 238 148 181 123 256 164 299 164 32 0
89 -36 222 -141 189 -150 290 -199 428 -207 145 -8 240 30 429 173 159 120
179 130 270 130 89 0 122 -15 226 -100 175 -143 253 -187 364 -207 79 -13 173
1 257 41 32 16 112 71 177 123 158 128 189 143 291 143 101 0 154 -25 275
-127 167 -140 268 -188 399 -188 130 0 219 39 381 168 165 132 196 147 300
147 108 0 146 -19 290 -144 122 -105 209 -155 302 -172 59 -11 70 -10 92 5 29
18 41 54 32 92 -7 28 -56 54 -101 54 -43 0 -119 46 -220 132 -170 146 -257
188 -395 188 -132 0 -210 -35 -385 -175 -139 -111 -190 -137 -280 -142 -56 -3
-81 1 -124 19 -30 13 -56 28 -57 33 -1 6 65 43 148 84 192 95 432 232 578 329
120 81 445 321 493 365 37 35 38 87 1 116 -29 23 -43 24 -229 10z m-102 -187
c-58 -50 -285 -205 -402 -275 -157 -94 -469 -260 -560 -298 l-74 -31 -31 23
c-130 96 -214 129 -332 129 -132 0 -222 -42 -384 -179 -116 -97 -190 -133
-274 -133 -89 0 -162 36 -306 152 -146 118 -216 152 -326 158 -132 7 -198 -21
-389 -164 -163 -121 -201 -139 -306 -139 -81 0 -90 2 -170 42 -49 25 -136 84
-209 143 -164 131 -223 162 -310 159 l-65 -3 -42 79 c-24 43 -43 82 -43 87 0
4 11 8 25 8 14 0 163 9 332 20 170 11 446 29 616 40 169 11 445 29 615 40 436
28 1499 97 1882 121 179 11 406 26 505 33 99 7 203 14 230 14 l50 1 -32 -27z"/>
</g>
</svg>
