<?xml version="1.0" standalone="no"?>
<!DOCTYPE svg PUBLIC "-//W3C//DTD SVG 20010904//EN"
 "http://www.w3.org/TR/2001/REC-SVG-20010904/DTD/svg10.dtd">
<svg version="1.0" xmlns="http://www.w3.org/2000/svg"
 width="1890.000000pt" height="912.000000pt" viewBox="0 0 1890.000000 912.000000"
 preserveAspectRatio="xMidYMid meet">

<g transform="translate(0.000000,912.000000) scale(0.100000,-0.100000)"
fill="#000000" stroke="none">
<path d="M0 4560 l0 -4560 9450 0 9450 0 0 4560 0 4560 -9450 0 -9450 0 0
-4560z m958 4249 c13 -8 26 -26 29 -42 7 -34 21 -44 29 -22 6 13 8 14 15 3 5
-7 16 -13 26 -13 10 -1 17 -6 15 -13 -1 -7 5 -12 13 -12 11 0 14 -7 9 -24 -4
-17 -1 -25 13 -30 17 -7 17 -8 0 -17 -11 -7 -16 -17 -12 -29 4 -12 -1 -19 -15
-23 -11 -3 -20 -13 -20 -22 0 -11 -5 -15 -14 -12 -17 7 -29 -19 -20 -45 5 -16
2 -19 -13 -16 -13 2 -18 12 -18 34 0 27 -3 29 -27 26 -19 -3 -28 -10 -28 -22
0 -27 -27 -32 -44 -9 -12 17 -18 19 -35 10 -16 -9 -19 -17 -14 -43 6 -30 5
-31 -25 -25 -41 8 -60 -13 -42 -47 15 -28 7 -46 -21 -46 -23 0 -27 -45 -4 -54
17 -6 20 -42 5 -51 -14 -9 -12 -35 3 -35 14 0 16 -38 3 -58 -6 -10 -11 -10
-21 -2 -18 15 -35 4 -35 -22 0 -17 -2 -18 -15 -8 -13 10 -19 10 -35 -5 -18
-16 -20 -17 -26 -1 -4 10 -15 16 -28 14 -13 -2 -20 2 -18 10 1 7 -5 12 -15 10
-12 -2 -19 6 -24 30 -4 18 -15 39 -25 46 -16 12 -17 16 -4 32 12 13 12 18 3
21 -21 7 -15 39 10 56 16 12 18 16 7 16 -9 1 -21 -4 -26 -9 -19 -19 -38 14
-23 38 16 26 6 50 -23 54 -27 4 -37 37 -14 50 20 11 21 47 1 54 -24 9 -19 54
5 54 27 0 36 25 20 55 -16 31 2 59 32 49 27 -8 46 11 40 42 -6 33 16 49 40 28
23 -21 52 -14 56 14 5 30 52 32 52 2 0 -31 30 -37 49 -11 24 32 55 18 47 -20
-4 -22 -1 -31 14 -39 11 -6 20 -7 21 -3 0 4 2 18 3 29 3 28 55 72 81 70 11 -2
30 -9 43 -17z m12169 -111 c21 -55 21 -76 -1 -45 -17 22 -42 22 -55 0 -16 -30
-22 -8 -8 28 8 19 17 42 20 52 11 29 24 19 44 -35z m53 34 c0 -13 7 -18 21
-18 12 1 26 -7 33 -16 16 -26 -4 -52 -43 -56 l-31 -3 0 55 c0 31 5 56 10 56 6
0 10 -8 10 -18z m281 1 c1 -10 0 -30 -1 -45 -1 -16 3 -28 9 -28 6 0 11 -4 11
-10 0 -5 -9 -10 -19 -10 -15 0 -20 9 -23 38 -4 46 0 72 13 72 5 0 9 -8 10 -17z
m599 2 c19 -23 8 -50 -23 -53 -19 -2 -27 -9 -27 -23 0 -10 -4 -19 -10 -19 -5
0 -10 25 -10 55 0 54 1 55 29 55 16 0 34 -7 41 -15z m190 5 c0 -5 -4 -10 -10
-10 -5 0 -10 5 -10 10 0 6 5 10 10 10 6 0 10 -4 10 -10z m210 -5 c0 -8 6 -15
13 -16 10 0 10 -2 0 -6 -15 -6 -18 -53 -3 -53 6 0 10 -5 10 -11 0 -6 -8 -9
-17 -7 -27 5 -38 108 -12 108 5 0 9 -7 9 -15z m675 5 c4 -6 -5 -10 -19 -10
-34 0 -33 -16 2 -32 48 -23 22 -68 -32 -54 -33 8 -26 25 9 18 33 -6 33 15 0
28 -24 9 -34 38 -18 53 10 11 51 8 58 -3z m45 -22 c0 -30 0 -31 20 -13 11 10
22 16 25 13 3 -3 -1 -11 -9 -17 -14 -11 -13 -16 1 -37 10 -16 11 -24 4 -24 -6
0 -14 7 -17 15 -4 8 -10 15 -15 15 -5 0 -9 -7 -9 -15 0 -8 -4 -15 -10 -15 -5
0 -10 25 -10 55 0 30 5 55 10 55 6 0 10 -14 10 -32z m80 22 c0 -5 -4 -10 -10
-10 -5 0 -10 5 -10 10 0 6 5 10 10 10 6 0 10 -4 10 -10z m40 -29 c0 -22 3 -46
6 -55 4 -11 1 -16 -10 -16 -13 0 -16 11 -16 55 0 30 5 55 10 55 6 0 10 -18 10
-39z m40 -5 c0 -41 2 -44 30 -48 36 -5 50 7 20 17 -27 9 -22 39 8 43 12 2 22
-2 22 -8 0 -6 -4 -8 -10 -5 -5 3 -15 3 -21 -1 -7 -4 -2 -11 13 -18 42 -21 29
-41 -27 -41 l-50 0 -3 53 c-2 31 1 52 7 52 6 0 11 -20 11 -44z m655 35 c-36
-8 -39 -32 -5 -42 25 -7 25 -7 -3 -8 -39 -1 -33 -34 8 -42 27 -6 26 -7 -12 -8
l-43 -1 0 55 0 55 43 -1 c38 -1 39 -2 12 -8z m375 -1 c0 -5 -4 -10 -10 -10 -5
0 -10 5 -10 10 0 6 5 10 10 10 6 0 10 -4 10 -10z m-3050 -35 c26 -32 -13 -81
-47 -59 -35 22 -23 74 17 74 10 0 23 -7 30 -15z m40 -16 c0 -24 4 -30 18 -27
10 2 18 14 20 31 5 41 22 32 22 -11 0 -37 -2 -39 -32 -40 -18 0 -36 5 -40 11
-11 18 -10 67 2 67 6 0 10 -14 10 -31z m770 21 c0 -4 -7 -10 -15 -14 -8 -3
-15 -17 -15 -31 0 -14 -4 -25 -10 -25 -5 0 -10 17 -10 39 0 34 3 39 25 39 14
0 25 -4 25 -8z m64 4 c9 -4 16 -18 16 -34 0 -42 -51 -56 -70 -20 -20 38 12 70
54 54z m54 -46 c-3 -48 -5 -53 -28 -56 -23 -2 -24 -1 -7 11 11 10 17 28 17 56
0 22 5 41 11 41 6 0 9 -21 7 -52z m80 40 c22 -22 13 -38 -19 -38 -18 0 -28 -4
-24 -10 4 -6 16 -8 27 -4 14 4 18 2 14 -5 -9 -15 -39 -14 -54 1 -24 24 -7 68
28 68 9 0 21 -5 28 -12z m87 2 c4 -6 -5 -10 -19 -10 -38 0 -36 -37 2 -42 24
-4 25 -5 8 -13 -37 -16 -71 29 -46 60 14 17 46 20 55 5z m135 -1 c0 -6 -7 -9
-15 -6 -8 4 -17 2 -20 -3 -3 -5 4 -12 15 -15 25 -8 23 -38 -4 -43 -10 -2 -23
2 -30 8 -8 9 -6 11 11 6 12 -4 24 -2 28 4 3 5 0 10 -8 10 -19 0 -40 26 -32 40
8 14 55 13 55 -1z m710 -29 c0 -22 -4 -40 -10 -40 -5 0 -10 18 -10 40 0 22 5
40 10 40 6 0 10 -18 10 -40z m793 28 c4 -10 7 -10 18 0 20 19 31 14 17 -8 -10
-16 -10 -24 0 -40 13 -22 3 -27 -16 -8 -10 10 -15 10 -22 -2 -5 -8 -12 -11
-16 -7 -4 3 -1 14 6 22 10 12 10 19 2 27 -7 7 -12 16 -12 20 0 13 18 9 23 -4z
m131 -10 c15 -24 -4 -53 -33 -52 -14 0 -21 -5 -21 -18 0 -10 -4 -18 -10 -18
-5 0 -10 25 -10 56 l0 55 31 -3 c18 -2 37 -11 43 -20z m84 10 c22 -22 13 -38
-19 -38 -18 0 -28 -4 -24 -10 4 -6 16 -8 27 -4 14 4 18 2 14 -5 -9 -15 -39
-14 -54 1 -24 24 -7 68 28 68 9 0 21 -5 28 -12z m72 2 c0 -4 -7 -10 -15 -14
-8 -3 -15 -17 -15 -31 0 -14 -4 -25 -10 -25 -5 0 -10 17 -10 39 0 34 3 39 25
39 14 0 25 -4 25 -8z m30 -30 c0 -22 -4 -40 -10 -40 -5 0 -10 18 -10 40 0 22
5 40 10 40 6 0 10 -18 10 -40z m74 34 c9 -3 16 -15 16 -25 0 -15 -7 -19 -32
-19 -23 0 -29 -3 -19 -9 7 -5 22 -6 34 -3 14 3 18 1 13 -6 -10 -17 -51 -15
-66 3 -10 12 -10 21 -2 40 12 25 27 30 56 19z m98 -7 c11 -18 10 -67 -2 -67
-5 0 -10 14 -10 31 0 24 -4 30 -17 27 -11 -2 -19 -14 -21 -31 -5 -41 -22 -32
-22 11 0 37 2 39 32 40 18 0 36 -5 40 -11z m83 3 c4 -6 -5 -10 -19 -10 -38 0
-36 -37 2 -42 24 -4 25 -5 8 -13 -37 -16 -71 29 -46 60 14 17 46 20 55 5z m79
4 c9 -3 16 -15 16 -25 0 -15 -7 -19 -32 -19 -23 0 -29 -3 -19 -9 7 -5 22 -6
34 -3 14 3 18 1 13 -6 -10 -17 -51 -15 -66 3 -10 12 -10 21 -2 40 12 25 27 30
56 19z m-15536 -231 c14 -13 14 -17 3 -21 -10 -3 -8 -10 10 -23 20 -15 21 -19
6 -19 -14 0 -16 -5 -11 -25 5 -19 2 -25 -10 -25 -9 0 -16 -7 -16 -16 0 -8 -4
-12 -10 -9 -5 3 -10 1 -10 -4 0 -6 9 -11 20 -11 16 0 20 -7 20 -30 0 -23 -5
-30 -19 -30 -27 0 -35 -29 -14 -52 21 -24 6 -54 -25 -51 -30 3 -48 -22 -31
-43 11 -14 10 -18 -6 -30 -16 -12 -21 -12 -35 1 -24 22 -37 19 -44 -10 -8 -31
-46 -35 -46 -5 0 25 -35 27 -48 4 -7 -13 -13 -14 -30 -5 -15 8 -24 8 -34 -2
-15 -14 -58 -18 -58 -5 0 4 -7 8 -15 8 -8 0 -15 1 -15 3 0 1 -4 17 -9 35 -6
20 -6 32 0 32 5 0 9 -8 9 -18 0 -11 9 -27 20 -37 18 -16 23 -17 48 -5 15 7 30
13 35 12 4 -1 7 7 7 18 0 25 -5 25 -37 0 -14 -11 -29 -20 -34 -20 -13 0 -21
40 -10 54 6 7 10 23 9 37 -7 105 11 162 27 86 14 -66 73 -127 123 -127 9 0 -3
10 -27 22 -55 27 -81 69 -81 131 0 38 5 53 25 72 13 14 28 25 33 25 5 0 12 9
15 20 13 52 109 28 156 -40 13 -19 20 -26 16 -15 -18 50 5 77 27 30 22 -49 71
-10 52 42 -10 31 -51 44 -65 22 -13 -21 -20 -4 -10 23 8 21 15 25 41 22 17 -2
39 -11 48 -21z m-125 -19 c9 -9 -4 -35 -14 -28 -5 3 -9 12 -9 20 0 14 12 19
23 8z m-236 -106 c-3 -7 -5 -2 -5 12 0 14 2 19 5 13 2 -7 2 -19 0 -25z m388
-18 c3 -5 1 -10 -4 -10 -6 0 -11 5 -11 10 0 6 2 10 4 10 3 0 8 -4 11 -10z
m12885 -805 c0 -8 -7 -15 -15 -15 -8 0 -15 7 -15 15 0 8 7 15 15 15 8 0 15 -7
15 -15z m-6715 -75 c-3 -5 -10 -10 -16 -10 -5 0 -9 5 -9 10 0 6 7 10 16 10 8
0 12 -4 9 -10z m-5067 -223 c4 -20 -25 -34 -40 -19 -15 15 -1 44 19 40 10 -2
19 -11 21 -21z m8787 -102 c0 -13 -8 -21 -22 -23 -17 -3 -23 2 -23 16 0 10 3
22 7 26 13 13 38 1 38 -19z m-9345 -130 c0 -8 -7 -15 -15 -15 -8 0 -15 7 -15
15 0 8 7 15 15 15 8 0 15 -7 15 -15z m9520 -190 c0 -8 -9 -15 -20 -15 -11 0
-20 7 -20 15 0 8 9 15 20 15 11 0 20 -7 20 -15z m-5170 -235 c0 -5 -4 -10 -10
-10 -5 0 -10 5 -10 10 0 6 5 10 10 10 6 0 10 -4 10 -10z m8787 -16 c8 -22 -18
-37 -36 -20 -7 8 -10 19 -7 25 10 16 36 13 43 -5z m-9477 -39 c0 -8 -7 -15
-15 -15 -16 0 -20 12 -8 23 11 12 23 8 23 -8z m-1916 -54 c15 -42 21 -50 28
-36 9 15 6 41 -8 79 -4 11 -1 16 10 16 9 0 16 -7 16 -15 0 -8 5 -15 10 -15 6
0 10 7 10 15 0 8 7 15 16 15 11 0 14 -5 10 -16 -15 -38 -17 -64 -8 -80 8 -14
13 -7 28 39 13 41 23 57 35 57 16 0 14 -9 -13 -75 -31 -77 -53 -94 -64 -50 -3
14 -10 25 -14 25 -4 0 -11 -11 -14 -25 -11 -43 -33 -28 -60 40 -29 73 -32 89
-13 83 6 -3 21 -28 31 -57z m306 -6 c0 -37 4 -65 10 -65 6 0 10 -5 10 -11 0
-6 -10 -9 -22 -7 -21 3 -23 9 -26 76 -2 59 0 72 13 72 12 0 15 -13 15 -65z
m-58 8 c30 -27 22 -43 -23 -43 -28 0 -39 -4 -36 -12 2 -8 17 -12 36 -10 32 2
42 -11 15 -22 -46 -18 -84 7 -84 54 0 46 55 66 92 33z m179 1 c11 -14 9 -15
-20 -12 -40 4 -63 -21 -42 -46 9 -11 22 -13 44 -9 29 6 31 5 18 -11 -21 -26
-72 -17 -90 15 -13 24 -13 29 2 53 20 30 67 36 88 10z m111 -1 c22 -20 23 -51
1 -75 -34 -38 -93 -12 -93 42 0 46 55 66 92 33z m190 3 c4 -6 8 -30 8 -53 0
-32 -4 -43 -15 -43 -11 0 -15 12 -15 46 0 38 -3 45 -17 42 -13 -2 -19 -15 -21
-46 -2 -28 -8 -42 -18 -42 -10 0 -14 12 -14 45 0 25 -4 45 -8 45 -18 0 -32
-26 -32 -57 0 -23 -5 -33 -15 -33 -11 0 -15 13 -15 54 l0 54 78 0 c46 0 80 -5
84 -12z m125 -16 c12 -25 12 -25 -33 -28 -30 -2 -44 -7 -41 -15 2 -7 20 -11
42 -10 32 2 36 1 24 -13 -20 -24 -71 -14 -88 17 -13 24 -13 29 3 53 23 36 74
33 93 -4z m273 10 c16 -24 12 -90 -4 -90 -10 0 -16 14 -18 43 -2 29 -8 42 -18
42 -10 0 -16 -13 -18 -42 -2 -29 -8 -43 -17 -43 -9 0 -15 14 -17 43 -2 29 -8
42 -18 42 -10 0 -16 -13 -18 -42 -2 -29 -8 -43 -18 -43 -10 0 -14 14 -14 54
l0 54 75 -2 c55 -1 78 -5 85 -16z m51 -10 c6 -16 15 -30 19 -30 5 0 11 14 15
30 4 17 13 30 21 30 17 0 15 -11 -16 -90 -18 -46 -43 -71 -57 -56 -4 5 -2 11
5 13 17 7 15 41 -8 91 -16 35 -17 42 -4 42 8 0 20 -13 25 -30z m221 17 c4 -7
8 -31 8 -54 0 -31 -4 -43 -14 -43 -10 0 -16 14 -18 43 -2 29 -8 42 -18 42 -10
0 -16 -13 -18 -42 -2 -29 -8 -43 -18 -43 -10 0 -14 13 -14 53 l0 53 42 1 c24
1 46 -3 50 -10z m108 -6 c5 -11 10 -35 10 -54 l0 -34 -47 1 c-38 1 -48 5 -51
19 -5 25 16 47 45 47 14 0 22 4 18 11 -4 5 -17 9 -28 8 -35 -2 -43 1 -27 11
26 17 68 12 80 -9z m190 -1 c16 -24 12 -90 -4 -90 -10 0 -16 14 -18 43 -2 29
-8 42 -18 42 -10 0 -16 -13 -18 -42 -2 -29 -8 -43 -17 -43 -9 0 -15 14 -17 43
-2 29 -8 42 -18 42 -10 0 -16 -13 -18 -42 -2 -29 -8 -43 -18 -43 -10 0 -14 14
-14 54 l0 54 75 -2 c55 -1 78 -5 85 -16z m114 4 c29 -28 20 -44 -25 -44 -28 0
-39 -4 -36 -12 2 -7 18 -12 36 -12 33 2 42 -10 15 -20 -26 -10 -47 -7 -66 11
-36 33 -13 93 37 93 13 0 31 -7 39 -16z m106 -39 c0 -42 -3 -55 -15 -55 -12 0
-15 13 -15 55 0 42 3 55 15 55 12 0 15 -13 15 -55z m98 37 c3 -9 -3 -11 -22
-6 -34 8 -34 -9 0 -24 18 -9 24 -19 22 -34 -3 -25 -26 -33 -64 -24 -35 9 -20
27 16 19 39 -7 39 12 0 26 -29 10 -40 37 -23 55 12 11 66 2 71 -12z m-1118
-81 c0 -26 -16 -35 -24 -15 -10 25 -7 34 9 34 8 0 15 -9 15 -19z m-1310 -110
c0 -14 -18 -23 -30 -16 -6 4 -8 11 -5 16 8 12 35 12 35 0z m10605 -196 c0 -13
-8 -21 -22 -23 -17 -3 -23 2 -23 16 0 10 3 22 7 26 13 13 38 1 38 -19z m3500
-30 c0 -30 -39 -27 -43 3 -3 20 0 23 20 20 15 -2 23 -10 23 -23z m-11405 -25
c0 -5 -4 -10 -10 -10 -5 0 -10 5 -10 10 0 6 5 10 10 10 6 0 10 -4 10 -10z
m-670 -120 l0 -91 30 16 c37 19 93 19 130 0 51 -26 60 -58 60 -215 l0 -140
-50 0 -50 0 0 120 c0 107 -2 122 -20 140 -11 11 -29 20 -40 20 -11 0 -29 -9
-40 -20 -18 -18 -20 -33 -20 -140 l0 -120 -50 0 -50 0 0 260 0 260 50 0 50 0
0 -90z m394 74 c19 -18 21 -65 4 -82 -29 -29 -108 -2 -108 37 0 51 69 81 104
45z m-1834 -156 c82 -219 67 -216 140 -24 l63 166 63 0 64 0 0 -245 0 -245
-50 0 -49 0 -3 153 -3 152 -55 -150 -56 -150 -39 0 -40 0 -55 145 -55 145 -3
-147 -3 -148 -49 0 -49 0 -3 93 c-2 50 -2 161 0 245 l3 152 63 0 63 0 53 -142z
m3198 -57 c-3 -183 -5 -202 -24 -227 -36 -49 -70 -67 -133 -72 -99 -7 -175 43
-188 123 l-6 35 56 0 c49 0 55 -2 61 -23 7 -29 48 -49 82 -41 46 12 54 47 54
234 l0 170 51 0 50 0 -3 -199z m-2288 119 l0 -50 40 0 40 0 0 -40 0 -40 -40 0
-40 0 0 -89 c0 -98 10 -117 55 -108 25 4 26 3 23 -42 l-3 -46 -44 -3 c-104 -8
-131 31 -131 183 l0 105 -30 0 c-28 0 -30 2 -30 40 0 38 2 40 30 40 29 0 30 1
30 50 l0 50 50 0 50 0 0 -50z m270 0 l0 -50 40 0 40 0 0 -40 0 -40 -40 0 -40
0 0 -74 c0 -41 5 -87 10 -102 9 -24 14 -26 46 -21 l35 6 -3 -47 -3 -47 -57 -3
c-51 -3 -60 0 -90 27 l-33 29 -3 116 c-4 115 -4 116 -28 116 -21 0 -24 4 -24
40 0 36 3 40 25 40 23 0 25 3 25 50 l0 50 50 0 50 0 0 -50z m-545 -54 c63 -27
75 -62 75 -219 l0 -138 -57 -1 c-32 0 -88 -1 -125 -2 -61 -1 -69 2 -97 28 -58
55 -50 127 19 174 30 21 43 23 98 19 57 -4 62 -3 62 16 0 26 -28 57 -50 57
-10 0 -29 -9 -43 -20 -29 -23 -107 -28 -107 -7 0 25 38 74 71 90 42 20 108 22
154 3z m1525 -5 c44 -23 80 -90 80 -148 l0 -43 -119 0 -118 0 5 -25 c5 -29 46
-65 74 -65 10 0 30 11 44 25 19 19 35 25 70 25 42 0 45 -2 39 -22 -32 -109
-187 -146 -273 -65 -41 38 -56 78 -56 147 0 89 37 152 104 179 41 16 112 13
150 -8z m1343 5 c62 -25 72 -54 75 -214 l4 -143 -59 1 c-32 0 -79 -2 -104 -6
-118 -16 -196 76 -142 167 26 43 75 63 145 56 52 -5 58 -3 58 14 0 24 -34 59
-58 59 -11 0 -27 -9 -37 -20 -25 -28 -105 -29 -105 -1 0 26 38 71 74 87 40 17
108 18 149 0z m383 -2 c34 -17 74 -69 74 -98 0 -26 -91 -23 -108 4 -8 14 -23
20 -47 20 -45 0 -69 -34 -69 -100 0 -66 24 -100 69 -100 24 0 39 6 47 20 10
15 24 20 60 20 55 0 61 -12 28 -65 -59 -95 -222 -84 -281 19 -33 58 -33 154 0
212 43 76 145 107 227 68z m407 7 l67 0 0 -240 0 -241 -55 0 -55 0 0 66 c0 59
-2 65 -17 59 -137 -59 -261 67 -225 226 23 98 79 143 167 134 28 -2 80 -4 118
-4z m795 -18 c38 -28 60 -70 68 -130 l7 -53 -123 0 -122 0 6 -27 c15 -61 80
-82 120 -38 28 31 106 37 106 9 0 -30 -40 -82 -76 -99 -50 -23 -139 -17 -181
13 -103 73 -95 267 13 330 50 29 139 27 182 -5z m337 13 c30 -13 75 -66 75
-88 0 -15 -97 -8 -110 7 -16 20 -64 19 -80 0 -19 -22 -5 -32 76 -54 81 -23
114 -54 114 -107 0 -77 -55 -124 -144 -124 -77 0 -149 44 -158 95 -3 17 3 20
41 23 33 3 49 -2 66 -18 31 -29 89 -25 93 7 3 18 -4 24 -40 33 -99 27 -128 42
-144 72 -18 34 -14 89 8 116 42 50 133 67 203 38z m-3585 -176 l0 -180 -50 0
-50 0 0 180 0 180 50 0 50 0 0 -180z m560 58 c0 -99 3 -125 17 -140 21 -24 58
-23 83 2 18 18 20 33 20 140 l0 120 50 0 50 0 0 -180 0 -180 -50 0 c-28 0 -50
5 -50 10 0 6 -14 3 -32 -6 -46 -24 -122 -15 -156 20 -27 26 -27 29 -30 181
l-3 155 50 0 51 0 0 -122z m2140 0 c0 -99 3 -125 17 -140 19 -22 52 -23 79 -4
17 13 19 29 22 140 l4 126 49 0 49 0 0 -180 0 -180 -50 0 c-27 0 -50 4 -50 9
0 6 -17 3 -37 -6 -57 -23 -121 -13 -155 26 -28 31 -28 31 -28 181 l0 150 50 0
50 0 0 -122z m1123 -149 c45 -61 -38 -133 -95 -82 -26 23 -24 78 5 98 30 22
66 15 90 -16z m3382 -184 c0 -13 -8 -21 -22 -23 -17 -3 -23 2 -23 16 0 10 3
22 7 26 13 13 38 1 38 -19z m2063 -17 c-3 -7 -11 -13 -18 -13 -7 0 -15 6 -17
13 -3 7 4 12 17 12 13 0 20 -5 18 -12z m-10390 -350 c3 -36 2 -38 -27 -38 -31
0 -51 -22 -51 -54 0 -12 10 -16 35 -16 33 0 35 -2 35 -35 0 -33 -2 -35 -35
-35 l-35 0 0 -125 0 -125 -45 0 -45 0 0 125 0 125 -25 0 c-22 0 -25 4 -25 35
0 30 3 35 24 35 21 0 24 6 29 47 7 68 50 105 115 101 46 -3 47 -3 50 -40z
m2940 10 c7 -7 12 -24 12 -38 0 -33 -17 -50 -49 -50 -28 0 -61 26 -61 48 0 41
69 69 98 40z m-3625 -12 c39 -16 87 -70 87 -97 0 -31 -76 -27 -106 6 -27 29
-93 35 -114 11 -24 -30 -8 -60 40 -75 134 -41 144 -46 168 -81 19 -28 23 -44
19 -78 -8 -76 -72 -122 -167 -122 -83 0 -144 37 -169 103 l-11 27 49 0 c38 0
52 -5 71 -25 18 -19 34 -25 65 -25 46 0 65 13 65 46 0 30 -15 40 -90 59 -111
28 -139 55 -140 131 0 59 24 98 74 120 40 17 118 18 159 0z m2767 -36 l0 -40
-105 0 -105 0 0 -45 0 -45 95 0 95 0 0 -40 0 -40 -95 0 -95 0 0 -50 0 -50 105
0 105 0 0 -40 0 -40 -150 0 -150 0 0 215 0 215 150 0 150 0 0 -40z m-1932 -27
c3 -42 4 -43 38 -43 32 0 34 -2 34 -35 0 -33 -2 -35 -35 -35 l-36 0 3 -87 3
-88 33 0 c32 0 33 -1 30 -40 l-3 -40 -47 -3 c-90 -6 -118 35 -118 173 0 78 -2
85 -20 85 -16 0 -20 7 -20 35 0 28 4 35 20 35 17 0 20 7 20 38 0 49 5 54 55
50 39 -3 40 -4 43 -45z m-472 -49 c53 -25 79 -76 79 -154 0 -50 -5 -73 -23
-101 -58 -94 -204 -92 -262 3 -28 46 -28 150 0 196 41 67 131 92 206 56z
m1263 0 c49 -29 55 -50 59 -185 l4 -126 -108 -7 c-97 -7 -110 -6 -133 12 -58
42 -64 117 -15 163 22 21 35 24 95 24 75 0 85 9 49 45 -24 24 -43 25 -60 5
-14 -17 -100 -21 -100 -4 0 68 136 116 209 73z m319 -31 l3 -43 -40 0 c-60 0
-71 -22 -71 -142 l0 -98 -45 0 -45 0 0 161 0 161 55 -4 c31 -3 58 -1 61 4 3 5
22 8 42 6 36 -3 37 -4 40 -45z m271 13 c27 -26 51 -89 51 -135 0 -20 -6 -21
-105 -21 -116 0 -128 -8 -80 -55 29 -30 45 -31 78 -5 26 21 97 28 97 10 0 -6
-7 -24 -15 -40 -47 -90 -208 -78 -257 20 -39 76 -11 200 54 240 49 31 137 24
177 -14z m840 20 c42 -22 51 -54 51 -191 l0 -125 -45 0 -45 0 0 109 c0 86 -3
113 -16 125 -20 21 -43 20 -66 -1 -15 -14 -18 -32 -18 -125 l0 -108 -45 0 -45
0 0 160 0 161 60 -2 c33 -1 63 1 67 4 11 12 73 7 102 -7z m359 4 l52 1 0 -160
c0 -88 -5 -172 -11 -188 -16 -42 -58 -82 -96 -89 -23 -4 -33 -12 -33 -25 0
-13 -7 -19 -21 -19 -16 0 -20 5 -16 19 4 15 -2 21 -31 26 -41 8 -92 54 -92 84
0 18 6 21 40 21 27 0 47 -7 60 -20 38 -38 93 -20 106 34 6 26 5 27 -14 17 -30
-16 -98 -14 -132 4 -79 41 -94 191 -27 264 32 34 56 41 112 36 28 -3 74 -5
103 -5z m515 -1 c47 -21 57 -56 57 -193 l0 -126 -45 0 -45 0 0 103 c0 110 -13
147 -50 147 -41 0 -50 -25 -50 -141 l0 -109 -50 0 -50 0 0 161 0 160 60 -2
c33 -1 63 1 67 4 10 11 80 8 106 -4z m335 -9 c39 -24 62 -73 62 -130 l0 -40
-100 0 c-93 0 -100 -1 -100 -20 0 -26 34 -60 60 -60 11 0 29 9 40 20 13 13 33
20 60 20 51 0 52 -17 6 -68 -34 -36 -36 -37 -104 -37 -61 0 -74 3 -97 25 -42
39 -55 74 -55 142 0 73 21 117 72 148 43 26 113 26 156 0z m351 -14 c27 -26
51 -89 51 -135 0 -20 -6 -21 -105 -21 -116 0 -128 -8 -80 -55 29 -30 45 -31
78 -5 26 21 97 28 97 10 0 -6 -7 -24 -15 -40 -47 -90 -208 -78 -257 20 -39 76
-11 200 54 240 49 31 137 24 177 -14z m291 -14 l0 -48 -35 4 c-58 7 -65 -6
-65 -129 l0 -109 -45 0 -45 0 0 161 0 160 55 -2 c30 -1 58 1 62 4 3 4 21 7 40
7 33 0 33 0 33 -48z m-3859 -52 c12 -50 26 -85 30 -78 4 7 15 48 25 91 l18 77
37 0 c42 0 42 0 70 -127 7 -29 14 -51 16 -49 3 2 15 42 27 88 l23 83 48 3 c36
2 46 0 43 -10 -3 -7 -25 -80 -49 -161 l-43 -148 -45 3 -45 3 -20 78 c-11 42
-23 77 -26 77 -4 0 -15 -36 -25 -80 l-18 -80 -46 0 -46 0 -33 113 c-18 61 -39
133 -47 160 l-14 47 48 0 48 0 24 -90z m2579 -70 l0 -160 -45 0 -45 0 0 160 0
160 45 0 45 0 0 -160z m7031 5 c-1 -15 -24 -12 -29 3 -3 9 2 13 12 10 10 -1
17 -7 17 -13z m4539 -19 c0 -8 -5 -18 -11 -22 -14 -8 -33 11 -25 25 10 16 36
13 36 -3z m-4032 -34 c3 -16 -2 -22 -17 -22 -24 0 -35 15 -27 36 9 23 40 13
44 -14z m-6158 -31 c24 -46 0 -91 -49 -91 -35 0 -51 17 -51 55 0 40 16 55 57
55 22 0 36 -6 43 -19z m-8342 -158 c-4 -22 -22 -20 -26 1 -2 10 3 16 13 16 10
0 15 -7 13 -17z m17942 -263 c0 -5 -7 -10 -15 -10 -8 0 -15 5 -15 10 0 6 7 10
15 10 8 0 15 -4 15 -10z m-14830 -235 c0 -37 -4 -65 -10 -65 -6 0 -10 28 -10
65 0 37 4 65 10 65 6 0 10 -28 10 -65z m40 46 c0 -11 -4 -23 -10 -26 -6 -4
-10 5 -10 19 0 14 5 26 10 26 6 0 10 -9 10 -19z m468 7 c18 -18 15 -33 -14
-67 l-26 -31 24 0 c18 0 28 11 47 55 13 30 30 55 37 55 11 0 10 -9 -6 -40 -24
-47 -24 -50 -5 -50 8 0 15 7 15 15 0 8 5 15 10 15 6 0 10 -6 10 -14 0 -8 6
-16 12 -18 9 -3 7 -10 -6 -24 -14 -13 -21 -15 -24 -6 -4 14 -62 17 -62 2 0 -5
-21 -10 -46 -10 l-45 0 23 31 c53 72 52 68 32 76 -10 4 -19 2 -22 -5 -2 -7
-10 -12 -18 -12 -12 0 -12 4 -4 20 12 22 49 27 68 8z m812 -53 c0 -37 -4 -65
-10 -65 -6 0 -10 28 -10 65 0 37 4 65 10 65 6 0 10 -28 10 -65z m100 0 l0 -65
-35 0 c-25 0 -37 6 -46 21 -16 31 3 69 36 69 18 0 25 5 25 20 0 11 5 20 10 20
6 0 10 -28 10 -65z m550 55 c0 -5 -4 -10 -10 -10 -5 0 -10 5 -10 10 0 6 5 10
10 10 6 0 10 -4 10 -10z m359 -4 c8 -9 8 -16 2 -20 -5 -4 -12 -2 -16 4 -9 14
-45 12 -45 -3 0 -7 13 -18 30 -24 35 -13 47 -37 29 -59 -17 -21 -73 -15 -77 9
-3 16 -1 17 16 6 26 -16 59 -4 42 16 -6 7 -21 15 -33 17 -22 3 -33 28 -23 54
7 18 60 18 75 0z m171 4 c0 -5 -4 -10 -10 -10 -5 0 -10 -4 -10 -10 0 -14 27
-12 34 3 5 10 7 10 12 0 3 -7 17 -13 30 -13 16 0 27 -8 33 -22 l8 -23 7 23 c9
29 33 28 39 0 l4 -23 8 23 c8 24 25 30 25 8 0 -53 -49 -105 -51 -53 l0 22 -11
-22 c-16 -34 -35 -28 -45 15 -10 44 -36 50 -41 10 -2 -20 1 -28 12 -28 9 0 16
-5 16 -11 0 -6 -10 -9 -22 -7 -19 2 -24 10 -26 41 -5 53 -32 51 -32 -3 0 -28
-4 -40 -14 -40 -18 0 -26 73 -12 108 9 22 46 32 46 12z m600 0 c0 -5 -13 -10
-30 -10 -23 0 -30 -4 -30 -20 0 -16 7 -20 31 -20 17 0 28 -4 24 -10 -3 -5 -17
-10 -31 -10 -15 0 -24 -6 -24 -15 0 -10 10 -15 30 -15 17 0 30 -4 30 -10 0 -5
-18 -10 -40 -10 l-40 0 0 65 0 65 40 0 c22 0 40 -4 40 -10z m240 0 c0 -5 -4
-10 -10 -10 -5 0 -10 5 -10 10 0 6 5 10 10 10 6 0 10 -4 10 -10z m490 1 c0 -5
-6 -12 -12 -14 -10 -4 -9 -8 2 -16 10 -7 11 -11 3 -11 -8 0 -13 -15 -13 -40 0
-22 -4 -40 -10 -40 -5 0 -10 15 -10 33 0 18 -5 38 -12 45 -8 8 -8 12 -1 12 6
0 13 9 16 20 5 20 37 29 37 11z m470 -1 c0 -5 -13 -10 -30 -10 -23 0 -30 -4
-30 -20 0 -16 7 -20 31 -20 17 0 28 -4 24 -10 -3 -5 -17 -10 -31 -10 -19 0
-24 -5 -24 -25 0 -14 -4 -25 -10 -25 -6 0 -10 28 -10 65 l0 65 40 0 c22 0 40
-4 40 -10z m-2390 -20 c0 -5 8 -10 18 -10 16 -1 16 -1 0 -11 -22 -12 -24 -59
-3 -59 8 0 15 -5 15 -11 0 -6 -10 -9 -22 -7 -19 2 -24 11 -28 44 -3 23 -4 46
-2 53 5 14 22 15 22 1z m-1738 -24 c14 -21 9 -76 -7 -76 -10 0 -15 11 -15 35
0 19 -4 35 -10 35 -5 0 -10 -16 -10 -35 0 -24 -5 -35 -15 -35 -11 0 -15 11
-15 36 0 45 -24 42 -28 -4 -5 -48 -22 -38 -22 13 l0 44 58 0 c31 -1 60 -6 64
-13z m166 -33 c3 -41 2 -43 -25 -43 -16 0 -34 5 -40 11 -17 17 -4 39 23 39 13
0 24 5 24 11 0 7 -10 9 -25 5 -14 -4 -25 -3 -25 2 0 16 14 23 40 20 22 -3 25
-8 28 -45z m397 20 l8 -28 10 28 c6 15 17 27 24 27 9 0 6 -16 -9 -60 -12 -33
-27 -60 -34 -60 -7 0 -10 8 -8 18 3 9 -2 36 -10 60 -12 34 -13 42 -2 42 8 0
17 -12 21 -27z m133 15 c21 -21 13 -38 -18 -38 -16 0 -30 -4 -30 -9 0 -19 17
-19 48 0 18 10 41 19 52 19 11 0 20 5 20 11 0 7 -10 9 -26 5 -19 -5 -25 -3
-22 6 3 7 18 13 34 13 27 0 29 -3 32 -42 3 -43 3 -43 -32 -43 -19 0 -36 6 -39
13 -4 10 -7 10 -18 0 -38 -37 -95 9 -70 56 13 23 50 28 69 9z m162 3 c0 -5 -7
-11 -15 -15 -9 -3 -15 -18 -15 -36 0 -16 -4 -30 -10 -30 -5 0 -10 20 -10 45 0
41 2 45 25 45 14 0 25 -4 25 -9z m75 -2 c11 -16 -3 -23 -19 -10 -8 7 -17 8
-20 3 -3 -5 6 -14 20 -21 16 -7 24 -18 22 -29 -4 -20 -45 -29 -61 -13 -15 15
0 26 17 12 10 -8 16 -9 21 -1 3 5 -5 14 -19 20 -25 9 -34 29 -19 43 10 11 51
8 58 -4z m176 -10 c16 -30 -3 -69 -34 -69 -29 0 -47 17 -47 45 0 45 60 63 81
24z m346 4 c3 -8 -6 -11 -24 -10 -22 2 -28 -2 -28 -18 0 -16 6 -20 28 -18 34
2 32 -20 -2 -25 -43 -7 -69 46 -39 76 15 15 60 12 65 -5z m73 7 c0 -5 -7 -10
-15 -10 -10 0 -15 -11 -15 -35 0 -24 -5 -35 -15 -35 -11 0 -15 12 -15 45 0 43
1 45 30 45 17 0 30 -4 30 -10z m80 -9 c15 -29 13 -31 -26 -31 -31 0 -35 -2
-24 -14 10 -13 16 -12 46 5 19 10 44 19 55 19 11 0 17 5 14 10 -3 6 -18 7 -33
3 -24 -6 -26 -5 -13 10 17 21 57 22 65 1 3 -9 6 -29 6 -45 0 -26 -3 -29 -34
-29 -19 0 -38 5 -42 11 -4 8 -9 8 -17 0 -15 -15 -50 -14 -65 1 -7 7 -12 21
-12 33 0 44 60 63 80 26z m190 -26 c0 -25 -4 -45 -10 -45 -5 0 -10 20 -10 45
0 25 5 45 10 45 6 0 10 -20 10 -45z m47 18 l10 -28 11 28 c10 22 32 38 32 22
0 -18 -34 -85 -44 -85 -6 0 -19 20 -28 45 -13 34 -14 45 -4 45 6 0 17 -12 23
-27z m131 15 c22 -22 13 -38 -19 -38 -20 0 -29 -4 -26 -12 5 -14 11 -14 40 -3
13 6 16 3 11 -9 -9 -23 -61 -21 -74 3 -15 30 4 71 33 71 13 0 28 -5 35 -12z
m283 -9 c16 -30 -3 -69 -34 -69 -29 0 -47 17 -47 45 0 45 60 63 81 24z m327 9
c7 -7 12 -27 12 -46 0 -32 -1 -33 -37 -30 -30 2 -38 7 -38 23 0 13 8 21 23 23
12 2 22 8 22 14 0 6 -10 8 -25 4 -19 -5 -23 -3 -19 9 7 18 45 20 62 3z m82 2
c0 -5 -7 -10 -15 -10 -10 0 -15 -11 -15 -35 0 -24 -5 -35 -15 -35 -11 0 -15
12 -15 45 0 43 1 45 30 45 17 0 30 -4 30 -10z m80 -9 c15 -29 13 -31 -26 -31
-31 0 -35 -2 -24 -15 10 -12 16 -13 27 -4 15 13 28 6 18 -10 -8 -15 -48 -14
-63 1 -7 7 -12 21 -12 33 0 44 60 63 80 26z m278 -28 c4 -50 -15 -59 -20 -10
-2 20 -8 32 -18 32 -10 0 -16 -12 -18 -32 -5 -50 -22 -39 -22 13 l0 45 38 -3
c36 -3 37 -4 40 -45z m102 -1 c0 -26 -5 -53 -12 -60 -17 -17 -53 -15 -68 3
-14 17 -7 19 20 5 13 -7 21 -7 25 0 3 5 -2 10 -12 10 -25 0 -43 19 -43 45 0
30 19 45 57 45 33 0 33 0 33 -48z m40 3 c0 -25 -4 -45 -10 -45 -5 0 -10 20
-10 45 0 25 5 45 10 45 6 0 10 -20 10 -45z m98 -2 c4 -50 -15 -59 -20 -10 -2
20 -8 32 -18 32 -10 0 -16 -12 -18 -32 -5 -50 -22 -39 -22 13 l0 45 38 -3 c36
-3 37 -4 40 -45z m92 30 c10 -17 10 -17 20 0 19 31 80 16 80 -20 0 -8 -12 -13
-31 -13 -20 0 -29 -4 -26 -12 5 -14 10 -14 42 -2 18 7 18 6 6 -9 -18 -23 -58
-21 -71 3 -8 14 -21 20 -47 20 -30 0 -34 -2 -23 -15 10 -12 16 -13 27 -4 15
13 28 6 18 -10 -8 -15 -48 -14 -63 1 -7 7 -12 21 -12 33 0 43 58 63 80 28z
m160 8 c0 -5 -7 -11 -15 -15 -9 -3 -15 -18 -15 -36 0 -16 -4 -30 -10 -30 -5 0
-10 20 -10 45 0 41 2 45 25 45 14 0 25 -4 25 -9z m200 0 c0 -5 -7 -11 -15 -15
-9 -3 -15 -18 -15 -36 0 -16 -4 -30 -10 -30 -5 0 -10 20 -10 45 0 41 2 45 25
45 14 0 25 -4 25 -9z m78 -3 c7 -7 12 -21 12 -33 0 -47 -62 -63 -81 -21 -22
47 33 90 69 54z m150 -35 c2 -26 -1 -43 -7 -43 -6 0 -11 16 -11 35 0 24 -5 35
-15 35 -10 0 -15 -11 -15 -35 0 -19 -4 -35 -10 -35 -5 0 -10 16 -10 35 0 24
-5 35 -15 35 -10 0 -15 -11 -15 -35 0 -19 -4 -35 -10 -35 -5 0 -10 20 -10 45
l0 45 58 -2 57 -3 3 -42z m242 38 c0 -5 -7 -11 -15 -15 -9 -3 -15 -18 -15 -36
0 -16 -4 -30 -10 -30 -5 0 -10 20 -10 45 0 41 2 45 25 45 14 0 25 -4 25 -9z
m78 -3 c7 -7 12 -27 12 -46 0 -32 -1 -33 -37 -30 -30 2 -38 7 -38 23 0 13 8
21 23 23 12 2 22 8 22 14 0 6 -10 8 -25 4 -19 -5 -23 -3 -19 9 7 18 45 20 62
3z m100 -35 c2 -26 -1 -43 -7 -43 -6 0 -11 16 -11 35 0 24 -5 35 -15 35 -10 0
-15 -11 -15 -35 0 -24 -5 -35 -15 -35 -11 0 -15 12 -15 46 l0 45 38 -3 c36 -3
37 -4 40 -45z m93 31 c12 -15 10 -16 -19 -10 -30 7 -32 6 -32 -19 0 -25 2 -26
32 -19 29 6 31 5 19 -10 -20 -24 -59 -20 -72 8 -23 50 38 91 72 50z m87 4 c21
-21 13 -38 -18 -38 -16 0 -30 -5 -30 -11 0 -7 11 -9 30 -6 23 5 28 3 23 -8 -8
-22 -60 -19 -73 4 -15 30 4 71 33 71 13 0 28 -5 35 -12z m8590 -66 c3 -16 -2
-22 -17 -22 -24 0 -35 15 -27 36 9 23 40 13 44 -14z m-11850 -9 c-2 -9 -8 -18
-15 -20 -7 -3 -9 3 -6 16 6 25 26 28 21 4z m3300 0 c-2 -9 -8 -18 -15 -20 -7
-3 -9 3 -6 16 6 25 26 28 21 4z m8195 -59 c9 -10 -4 -34 -18 -34 -17 0 -28 17
-20 30 7 11 28 13 38 4z m-12393 -139 c0 -37 -4 -65 -10 -65 -6 0 -10 28 -10
65 0 37 4 65 10 65 6 0 10 -28 10 -65z m560 28 c0 -34 1 -35 18 -20 27 25 50
22 28 -2 -17 -18 -17 -21 -1 -45 18 -28 6 -36 -15 -11 -7 8 -16 15 -21 15 -5
0 -9 -7 -9 -15 0 -8 -4 -15 -10 -15 -6 0 -10 28 -10 65 0 37 4 65 10 65 6 0
10 -16 10 -37z m100 27 c0 -5 -7 -10 -15 -10 -8 0 -15 5 -15 10 0 6 7 10 15
10 8 0 15 -4 15 -10z m980 0 c0 -5 -11 -10 -25 -10 -18 0 -25 -5 -25 -20 0
-15 7 -20 25 -20 14 0 25 -4 25 -10 0 -5 -11 -10 -25 -10 -20 0 -25 -5 -25
-25 0 -16 -6 -25 -15 -25 -12 0 -15 14 -15 65 l0 65 40 0 c22 0 40 -4 40 -10z
m140 -55 c0 -51 -3 -65 -15 -65 -12 0 -15 14 -15 65 0 51 3 65 15 65 12 0 15
-14 15 -65z m40 0 c0 -37 -4 -65 -10 -65 -6 0 -10 28 -10 65 0 37 4 65 10 65
6 0 10 -28 10 -65z m360 28 c0 -34 1 -35 18 -20 27 25 50 22 28 -2 -17 -18
-17 -21 -1 -45 18 -28 6 -36 -15 -11 -7 8 -16 15 -21 15 -5 0 -9 -7 -9 -15 0
-8 -4 -15 -10 -15 -6 0 -10 28 -10 65 0 37 4 65 10 65 6 0 10 -16 10 -37z
m304 21 c9 -8 16 -31 16 -49 0 -43 -22 -65 -66 -65 l-34 0 0 65 0 65 34 0 c19
0 42 -7 50 -16z m326 -49 c0 -37 -4 -65 -10 -65 -6 0 -10 28 -10 65 0 37 4 65
10 65 6 0 10 -28 10 -65z m670 0 c0 -51 -3 -65 -15 -65 -12 0 -15 14 -15 65 0
51 3 65 15 65 12 0 15 -14 15 -65z m480 0 l0 -65 -35 0 c-25 0 -37 6 -46 21
-16 31 3 69 36 69 18 0 25 5 25 20 0 11 5 20 10 20 6 0 10 -28 10 -65z m50 55
c0 -5 -7 -10 -15 -10 -8 0 -15 5 -15 10 0 6 7 10 15 10 8 0 15 -4 15 -10z
m190 -55 l0 -65 -35 0 c-24 0 -39 6 -47 20 -9 14 -24 20 -47 20 -29 0 -32 -2
-21 -15 10 -12 16 -13 27 -4 15 13 28 6 18 -10 -8 -15 -48 -14 -63 1 -29 29
-7 78 35 78 12 0 26 -7 31 -16 8 -14 10 -14 21 0 8 9 22 16 32 16 12 0 19 7
19 20 0 11 7 20 15 20 12 0 15 -14 15 -65z m-4244 30 c9 -8 11 -15 5 -15 -6 0
-11 -13 -11 -30 0 -16 5 -30 10 -30 6 0 10 -4 10 -10 0 -21 -40 -10 -44 13
-17 78 -5 107 30 72z m2000 0 c9 -8 11 -15 5 -15 -6 0 -11 -13 -11 -30 0 -31
16 -41 26 -15 4 8 17 15 30 15 13 0 24 5 24 11 0 7 -10 9 -26 5 -19 -5 -25 -3
-22 6 3 7 18 13 34 13 27 0 29 -3 32 -42 l3 -42 -60 1 -61 1 0 33 c0 18 -4 36
-10 39 -5 3 -10 1 -10 -5 0 -6 -10 -8 -25 -4 -33 8 -32 -4 1 -16 16 -7 24 -16
22 -28 -4 -22 -51 -28 -68 -8 -10 13 -10 16 3 16 9 0 19 -5 22 -10 4 -6 11 -8
16 -4 14 8 1 24 -21 24 -23 0 -33 25 -16 40 8 6 28 9 47 8 19 -1 34 3 37 10 5
16 10 15 28 -3z m1800 0 c9 -8 11 -15 5 -15 -6 0 -11 -13 -11 -30 0 -16 5 -30
10 -30 6 0 10 -4 10 -10 0 -5 -9 -10 -20 -10 -16 0 -20 7 -20 34 0 19 -4 38
-10 41 -5 3 -10 1 -10 -5 0 -6 -10 -8 -25 -4 -33 8 -32 -4 1 -16 16 -7 24 -16
22 -28 -4 -22 -51 -28 -68 -8 -10 13 -10 16 3 16 9 0 19 -5 22 -10 4 -6 11 -8
16 -4 14 8 1 24 -21 24 -23 0 -33 25 -16 40 8 6 28 9 47 8 19 -1 34 3 37 10 5
16 10 15 28 -3z m1992 -2 c2 -8 -5 -13 -17 -13 -12 0 -21 6 -21 16 0 18 31 15
38 -3z m-6261 -20 c3 -8 -6 -11 -24 -10 -22 2 -28 -2 -28 -18 0 -16 6 -20 28
-18 34 2 32 -20 -2 -25 -43 -7 -69 46 -39 76 15 15 60 12 65 -5z m43 -18 c0
-24 5 -35 15 -35 10 0 15 11 15 35 0 19 5 35 10 35 6 0 10 -20 10 -45 0 -43
-1 -45 -28 -45 -37 0 -52 17 -52 57 0 23 5 33 15 33 10 0 15 -11 15 -35z m130
25 c0 -5 -7 -10 -15 -10 -10 0 -15 -11 -15 -35 0 -24 -5 -35 -15 -35 -11 0
-15 12 -15 45 0 43 1 45 30 45 17 0 30 -4 30 -10z m60 0 c0 -5 -7 -10 -15 -10
-10 0 -15 -11 -15 -35 0 -19 -4 -35 -10 -35 -5 0 -10 20 -10 45 0 41 2 45 25
45 14 0 25 -4 25 -10z m78 -2 c22 -22 13 -38 -19 -38 -20 0 -29 -4 -26 -12 5
-14 10 -14 42 -2 18 7 18 6 6 -9 -35 -43 -98 3 -72 52 13 23 50 28 69 9z m100
-35 c2 -26 -1 -43 -7 -43 -6 0 -11 16 -11 36 0 28 -3 35 -17 32 -12 -2 -19
-14 -21 -36 -5 -49 -22 -38 -22 14 l0 45 38 -3 c36 -3 37 -4 40 -45z m147 27
c3 -11 10 -20 15 -20 5 0 12 9 15 20 6 20 25 28 25 11 0 -19 -43 -111 -52
-111 -6 0 -7 7 -4 16 3 8 -1 31 -9 51 -8 19 -15 39 -15 44 0 17 19 9 25 -11z
m232 -7 l7 -28 6 24 c8 35 26 37 38 4 9 -24 11 -25 11 -6 1 21 18 40 27 30 10
-9 -19 -87 -31 -87 -7 0 -16 10 -20 23 l-8 22 -4 -22 c-7 -36 -31 -27 -42 15
-13 46 -13 52 -1 52 5 0 13 -12 17 -27z m171 15 c7 -7 12 -21 12 -33 0 -47
-62 -63 -81 -21 -22 47 33 90 69 54z m82 2 c0 -5 -7 -10 -15 -10 -10 0 -15
-11 -15 -35 0 -19 -4 -35 -10 -35 -5 0 -10 20 -10 45 0 41 2 45 25 45 14 0 25
-4 25 -10z m130 -35 c0 -33 -4 -45 -15 -45 -11 0 -15 12 -15 45 0 33 4 45 15
45 11 0 15 -12 15 -45z m88 33 c18 -18 16 -78 -3 -78 -10 0 -15 11 -15 35 0
24 -5 35 -15 35 -10 0 -15 -11 -15 -35 0 -19 -4 -35 -10 -35 -5 0 -10 20 -10
45 0 43 1 45 28 45 15 0 33 -5 40 -12z m112 -29 c0 -56 -14 -79 -50 -79 -16 0
-32 5 -35 11 -11 17 3 23 20 9 12 -10 19 -10 27 -2 9 9 7 12 -8 12 -26 0 -44
19 -44 45 0 30 19 45 57 45 32 0 33 -1 33 -41z m224 25 c3 -9 6 -29 6 -45 0
-29 -2 -30 -37 -27 -30 2 -38 7 -38 23 0 14 8 21 28 23 15 2 25 8 22 13 -4 5
-18 6 -33 2 -24 -6 -26 -5 -13 10 17 21 57 22 65 1z m84 -2 c3 -11 0 -12 -16
-3 -13 7 -23 7 -27 2 -3 -5 5 -13 17 -17 30 -9 40 -25 26 -41 -13 -16 -54 -17
-63 -2 -11 16 3 23 19 10 10 -8 16 -9 21 -1 3 5 -5 14 -19 20 -25 9 -34 29
-19 44 12 11 56 2 61 -12z m230 -29 c3 -41 2 -43 -25 -43 -16 0 -34 5 -40 11
-17 17 -4 39 23 39 13 0 24 5 24 11 0 7 -10 9 -25 5 -14 -4 -25 -3 -25 2 0 16
14 23 40 20 22 -3 25 -8 28 -45z m282 12 c0 -24 5 -35 15 -35 10 0 15 11 15
35 0 19 5 35 10 35 6 0 10 -20 10 -45 0 -43 -1 -45 -28 -45 -37 0 -52 17 -52
57 0 23 5 33 15 33 10 0 15 -11 15 -35z m461 19 c12 -15 10 -16 -19 -10 -30 7
-32 6 -32 -19 0 -25 2 -26 32 -19 29 6 31 5 19 -10 -20 -24 -59 -20 -72 8 -23
50 38 91 72 50z m447 4 c22 -22 13 -38 -19 -38 -20 0 -29 -4 -26 -12 5 -14 10
-14 42 -2 18 7 18 6 6 -9 -35 -43 -98 3 -72 52 13 23 50 28 69 9z m47 -15 l8
-28 10 28 c6 15 17 27 25 27 10 0 12 -6 7 -17 -4 -10 -12 -30 -17 -45 -5 -16
-16 -28 -23 -28 -7 0 -18 12 -23 28 -5 15 -13 35 -17 45 -5 12 -2 17 8 17 8 0
18 -12 22 -27z m133 15 c22 -22 13 -38 -19 -38 -20 0 -29 -4 -26 -12 5 -14 10
-14 42 -2 18 7 18 6 6 -9 -35 -43 -98 3 -72 52 13 23 50 28 69 9z m130 0 c7
-7 12 -21 12 -33 0 -47 -62 -63 -81 -21 -22 47 33 90 69 54z m100 0 c27 -27 7
-78 -30 -78 -10 0 -18 -7 -18 -15 0 -8 -4 -15 -10 -15 -6 0 -10 27 -10 60 0
59 0 60 28 60 15 0 33 -5 40 -12z m100 0 c27 -27 7 -78 -30 -78 -10 0 -18 -7
-18 -15 0 -8 -4 -15 -10 -15 -6 0 -10 27 -10 60 0 59 0 60 28 60 15 0 33 -5
40 -12z m100 0 c22 -22 13 -38 -19 -38 -20 0 -29 -4 -26 -12 5 -14 10 -14 42
-2 18 7 18 6 6 -9 -35 -43 -98 3 -72 52 13 23 50 28 69 9z m72 3 c0 -5 -7 -11
-15 -15 -9 -3 -15 -18 -15 -36 0 -16 -4 -30 -10 -30 -5 0 -10 20 -10 45 0 41
2 45 25 45 14 0 25 -4 25 -9z m540 -26 c0 -24 5 -35 15 -35 10 0 15 11 15 35
0 19 5 35 10 35 6 0 10 -20 10 -45 0 -44 0 -45 -34 -45 -37 0 -46 12 -46 61 0
19 5 29 15 29 10 0 15 -11 15 -35z m190 -10 c0 -25 -4 -45 -10 -45 -5 0 -10
20 -10 45 0 25 5 45 10 45 6 0 10 -20 10 -45z m-700 -35 c0 -5 -7 -10 -15 -10
-8 0 -15 5 -15 10 0 6 7 10 15 10 8 0 15 -4 15 -10z m7510 -25 c0 -8 -7 -15
-15 -15 -8 0 -15 7 -15 15 0 8 7 15 15 15 8 0 15 -7 15 -15z m-10400 -125 c0
-5 -7 -10 -15 -10 -8 0 -15 5 -15 10 0 6 7 10 15 10 8 0 15 -4 15 -10z m1880
-55 c0 -51 -3 -65 -15 -65 -12 0 -15 14 -15 65 0 51 3 65 15 65 12 0 15 -14
15 -65z m1610 55 c0 -5 -7 -10 -15 -10 -8 0 -15 5 -15 10 0 6 7 10 15 10 8 0
15 -4 15 -10z m100 0 c0 -5 -4 -10 -10 -10 -5 0 -10 5 -10 10 0 6 5 10 10 10
6 0 10 -4 10 -10z m-4024 -25 c9 -8 11 -15 5 -15 -6 0 -11 -13 -11 -30 0 -16
5 -30 10 -30 6 0 10 -4 10 -10 0 -5 -9 -10 -20 -10 -16 0 -20 7 -20 34 0 19
-4 38 -10 41 -6 4 -5 11 3 20 15 18 15 18 33 0z m990 0 c9 -8 11 -15 5 -15 -6
0 -11 -13 -11 -30 0 -16 5 -30 10 -30 6 0 10 -4 10 -10 0 -5 -9 -10 -20 -10
-16 0 -20 7 -20 34 0 19 -4 38 -10 41 -6 4 -5 11 3 20 15 18 15 18 33 0z
m2140 0 c9 -8 11 -15 5 -15 -6 0 -11 -13 -11 -30 0 -16 5 -30 10 -30 6 0 10
-4 10 -10 0 -5 -9 -10 -20 -10 -16 0 -20 7 -20 34 0 19 -4 38 -10 41 -6 4 -5
11 3 20 15 18 15 18 33 0z m840 0 c9 -8 11 -15 5 -15 -18 0 -12 -52 7 -67 16
-12 15 -13 -8 -11 -21 3 -25 9 -28 41 -2 20 -8 37 -13 37 -5 0 -4 7 3 15 16
18 16 18 34 0z m-4459 -22 c3 -8 -6 -11 -24 -10 -22 2 -28 -2 -28 -18 0 -16 6
-20 28 -18 34 2 32 -20 -2 -25 -43 -7 -69 46 -39 76 15 15 60 12 65 -5z m91 5
c7 -7 12 -21 12 -33 0 -12 -5 -26 -12 -33 -7 -7 -21 -12 -33 -12 -12 0 -26 5
-33 12 -7 7 -12 21 -12 33 0 12 5 26 12 33 7 7 21 12 33 12 12 0 26 -5 33 -12z
m144 -2 c14 -21 9 -76 -7 -76 -10 0 -15 11 -15 35 0 19 -4 35 -10 35 -5 0 -10
-16 -10 -35 0 -24 -5 -35 -15 -35 -11 0 -15 11 -15 36 0 45 -24 42 -28 -4 -5
-48 -22 -38 -22 13 l0 44 58 0 c31 -1 60 -6 64 -13z m96 2 c27 -27 7 -78 -30
-78 -10 0 -18 -7 -18 -15 0 -8 -7 -15 -15 -15 -12 0 -15 13 -15 60 l0 60 33 0
c18 0 38 -5 45 -12z m52 -23 c0 -24 5 -35 15 -35 10 0 15 11 15 35 0 19 5 35
10 35 6 0 10 -20 10 -45 0 -44 0 -45 -34 -45 -37 0 -46 12 -46 61 0 19 5 29
15 29 10 0 15 -11 15 -35z m208 8 c3 -20 -1 -23 -29 -23 -27 0 -30 -2 -19 -15
10 -12 16 -13 27 -4 15 13 28 6 18 -10 -8 -15 -48 -14 -63 1 -16 16 -15 51 0
66 21 21 63 10 66 -15z m72 17 c0 -5 -7 -10 -15 -10 -10 0 -15 -11 -15 -35 0
-19 -4 -35 -10 -35 -5 0 -10 20 -10 45 0 41 2 45 25 45 14 0 25 -4 25 -10z
m128 -8 c3 -9 -3 -11 -24 -6 -17 4 -25 3 -21 -3 14 -23 45 -21 56 3 13 28 52
32 72 8 12 -15 10 -16 -19 -10 -30 7 -32 6 -32 -19 0 -25 2 -26 32 -19 29 6
31 5 19 -10 -17 -21 -60 -21 -68 0 -5 15 -7 15 -15 0 -11 -20 -52 -21 -68 -1
-10 12 -10 15 2 15 8 0 19 -5 25 -11 8 -8 13 -8 18 0 3 6 -2 14 -12 18 -35 12
-44 24 -31 40 14 17 60 13 66 -5z m122 -27 c0 -25 -4 -45 -10 -45 -5 0 -10 20
-10 45 0 25 5 45 10 45 6 0 10 -20 10 -45z m88 33 c22 -22 13 -38 -19 -38 -20
0 -29 -4 -26 -12 5 -14 11 -14 40 -3 13 6 16 3 11 -9 -9 -23 -61 -21 -74 3
-24 45 33 94 68 59z m100 -35 c2 -26 -1 -43 -7 -43 -6 0 -11 16 -11 35 0 24
-5 35 -15 35 -10 0 -15 -11 -15 -35 0 -24 -5 -35 -15 -35 -11 0 -15 12 -15 46
l0 45 38 -3 c36 -3 37 -4 40 -45z m93 31 c12 -15 10 -16 -19 -10 -30 7 -32 6
-32 -19 0 -25 2 -26 32 -19 29 6 31 5 19 -10 -20 -24 -59 -20 -72 8 -23 50 38
91 72 50z m87 4 c22 -22 13 -38 -19 -38 -20 0 -29 -4 -26 -12 5 -14 11 -14 40
-3 13 6 16 3 11 -9 -9 -23 -61 -21 -74 3 -15 30 4 71 33 71 13 0 28 -5 35 -12z
m140 -35 c3 -41 2 -43 -25 -43 -16 0 -34 5 -40 11 -17 17 -4 39 23 39 13 0 24
5 24 11 0 7 -10 9 -25 5 -14 -4 -25 -3 -25 2 0 16 14 23 40 20 22 -3 25 -8 28
-45z m1510 35 c7 -7 12 -27 12 -46 0 -32 -1 -33 -37 -30 -30 2 -38 7 -38 23 0
13 8 21 23 23 12 2 22 8 22 14 0 6 -10 8 -25 4 -19 -5 -23 -3 -19 9 7 18 45
20 62 3z m150 -35 c2 -26 -1 -43 -7 -43 -6 0 -11 16 -11 35 0 24 -5 35 -15 35
-10 0 -15 -11 -15 -35 0 -44 -18 -46 -22 -3 -4 46 -28 49 -28 4 0 -25 -4 -36
-15 -36 -11 0 -15 12 -15 45 l0 45 63 -2 62 -3 3 -42z m140 35 c7 -7 12 -21
12 -33 0 -12 -5 -26 -12 -33 -7 -7 -21 -12 -33 -12 -12 0 -26 5 -33 12 -7 7
-12 21 -12 33 0 12 5 26 12 33 7 7 21 12 33 12 12 0 26 -5 33 -12z m100 0 c29
-29 7 -78 -35 -78 -14 0 -23 -6 -23 -15 0 -8 -4 -15 -10 -15 -6 0 -10 27 -10
60 l0 60 33 0 c18 0 38 -5 45 -12z m100 -15 c3 -20 -1 -23 -29 -23 -27 0 -30
-2 -19 -15 10 -12 16 -13 27 -4 15 13 28 6 18 -10 -8 -15 -48 -14 -63 1 -16
16 -15 51 0 66 21 21 63 10 66 -15z m90 -20 c2 -26 -1 -43 -7 -43 -6 0 -11 16
-11 35 0 24 -5 35 -15 35 -10 0 -15 -11 -15 -35 0 -24 -5 -35 -15 -35 -11 0
-15 12 -15 46 l0 45 38 -3 c36 -3 37 -4 40 -45z m213 26 c16 -30 -3 -69 -34
-69 -29 0 -47 17 -47 45 0 45 60 63 81 24z m137 -26 c3 -43 3 -43 -31 -43 -23
0 -37 6 -41 16 -9 22 1 34 30 34 13 0 24 5 24 11 0 7 -10 9 -25 5 -14 -4 -25
-3 -25 2 0 16 14 23 40 20 22 -3 25 -8 28 -45z m100 0 c4 -50 -15 -59 -20 -10
-2 20 -8 32 -18 32 -10 0 -16 -12 -18 -32 -5 -50 -22 -39 -22 13 l0 45 38 -3
c36 -3 37 -4 40 -45z m37 27 c3 -11 10 -20 15 -20 5 0 12 9 15 20 6 19 25 28
25 13 0 -21 -39 -108 -50 -111 -9 -3 -11 1 -7 12 4 10 0 33 -8 53 -8 19 -15
39 -15 44 0 17 19 9 25 -11z m193 -7 c3 -20 -1 -23 -29 -23 -27 0 -30 -2 -19
-15 10 -12 16 -13 27 -4 15 13 28 6 18 -10 -8 -15 -48 -14 -63 1 -16 16 -15
51 0 66 21 21 63 10 66 -15z m45 15 c4 -10 7 -10 18 0 22 20 32 13 16 -12 -14
-21 -14 -25 1 -39 19 -20 9 -35 -13 -17 -12 10 -18 10 -30 0 -22 -18 -32 -3
-13 17 15 14 15 18 1 39 -14 22 -14 24 0 24 8 0 17 -6 20 -12z m128 -4 c12
-15 10 -16 -19 -10 -30 7 -32 6 -32 -19 0 -25 2 -26 32 -19 29 6 31 5 19 -10
-20 -24 -59 -20 -72 8 -23 50 38 91 72 50z m39 -29 c0 -25 -4 -45 -10 -45 -5
0 -10 20 -10 45 0 25 5 45 10 45 6 0 10 -20 10 -45z m110 0 c0 -25 -4 -45 -10
-45 -5 0 -10 20 -10 45 0 25 5 45 10 45 6 0 10 -20 10 -45z m98 -2 c4 -50 -15
-59 -20 -10 -2 20 -8 32 -18 32 -10 0 -16 -12 -18 -32 -5 -50 -22 -39 -22 13
l0 45 38 -3 c36 -3 37 -4 40 -45z m102 -1 c0 -26 -5 -53 -12 -60 -17 -17 -53
-15 -68 3 -14 17 -7 19 20 5 13 -7 21 -7 25 0 3 5 -2 10 -12 10 -25 0 -43 19
-43 45 0 30 19 45 57 45 33 0 33 0 33 -48z m9107 32 c8 -21 -13 -42 -28 -27
-13 13 -5 43 11 43 6 0 13 -7 17 -16z m-2787 -15 c0 -5 -4 -9 -10 -9 -5 0 -10
7 -10 16 0 8 5 12 10 9 6 -3 10 -10 10 -16z m-8320 -49 c0 -5 -7 -10 -15 -10
-8 0 -15 5 -15 10 0 6 7 10 15 10 8 0 15 -4 15 -10z m-2440 -69 c0 -11 -5 -23
-11 -27 -15 -9 -33 12 -26 30 9 23 37 20 37 -3z m400 -81 c0 -5 -7 -10 -15
-10 -8 0 -15 5 -15 10 0 6 7 10 15 10 8 0 15 -4 15 -10z m-254 -25 c9 -8 11
-15 5 -15 -18 0 -12 -52 7 -67 16 -12 15 -13 -8 -11 -21 3 -25 9 -28 41 -4 41
-5 42 -33 27 -12 -7 -19 -21 -19 -40 0 -17 -4 -30 -10 -30 -5 0 -10 20 -10 45
0 45 0 45 35 45 19 0 35 5 35 10 0 14 9 12 26 -5z m294 5 c0 -5 11 -10 24 -10
16 0 27 -7 31 -20 3 -11 10 -20 15 -20 5 0 12 9 15 20 6 20 25 28 25 11 0 -19
-43 -111 -52 -111 -6 0 -7 7 -4 15 8 21 -23 95 -40 95 -20 0 -18 -50 4 -67 16
-12 15 -13 -8 -11 -21 3 -25 9 -28 41 -2 20 -8 37 -13 37 -11 0 12 29 24 30 4
0 7 -4 7 -10z m-712 -22 c7 -7 12 -21 12 -33 0 -12 -5 -26 -12 -33 -7 -7 -21
-12 -33 -12 -12 0 -26 5 -33 12 -7 7 -12 21 -12 33 0 12 5 26 12 33 7 7 21 12
33 12 12 0 26 -5 33 -12z m100 0 c29 -29 7 -78 -35 -78 -14 0 -23 -6 -23 -15
0 -8 -4 -15 -10 -15 -6 0 -10 27 -10 60 l0 60 33 0 c18 0 38 -5 45 -12z m100
0 c27 -27 7 -78 -30 -78 -10 0 -21 -7 -24 -15 -13 -33 -24 -12 -24 45 l0 60
33 0 c18 0 38 -5 45 -12z m103 -9 c16 -30 -3 -69 -34 -69 -29 0 -47 17 -47 45
0 45 60 63 81 24z m169 -14 c0 -24 5 -35 15 -35 10 0 15 11 15 35 0 19 5 35
10 35 6 0 10 -20 10 -45 0 -43 -1 -45 -28 -45 -37 0 -52 17 -52 57 0 23 5 33
15 33 10 0 15 -11 15 -35z m148 -12 c2 -26 -1 -43 -7 -43 -6 0 -11 16 -11 35
0 24 -5 35 -15 35 -10 0 -15 -11 -15 -35 0 -24 -5 -35 -15 -35 -11 0 -15 12
-15 46 l0 45 38 -3 c36 -3 37 -4 40 -45z m42 2 c0 -25 -4 -45 -10 -45 -5 0
-10 20 -10 45 0 25 5 45 10 45 6 0 10 -20 10 -45z m8500 10 c0 -8 -7 -15 -15
-15 -9 0 -12 6 -9 15 4 8 10 15 15 15 5 0 9 -7 9 -15z m-2352 -13 c2 -7 -3
-12 -12 -12 -9 0 -16 7 -16 16 0 17 22 14 28 -4z m-5958 -32 c0 -5 -7 -10 -15
-10 -8 0 -15 5 -15 10 0 6 7 10 15 10 8 0 15 -4 15 -10z m8498 -59 c23 -14 10
-46 -18 -46 -16 0 -26 6 -28 19 -3 16 12 36 28 36 3 0 11 -4 18 -9z m-1928
-127 c0 -9 -7 -14 -17 -12 -25 5 -28 28 -4 28 12 0 21 -6 21 -16z m-6420 -110
c0 -8 -4 -12 -10 -9 -5 3 -10 10 -10 16 0 5 5 9 10 9 6 0 10 -7 10 -16z m9750
-22 c0 -13 -12 -22 -22 -16 -10 6 -1 24 13 24 5 0 9 -4 9 -8z m-10832 -95 c2
-12 -3 -17 -17 -17 -12 0 -21 6 -21 13 0 31 32 34 38 4z m2497 -16 c3 -5 1
-12 -5 -16 -5 -3 -10 1 -10 9 0 18 6 21 15 7z m10445 -21 c0 -5 -4 -10 -10
-10 -5 0 -10 5 -10 10 0 6 5 10 10 10 6 0 10 -4 10 -10z m540 -40 c0 -5 -5
-10 -11 -10 -5 0 -7 5 -4 10 3 6 8 10 11 10 2 0 4 -4 4 -10z m-4642 -11 c-2
-6 -8 -10 -13 -10 -5 0 -11 4 -13 10 -2 6 4 11 13 11 9 0 15 -5 13 -11z m5072
-34 c0 -8 -7 -15 -15 -15 -8 0 -15 7 -15 15 0 8 7 15 15 15 8 0 15 -7 15 -15z
m-7670 -89 c0 -3 -4 -8 -10 -11 -5 -3 -10 -1 -10 4 0 6 5 11 10 11 6 0 10 -2
10 -4z m-9030 -419 c0 -8 -3 -17 -7 -20 -9 -9 -34 13 -27 24 8 14 34 11 34 -4z
m10938 -250 c2 -10 -3 -17 -12 -17 -18 0 -29 16 -21 31 9 14 29 6 33 -14z
m-3538 -192 c0 -8 -4 -15 -10 -15 -5 0 -10 7 -10 15 0 8 5 15 10 15 6 0 10 -7
10 -15z m1648 -86 c-2 -6 -8 -10 -13 -10 -5 0 -11 4 -13 10 -2 6 4 11 13 11 9
0 15 -5 13 -11z m-120 -452 c2 -12 -3 -17 -17 -17 -12 0 -21 6 -21 13 0 31 32
34 38 4z m-2548 -137 c0 -5 -4 -10 -10 -10 -5 0 -10 5 -10 10 0 6 5 10 10 10
6 0 10 -4 10 -10z m3110 -30 c0 -5 -7 -10 -15 -10 -8 0 -15 5 -15 10 0 6 7 10
15 10 8 0 15 -4 15 -10z m4800 -4 c0 -8 -4 -17 -8 -20 -13 -8 -35 11 -28 23
10 16 36 14 36 -3z m-11950 -5 c0 -14 -18 -23 -30 -16 -6 4 -8 11 -5 16 8 12
35 12 35 0z m1345 -32 c0 -7 -8 -15 -17 -17 -18 -3 -25 18 -11 32 10 10 28 1
28 -15z m7783 -216 c3 -19 -1 -23 -22 -23 -21 0 -26 5 -26 26 0 21 4 25 23 22
14 -2 23 -11 25 -25z m-3988 -193 c0 -13 -7 -20 -20 -20 -13 0 -20 7 -20 20 0
13 7 20 20 20 13 0 20 -7 20 -20z m-320 -305 c0 -8 -7 -15 -15 -15 -8 0 -15 7
-15 15 0 8 7 15 15 15 8 0 15 -7 15 -15z m3208 -7 c-2 -15 -10 -23 -23 -23
-13 0 -21 8 -23 23 -3 18 1 22 23 22 22 0 26 -4 23 -22z m-3310 -155 c-5 -26
-38 -29 -38 -4 0 15 6 21 21 21 14 0 19 -5 17 -17z"/>
<path d="M883 8795 c-27 -19 -30 -47 -7 -66 15 -12 16 -11 10 9 -10 30 10 55
37 46 14 -4 18 -2 15 7 -7 20 -30 22 -55 4z"/>
<path d="M905 8750 c3 -5 8 -10 11 -10 2 0 4 5 4 10 0 6 -5 10 -11 10 -5 0 -7
-4 -4 -10z"/>
<path d="M1001 8661 c-17 -11 -7 -41 13 -41 22 0 30 20 15 36 -9 8 -19 10 -28
5z"/>
<path d="M646 8594 c-19 -18 -21 -65 -4 -82 36 -36 98 11 79 60 -14 38 -49 48
-75 22z"/>
<path d="M557 8282 c-6 -32 1 -52 18 -52 8 0 13 12 12 35 -1 42 -23 54 -30 17z"/>
<path d="M625 8270 c-9 -15 4 -30 26 -30 12 0 19 7 19 20 0 21 -33 29 -45 10z"/>
<path d="M695 8228 c-4 -10 -15 -20 -26 -23 -25 -8 -24 -25 1 -25 21 0 44 33
37 53 -3 8 -7 6 -12 -5z"/>
<path d="M13087 8700 c-3 -13 0 -20 9 -20 15 0 19 26 5 34 -5 3 -11 -3 -14
-14z"/>
<path d="M13180 8680 c0 -13 7 -20 20 -20 13 0 20 7 20 20 0 13 -7 20 -20 20
-13 0 -20 -7 -20 -20z"/>
<path d="M14014 8725 c-3 -8 -3 -19 0 -24 9 -13 36 -2 36 14 0 19 -30 27 -36
10z"/>
<path d="M13270 8680 c0 -13 7 -20 20 -20 13 0 20 7 20 20 0 13 -7 20 -20 20
-13 0 -20 -7 -20 -20z"/>
<path d="M14155 8690 c-4 -7 -3 -16 3 -22 14 -14 45 -2 40 15 -6 16 -34 21
-43 7z"/>
<path d="M14287 8704 c-13 -13 -7 -24 14 -24 11 0 19 5 17 12 -5 14 -22 21
-31 12z"/>
<path d="M16130 8680 c0 -13 7 -20 20 -20 13 0 20 7 20 20 0 13 -7 20 -20 20
-13 0 -20 -7 -20 -20z"/>
<path d="M16227 8704 c-13 -13 -7 -24 14 -24 11 0 19 5 17 12 -5 14 -22 21
-31 12z"/>
<path d="M16410 8700 c-12 -8 -12 -10 3 -16 21 -8 35 2 21 16 -5 5 -15 6 -24
0z"/>
<path d="M16670 8700 c-12 -8 -12 -10 3 -16 21 -8 35 2 21 16 -5 5 -15 6 -24
0z"/>
<path d="M906 8348 c-20 -28 -20 -48 0 -76 23 -33 74 -27 92 10 30 64 -52 123
-92 66z m74 -18 c20 -38 -8 -78 -45 -64 -36 14 -23 84 15 84 11 0 24 -9 30
-20z"/>
<path d="M3675 6460 c-4 -6 5 -10 20 -10 15 0 24 4 20 10 -3 6 -12 10 -20 10
-8 0 -17 -4 -20 -10z"/>
<path d="M3961 6452 c-7 -14 -7 -24 3 -37 19 -27 48 -12 44 22 -4 33 -32 42
-47 15z"/>
<path d="M4265 6460 c-4 -6 7 -10 25 -10 18 0 29 4 25 10 -3 6 -15 10 -25 10
-10 0 -22 -4 -25 -10z"/>
<path d="M4925 6420 c-8 -12 20 -24 35 -15 5 3 10 10 10 16 0 12 -37 12 -45
-1z"/>
<path d="M5235 6460 c-4 -6 5 -10 20 -10 15 0 24 4 20 10 -3 6 -12 10 -20 10
-8 0 -17 -4 -20 -10z"/>
<path d="M4172 5619 c-17 -6 -22 -15 -20 -31 8 -54 118 -56 118 -2 0 36 -49
53 -98 33z"/>
<path d="M5696 5749 c-45 -35 -34 -49 39 -49 72 0 83 12 45 50 -26 26 -51 25
-84 -1z"/>
<path d="M7036 5617 c-27 -20 -17 -59 17 -68 61 -16 110 29 68 63 -27 21 -60
23 -85 5z"/>
<path d="M7801 5743 c-44 -36 -43 -136 1 -168 30 -20 71 -19 91 3 25 27 24
143 -1 165 -24 22 -64 22 -91 0z"/>
<path d="M8613 5755 c-11 -8 -23 -24 -26 -35 -5 -19 -1 -20 59 -20 57 0 64 2
64 19 0 22 -35 51 -60 51 -9 0 -25 -7 -37 -15z"/>
<path d="M3940 4825 c-19 -23 -23 -105 -8 -135 20 -37 71 -40 94 -5 21 33 22
97 0 130 -19 29 -66 34 -86 10z"/>
<path d="M5196 4714 c-20 -19 -20 -38 -2 -53 21 -17 77 -9 90 12 9 15 7 22
-13 38 -28 23 -54 24 -75 3z"/>
<path d="M5775 4825 c-37 -36 -31 -45 30 -45 47 0 55 3 55 18 0 21 -30 52 -49
52 -6 0 -23 -11 -36 -25z"/>
<path d="M6974 4832 c-34 -22 -42 -77 -19 -122 19 -37 57 -48 90 -26 22 14 25
24 25 71 0 35 -5 59 -16 69 -16 17 -61 21 -80 8z"/>
<path d="M7840 4828 c-34 -37 -26 -48 35 -48 61 0 71 14 35 50 -26 26 -44 25
-70 -2z"/>
<path d="M8175 4825 c-37 -36 -31 -45 30 -45 47 0 55 3 55 18 0 21 -30 52 -49
52 -6 0 -23 -11 -36 -25z"/>
<path d="M4830 3995 c0 -18 5 -25 20 -25 15 0 20 7 20 25 0 18 -5 25 -20 25
-15 0 -20 -7 -20 -25z"/>
<path d="M3762 3979 c2 -6 8 -10 13 -10 5 0 11 4 13 10 2 6 -4 11 -13 11 -9 0
-15 -5 -13 -11z"/>
<path d="M4296 4023 c-11 -11 -6 -23 9 -23 8 0 15 4 15 9 0 13 -16 22 -24 14z"/>
<path d="M4382 3981 c2 -7 7 -12 11 -12 12 1 9 15 -3 20 -7 2 -11 -2 -8 -8z"/>
<path d="M4694 4005 c-7 -18 3 -35 22 -35 8 0 14 10 14 25 0 27 -27 35 -36 10z"/>
<path d="M5206 4023 c-11 -11 -6 -23 9 -23 8 0 15 4 15 9 0 13 -16 22 -24 14z"/>
<path d="M5287 3984 c-11 -11 3 -24 18 -18 8 4 12 10 9 15 -6 11 -18 12 -27 3z"/>
<path d="M5570 4010 c0 -5 9 -10 21 -10 11 0 17 5 14 10 -3 6 -13 10 -21 10
-8 0 -14 -4 -14 -10z"/>
<path d="M5844 4005 c-7 -18 3 -35 22 -35 8 0 14 10 14 25 0 27 -27 35 -36 10z"/>
<path d="M6185 3981 c-6 -11 9 -23 19 -14 9 9 7 23 -3 23 -6 0 -12 -4 -16 -9z"/>
<path d="M6346 4023 c-11 -11 -6 -23 9 -23 8 0 15 4 15 9 0 13 -16 22 -24 14z"/>
<path d="M6704 4005 c-7 -18 3 -35 22 -35 8 0 14 10 14 25 0 27 -27 35 -36 10z"/>
<path d="M6956 4023 c-11 -11 -6 -23 9 -23 8 0 15 4 15 9 0 13 -16 22 -24 14z"/>
<path d="M7046 4023 c-11 -11 -6 -23 9 -23 8 0 15 4 15 9 0 13 -16 22 -24 14z"/>
<path d="M7390 3995 c0 -18 5 -25 20 -25 15 0 20 7 20 25 0 18 -5 25 -20 25
-15 0 -20 -7 -20 -25z"/>
<path d="M7865 3981 c-6 -11 9 -23 19 -14 9 9 7 23 -3 23 -6 0 -12 -4 -16 -9z"/>
<path d="M8140 4010 c0 -5 9 -10 21 -10 11 0 17 5 14 10 -3 6 -13 10 -21 10
-8 0 -14 -4 -14 -10z"/>
<path d="M6450 3755 c0 -41 2 -45 24 -45 28 0 41 28 32 66 -5 17 -13 24 -31
24 -23 0 -25 -4 -25 -45z"/>
<path d="M7930 3735 c0 -18 5 -25 20 -25 15 0 20 7 20 25 0 18 -5 25 -20 25
-15 0 -20 -7 -20 -25z"/>
<path d="M8080 3755 c-10 -13 -9 -15 9 -15 11 0 21 4 21 9 0 18 -18 21 -30 6z"/>
<path d="M8164 3745 c-7 -18 3 -35 22 -35 8 0 14 10 14 25 0 27 -27 35 -36 10z"/>
<path d="M6032 3719 c2 -6 8 -10 13 -10 5 0 11 4 13 10 2 6 -4 11 -13 11 -9 0
-15 -5 -13 -11z"/>
<path d="M3786 3763 c-11 -11 -6 -23 9 -23 8 0 15 4 15 9 0 13 -16 22 -24 14z"/>
<path d="M4430 3735 c0 -18 5 -25 20 -25 15 0 20 7 20 25 0 18 -5 25 -20 25
-15 0 -20 -7 -20 -25z"/>
<path d="M4824 3745 c-7 -18 3 -35 22 -35 8 0 14 10 14 25 0 27 -27 35 -36 10z"/>
<path d="M5067 3724 c-11 -11 3 -24 18 -18 8 4 12 10 9 15 -6 11 -18 12 -27 3z"/>
<path d="M5382 3719 c2 -6 8 -10 13 -10 5 0 11 4 13 10 2 6 -4 11 -13 11 -9 0
-15 -5 -13 -11z"/>
<path d="M6576 3763 c-11 -11 -6 -23 9 -23 8 0 15 4 15 9 0 13 -16 22 -24 14z"/>
<path d="M6756 3763 c-11 -11 -6 -23 9 -23 8 0 15 4 15 9 0 13 -16 22 -24 14z"/>
<path d="M6880 3735 c0 -18 5 -25 20 -25 15 0 20 7 20 25 0 18 -5 25 -20 25
-15 0 -20 -7 -20 -25z"/>
<path d="M6980 3735 c0 -20 4 -26 18 -23 9 2 17 12 17 23 0 11 -8 21 -17 23
-14 3 -18 -3 -18 -23z"/>
<path d="M7080 3735 c0 -20 4 -26 18 -23 9 2 17 12 17 23 0 11 -8 21 -17 23
-14 3 -18 -3 -18 -23z"/>
<path d="M7186 3763 c-11 -11 -6 -23 9 -23 8 0 15 4 15 9 0 13 -16 22 -24 14z"/>
<path d="M3554 3485 c-7 -18 3 -35 21 -35 15 0 24 19 18 38 -6 17 -32 15 -39
-3z"/>
<path d="M3800 3475 c0 -20 4 -26 18 -23 9 2 17 12 17 23 0 11 -8 21 -17 23
-14 3 -18 -3 -18 -23z"/>
<path d="M4060 3495 c-10 -13 -9 -15 9 -15 11 0 21 4 21 9 0 18 -18 21 -30 6z"/>
<path d="M4470 3490 c0 -5 9 -10 21 -10 11 0 17 5 14 10 -3 6 -13 10 -21 10
-8 0 -14 -4 -14 -10z"/>
<path d="M4750 3490 c0 -5 9 -10 21 -10 11 0 17 5 14 10 -3 6 -13 10 -21 10
-8 0 -14 -4 -14 -10z"/>
<path d="M4892 3459 c2 -6 8 -10 13 -10 5 0 11 4 13 10 2 6 -4 11 -13 11 -9 0
-15 -5 -13 -11z"/>
<path d="M6405 3461 c-6 -11 9 -23 19 -14 9 9 7 23 -3 23 -6 0 -12 -4 -16 -9z"/>
<path d="M6684 3485 c-7 -18 3 -35 21 -35 15 0 24 19 18 38 -6 17 -32 15 -39
-3z"/>
<path d="M6784 3485 c-7 -18 3 -35 21 -35 15 0 24 19 18 38 -6 17 -32 15 -39
-3z"/>
<path d="M6890 3495 c-10 -13 -9 -15 9 -15 11 0 21 4 21 9 0 18 -18 21 -30 6z"/>
<path d="M7184 3485 c-7 -18 3 -35 22 -35 8 0 14 10 14 25 0 27 -27 35 -36 10z"/>
<path d="M7332 3461 c4 -13 18 -16 19 -4 0 4 -5 9 -11 12 -7 2 -11 -2 -8 -8z"/>
<path d="M7660 3495 c-10 -13 -9 -15 9 -15 11 0 21 4 21 9 0 18 -18 21 -30 6z"/>
<path d="M8164 3485 c-7 -18 3 -35 22 -35 8 0 14 10 14 25 0 27 -27 35 -36 10z"/>
<path d="M3464 3225 c-7 -18 3 -35 21 -35 15 0 24 19 18 38 -6 17 -32 15 -39
-3z"/>
<path d="M3564 3225 c-7 -18 3 -35 21 -35 15 0 24 19 18 38 -6 17 -32 15 -39
-3z"/>
<path d="M3664 3225 c-7 -18 3 -35 21 -35 15 0 24 19 18 38 -6 17 -32 15 -39
-3z"/>
<path d="M3764 3225 c-7 -18 3 -35 22 -35 8 0 14 10 14 25 0 27 -27 35 -36 10z"/>
</g>
</svg>
